<svg xmlns="http://www.w3.org/2000/svg">
<defs>
<font id="HelveticaNeueLTW1G65Medium" horiz-adv-x="556" >
  <font-face 
    font-family="HelveticaNeueLTW1G65Medium"
    font-weight="500"
    font-stretch="normal"
    units-per-em="1000"
    panose-1="2 11 6 4 2 2 2 2 2 4"
    ascent="714"
    descent="-286"
    x-height="517"
    cap-height="714"
    bbox="-165 -248 1074 957"
    underline-thickness="50"
    underline-position="-50"
    unicode-range="U+000D-FB04"
  />
<missing-glyph horiz-adv-x="512" 
d="M0 0h512v718h-512v-718zM50 50v617h412v-617h-412zM225 234h46q0 52 6 72q6 19 43 52q37 34 50 60t13 60q0 59 -35 95t-89 36q-56 0 -92 -34t-43 -103l50 -8q11 95 82 95q31 0 53.5 -24.5t22.5 -60.5q0 -20 -9.5 -37t-40.5 -46q-31 -31 -46 -59q-13 -25 -13 -81zM222 117
h56v67h-56v-67z" />
    <glyph glyph-name="IJ" unicode="IJ" horiz-adv-x="807" 
d="M76 0v714h125v-714h-125zM283 212v38h125v-37q0 -64 22 -96t76 -32q58 0 79 33t21 105v491h125v-484q0 -42 -4.5 -74t-19.5 -66t-39.5 -56t-68.5 -36.5t-103 -14.5q-108 0 -160.5 62.5t-52.5 166.5z" />
    <glyph glyph-name="ij" unicode="ij" horiz-adv-x="478" 
d="M63 606v108h114v-108h-114zM63 0v517h114v-517h-114zM300 606v108h114v-108h-114zM300 -39v556h114v-561q0 -80 -35 -120.5t-113 -40.5q-31 0 -51 4v90q20 -4 39 -4q29 0 37.5 17t8.5 59z" />
    <glyph glyph-name="napostrophe" unicode="&#x22;n" horiz-adv-x="693" 
d="M179 0v517h108v-76l2 -2q27 43 69 67.5t92 24.5q86 0 134.5 -45t48.5 -131v-355h-114v325q-2 61 -26 88.5t-75 27.5q-56 0 -90.5 -39t-34.5 -97v-305h-114zM14 432v58q61 9 61 89h-61v135h125v-135q0 -58 -34 -98.5t-91 -48.5z" />
    <glyph glyph-name="f_f" unicode="ff" horiz-adv-x="602" 
d="M9 432v85h85v43q0 90 38 122t103 32q50 0 77 -7v-89q-26 6 -50 6q-54 0 -54 -54v-53h173v43q0 90 38.5 122t104.5 32q56 0 80 -7v-89q-23 6 -53 6q-56 0 -56 -54v-53h97v-85h-97v-432h-114v432h-173v-432h-114v432h-85z" />
    <glyph glyph-name="fi" unicode="fi" 
d="M378 606v108h114v-108h-114zM9 432v85h85v43q0 90 38.5 122t104.5 32q56 0 80 -7v-89q-23 6 -53 6q-56 0 -56 -54v-53h97v-85h-97v-432h-114v432h-85zM378 0v517h114v-517h-114z" />
    <glyph glyph-name="fl" unicode="fl" 
d="M378 0v714h114v-714h-114zM9 432v85h85v43q0 90 38.5 122t104.5 32q56 0 80 -7v-89q-23 6 -53 6q-56 0 -56 -54v-53h97v-85h-97v-432h-114v432h-85z" />
    <glyph glyph-name="f_f_i" unicode="ffi" horiz-adv-x="843" 
d="M9 432v85h85v43q0 90 38 122t103 32q50 0 77 -7v-89q-26 6 -50 6q-54 0 -54 -54v-53h173v43q0 90 38.5 122t104.5 32q56 0 80 -7v-89q-23 6 -53 6q-56 0 -56 -54v-53h97v-85h-97v-432h-114v432h-173v-432h-114v432h-85zM665 606v108h114v-108h-114zM665 0v517h114v-517
h-114z" />
    <glyph glyph-name="f_f_l" unicode="ffl" horiz-adv-x="843" 
d="M9 432v85h85v43q0 90 38 122t103 32q50 0 77 -7v-89q-26 6 -50 6q-54 0 -54 -54v-53h173v43q0 90 38.5 122t104.5 32q56 0 80 -7v-89q-23 6 -53 6q-56 0 -56 -54v-53h97v-85h-97v-432h-114v432h-173v-432h-114v432h-85zM665 0v714h114v-714h-114z" />
    <glyph glyph-name=".notdef" horiz-adv-x="512" 
d="M0 0h512v718h-512v-718zM50 50v617h412v-617h-412zM225 234h46q0 52 6 72q6 19 43 52q37 34 50 60t13 60q0 59 -35 95t-89 36q-56 0 -92 -34t-43 -103l50 -8q11 95 82 95q31 0 53.5 -24.5t22.5 -60.5q0 -20 -9.5 -37t-40.5 -46q-31 -31 -46 -59q-13 -25 -13 -81zM222 117
h56v67h-56v-67z" />
    <glyph glyph-name=".null" horiz-adv-x="500" 
 />
    <glyph glyph-name="nonmarkingreturn" horiz-adv-x="333" 
 />
    <glyph glyph-name="CR" unicode="&#xd;" horiz-adv-x="0" 
 />
    <glyph glyph-name="space" unicode=" " horiz-adv-x="278" 
 />
    <glyph glyph-name="exclam" unicode="!" horiz-adv-x="278" 
d="M110 199l-33 309v206h125v-206l-33 -309h-59zM72 0v125h134v-125h-134z" />
    <glyph glyph-name="quotedbl" unicode="&#x22;" horiz-adv-x="444" 
d="M259 432v282h102v-282h-102zM83 432v282h102v-282h-102z" />
    <glyph glyph-name="numbersign" unicode="#" 
d="M99 0l29 210h-94v75h105l18 130h-94v75h104l29 210h81l-30 -210h111l29 210h81l-30 -210h86v-75h-96l-18 -130h85v-75h-95l-30 -210h-80l29 210h-110l-30 -210h-80zM219 285h111l18 130h-111z" />
    <glyph glyph-name="dollar" unicode="$" 
d="M17 217h114q-2 -140 128 -144v242q-49 13 -83 27t-70 38.5t-55 63.5t-19 91q0 91 66 143.5t161 52.5v78h43v-78q95 0 157 -50t62 -145h-114q-2 52 -27 78.5t-78 26.5v-211q53 -14 89.5 -28.5t73 -39.5t55.5 -63.5t19 -90.5q0 -107 -66 -164t-171 -61v-78h-43v78
q-111 2 -177.5 64t-64.5 170zM259 441v200q-113 0 -113 -98q0 -76 113 -102zM302 73q123 9 123 119q0 35 -19.5 59.5t-43 34.5t-60.5 20v-233z" />
    <glyph glyph-name="percent" unicode="%" horiz-adv-x="1000" 
d="M260 -24l389 748h76l-387 -748h-78zM249 316q-86 0 -126.5 55.5t-40.5 143.5q0 87 42 143t125 56t125 -56t42 -143q0 -88 -40.5 -143.5t-126.5 -55.5zM248 381q40 0 59 37t19 97q0 134 -78 134q-76 0 -76 -134t76 -134zM584 185q0 87 42 143t125 56t125 -56t42 -143
q0 -88 -40.5 -143.5t-126.5 -55.5t-126.5 55.5t-40.5 143.5zM674 185q0 -134 76 -134q40 0 59 37t19 97q0 134 -78 134q-76 0 -76 -134z" />
    <glyph glyph-name="ampersand" unicode="&#x26;" horiz-adv-x="648" 
d="M32 198q0 122 164 207q-25 32 -36.5 49.5t-23.5 47.5t-12 59q0 76 50.5 123t124.5 47t126 -44.5t52 -126.5q0 -112 -129 -181l111 -134q17 49 22 96h100q-12 -104 -56 -175l137 -166h-140l-65 80q-77 -94 -200 -94q-101 0 -163 57t-62 155zM291 448q27 18 42 31
t28.5 35.5t13.5 49.5q0 36 -20 59t-53 23t-54.5 -22t-21.5 -57q0 -13 3.5 -26t12 -26.5t14.5 -22t18.5 -24t16.5 -20.5zM146 196q0 -56 32 -88t83 -32q36 0 65 14.5t39 26t27 34.5q3 3 4 5l-140 174q-4 -3 -26.5 -15t-31.5 -19.5t-24 -22.5t-21.5 -34t-6.5 -43z" />
    <glyph glyph-name="quotesingle" unicode="'" horiz-adv-x="278" 
d="M88 432v282h102v-282h-102z" />
    <glyph glyph-name="parenleft" unicode="(" horiz-adv-x="278" 
d="M193 -191q-69 111 -106.5 219.5t-37.5 241.5q0 240 144 461h93q-123 -221 -123 -461q0 -252 123 -461h-93z" />
    <glyph glyph-name="parenright" unicode=")" horiz-adv-x="278" 
d="M-8 -191q123 220 123 460q0 251 -123 462h93q68 -109 106 -219.5t38 -242.5q0 -241 -144 -460h-93z" />
    <glyph glyph-name="asterisk" unicode="*" horiz-adv-x="370" 
d="M116 401l-56 39l70 94l-111 38l22 65l110 -43v120h68v-120l109 43l24 -65l-114 -38l70 -94l-53 -39l-71 98z" />
    <glyph glyph-name="plus" unicode="+" horiz-adv-x="600" 
d="M48 202v102h201v202h102v-202h201v-102h-201v-202h-102v202h-201z" />
    <glyph glyph-name="comma" unicode="," horiz-adv-x="278" 
d="M69 0v135h139v-135q-1 -61 -37.5 -103.5t-97.5 -54.5v61q32 8 49 35.5t16 61.5h-69z" />
    <glyph glyph-name="hyphen" unicode="-" horiz-adv-x="389" 
d="M49 218v108h291v-108h-291z" />
    <glyph glyph-name="period" unicode="." horiz-adv-x="278" 
d="M69 0v135h139v-135h-139z" />
    <glyph glyph-name="slash" unicode="/" horiz-adv-x="352" 
d="M-22 -17l287 748h109l-287 -748h-109z" />
    <glyph glyph-name="zero" unicode="0" 
d="M278 -14q-72 0 -122 33.5t-75 90.5t-35 115t-10 125t10 125t35 115t75 90.5t122 33.5t122 -33.5t75 -90.5t35 -115t10 -125t-10 -125t-35 -115t-75 -90.5t-122 -33.5zM278 81q128 0 128 269t-128 269t-128 -269t128 -269z" />
    <glyph glyph-name="one" unicode="1" 
d="M225 0v494h-172v90q79 0 136 28t68 88h93v-700h-125z" />
    <glyph glyph-name="two" unicode="2" 
d="M39 0q1 162 154 265q17 12 55.5 38t59 42t46 40.5t37.5 51.5t13 58q0 49 -26 86.5t-92 37.5q-115 0 -120 -175h-114q0 120 63.5 195t177.5 75q61 0 107 -20.5t70.5 -53.5t36 -68.5t11.5 -72.5q0 -62 -31.5 -114t-78.5 -87.5t-95 -65.5t-87.5 -63.5t-49.5 -66.5h341v-102
h-478z" />
    <glyph glyph-name="three" unicode="3" 
d="M31 230h114q-2 -66 32.5 -107.5t99.5 -41.5q59 0 96.5 33.5t37.5 91.5q0 39 -15 64.5t-43.5 37t-57.5 15t-67 2.5v85q65 -3 110 23.5t45 86.5q0 45 -30.5 72t-78.5 27q-56 0 -87 -42.5t-29 -100.5h-114q4 104 66.5 171t165.5 67q89 0 155 -49.5t66 -137.5
q0 -115 -99 -150v-2q60 -12 93.5 -59t33.5 -116q0 -96 -72.5 -155t-175.5 -59q-118 0 -181 65.5t-65 178.5z" />
    <glyph glyph-name="four" unicode="4" 
d="M24 166v113l300 421h108v-444h90v-90h-90v-166h-108v166h-300zM112 256h212v308h-2z" />
    <glyph glyph-name="five" unicode="5" 
d="M35 199h114q5 -57 39 -87.5t90 -30.5q68 0 99 42t31 112q0 62 -34 104t-99 42q-88 0 -113 -64h-114l75 383h362v-102h-277l-36 -178l2 -2q47 53 129 53q102 0 160.5 -65.5t58.5 -168.5q0 -44 -14 -87t-42 -80.5t-76 -60.5t-110 -23q-105 0 -173 55.5t-72 157.5z" />
    <glyph glyph-name="six" unicode="6" 
d="M289 -14q-74 0 -125.5 27.5t-79 80t-39 114.5t-11.5 144q0 67 14 128t43.5 115t82.5 86.5t124 32.5q84 0 145.5 -53.5t65.5 -137.5h-114q-4 44 -31 70t-71 26q-26 0 -47 -9t-35 -21.5t-25 -35.5t-17 -40t-10.5 -46.5t-6.5 -44.5t-4 -43l2 -2q46 83 151 83
q102 0 161.5 -66.5t59.5 -168.5q0 -103 -64.5 -171t-168.5 -68zM159 227q0 -61 33.5 -103.5t92.5 -42.5t91 42.5t32 103.5q0 60 -32 101.5t-91 41.5q-60 0 -93 -41t-33 -102z" />
    <glyph glyph-name="seven" unicode="7" 
d="M128 0q12 160 84 314.5t186 283.5h-363v102h479v-95q-236 -266 -261 -605h-125z" />
    <glyph glyph-name="eight" unicode="8" 
d="M31 206q0 66 34 111t94 60v2q-99 37 -99 144q0 90 57 140.5t161 50.5t161 -50.5t57 -140.5q0 -107 -99 -144v-2q60 -15 94 -60t34 -111q0 -101 -69 -160.5t-178 -59.5t-178 59.5t-69 160.5zM278 414q49 0 79.5 27t30.5 76q0 50 -31 78.5t-79 28.5t-79 -28.5t-31 -78.5
q0 -49 30.5 -76t79.5 -27zM145 206q0 -61 37 -95.5t96 -34.5t96 34.5t37 95.5q0 57 -37.5 90t-95.5 33t-95.5 -33t-37.5 -90z" />
    <glyph glyph-name="nine" unicode="9" 
d="M47 177h114q4 -44 31 -70t71 -26q30 0 53 10.5t38 32t25 42t16 53.5t8 51.5t5 50.5l-2 2q-47 -84 -151 -84q-99 0 -160 64.5t-61 171.5q0 105 64.5 172t176.5 67q71 0 121 -27.5t76.5 -79.5t38 -114.5t11.5 -144.5q0 -67 -14 -128t-43.5 -115t-82.5 -86.5t-124 -32.5
q-84 0 -145.5 53.5t-65.5 137.5zM270 329q61 0 94 42.5t33 104.5q0 60 -33 101.5t-94 41.5q-59 0 -90.5 -41t-31.5 -102q0 -62 31.5 -104.5t90.5 -42.5z" />
    <glyph glyph-name="colon" unicode=":" horiz-adv-x="278" 
d="M69 371v135h139v-135h-139zM69 0v135h139v-135h-139z" />
    <glyph glyph-name="semicolon" unicode=";" horiz-adv-x="278" 
d="M69 371v135h139v-135h-139zM69 0v135h139v-135q-1 -61 -37.5 -103.5t-97.5 -54.5v61q32 8 49 35.5t16 61.5h-69z" />
    <glyph glyph-name="less" unicode="&#x3c;" horiz-adv-x="600" 
d="M46 217v72l508 225v-102l-374 -159l374 -159v-102z" />
    <glyph glyph-name="equal" unicode="=" horiz-adv-x="600" 
d="M48 303v102h504v-102h-504zM48 101v102h504v-102h-504z" />
    <glyph glyph-name="greater" unicode="&#x3e;" horiz-adv-x="600" 
d="M46 -8v102l374 159l-374 159v102l508 -225v-72z" />
    <glyph glyph-name="question" unicode="?" 
d="M223 194q0 83 17.5 125t60.5 78q5 4 17.5 15t17.5 15.5t14.5 14t13.5 17t9 18t7 22.5t2 26q0 54 -32.5 82.5t-65.5 28.5q-61 0 -91 -39.5t-30 -109.5h-114q0 111 65 177.5t175 66.5q95 0 156.5 -54t61.5 -148q0 -27 -6.5 -51t-11 -36.5t-22.5 -32.5t-21 -22.5t-27 -23.5
q-33 -28 -47.5 -43t-27.5 -48t-13 -78h-108zM208 0v125h134v-125h-134z" />
    <glyph glyph-name="at" unicode="@" horiz-adv-x="800" 
d="M196 298q0 100 62.5 179.5t156.5 79.5q77 0 112 -72l18 57h70l-72 -263q-9 -29 -9 -46q0 -23 19 -23q49 0 89.5 63.5t40.5 152.5q0 109 -76.5 174.5t-190.5 65.5q-126 0 -206.5 -86.5t-80.5 -213.5q0 -144 83.5 -231t212.5 -87q66 0 125 26t100 73h70q-48 -78 -127 -121
t-172 -43q-157 0 -264.5 109t-107.5 278q0 150 108.5 255.5t258.5 105.5q137 0 236 -83.5t99 -209.5q0 -71 -25 -130.5t-63 -94.5t-77 -54t-71 -19q-24 0 -40.5 15t-18.5 43h-2q-50 -57 -112 -57t-104 46t-42 111zM281 307q0 -40 22 -65.5t58 -25.5q56 0 96.5 59t40.5 119
q0 36 -23.5 62t-55.5 26q-58 0 -98 -56.5t-40 -118.5z" />
    <glyph glyph-name="A" unicode="A" horiz-adv-x="667" 
d="M-7 0l274 714h133l275 -714h-134l-67 189h-285l-67 -189h-129zM223 284h218l-107 307h-3z" />
    <glyph glyph-name="B" unicode="B" horiz-adv-x="704" 
d="M76 0v714h347q99 0 155.5 -45t56.5 -132q0 -108 -102 -152v-2q65 -14 99.5 -62t34.5 -122q0 -89 -65.5 -144t-197.5 -55h-328zM201 415h204q46 0 75.5 26t29.5 73q0 52 -26 75t-79 23h-204v-197zM201 102h221q57 0 88.5 29.5t31.5 83.5q0 53 -31.5 81.5t-88.5 28.5h-221
v-223z" />
    <glyph glyph-name="C" unicode="C" horiz-adv-x="722" 
d="M38 357q0 158 93.5 266t248.5 108q124 0 207.5 -65.5t95.5 -178.5h-125q-36 142 -178 142q-107 0 -162 -79.5t-55 -192.5t55 -192.5t162 -79.5q80 0 126.5 52t55.5 135h122q-8 -129 -91.5 -209t-212.5 -80q-155 0 -248.5 107.5t-93.5 266.5z" />
    <glyph glyph-name="D" unicode="D" horiz-adv-x="722" 
d="M76 0v714h296q157 0 236 -99.5t79 -257.5t-79 -257.5t-236 -99.5h-296zM201 102h123q71 0 119.5 19t73.5 55.5t35 79.5t10 101t-10 101t-35 79.5t-73.5 55.5t-119.5 19h-123v-510z" />
    <glyph glyph-name="E" unicode="E" horiz-adv-x="630" 
d="M76 0v714h514v-108h-389v-187h360v-102h-360v-209h396v-108h-521z" />
    <glyph glyph-name="F" unicode="F" horiz-adv-x="593" 
d="M76 0v714h493v-108h-368v-187h323v-102h-323v-317h-125z" />
    <glyph glyph-name="G" unicode="G" horiz-adv-x="759" 
d="M43 357q0 158 93.5 266t248.5 108q121 0 206.5 -64t99.5 -180h-122q-9 67 -61 104.5t-123 37.5q-107 0 -162 -79.5t-55 -192.5t55 -192.5t162 -79.5q95 -2 146.5 50.5t53.5 145.5h-190v95h304v-376h-80l-19 84q-49 -56 -98.5 -78.5t-116.5 -22.5q-155 0 -248.5 107.5
t-93.5 266.5z" />
    <glyph glyph-name="H" unicode="H" horiz-adv-x="722" 
d="M73 0v714h125v-284h325v284h125v-714h-125v322h-325v-322h-125z" />
    <glyph glyph-name="I" unicode="I" horiz-adv-x="278" 
d="M76 0v714h125v-714h-125z" />
    <glyph glyph-name="J" unicode="J" horiz-adv-x="537" 
d="M13 212v38h125v-37q0 -64 22 -96t76 -32q58 0 79 33t21 105v491h125v-484q0 -42 -4.5 -74t-19.5 -66t-39.5 -56t-68.5 -36.5t-103 -14.5q-108 0 -160.5 62.5t-52.5 166.5z" />
    <glyph glyph-name="K" unicode="K" horiz-adv-x="685" 
d="M76 0v714h125v-325l318 325h154l-285 -285l305 -429h-156l-234 341l-102 -101v-240h-125z" />
    <glyph glyph-name="L" unicode="L" horiz-adv-x="574" 
d="M76 0v714h125v-606h363v-108h-488z" />
    <glyph glyph-name="M" unicode="M" horiz-adv-x="889" 
d="M74 0v714h176l197 -559h2l192 559h174v-714h-119v551h-2l-198 -551h-103l-198 551h-2v-551h-119z" />
    <glyph glyph-name="N" unicode="N" horiz-adv-x="722" 
d="M71 0v714h132l326 -526h2v526h119v-714h-132l-325 525h-3v-525h-119z" />
    <glyph glyph-name="O" unicode="O" horiz-adv-x="760" 
d="M380 731q155 0 248.5 -108t93.5 -266q0 -159 -93.5 -266.5t-248.5 -107.5t-248.5 107.5t-93.5 266.5q0 158 93.5 266t248.5 108zM380 629q-107 0 -162 -79.5t-55 -192.5t55 -192.5t162 -79.5t162 79.5t55 192.5t-55 192.5t-162 79.5z" />
    <glyph glyph-name="P" unicode="P" horiz-adv-x="667" 
d="M76 0v714h315q72 0 123 -21t75.5 -57t34.5 -70.5t10 -72.5t-10 -72.5t-34.5 -69.5t-75.5 -56t-123 -21h-190v-274h-125zM201 612v-236h183q50 0 87.5 28t37.5 90q0 118 -123 118h-185z" />
    <glyph glyph-name="Q" unicode="Q" horiz-adv-x="760" 
d="M621 83l92 -80l-61 -68l-104 91q-74 -43 -168 -43q-155 0 -248.5 107.5t-93.5 266.5q0 158 93.5 266t248.5 108t248.5 -108t93.5 -266q0 -78 -25 -152.5t-76 -121.5zM460 102l-72 63l60 69l87 -76q62 76 62 199q0 113 -55 192.5t-162 79.5t-162 -79.5t-55 -192.5
t55 -192.5t162 -79.5q45 0 80 17z" />
    <glyph glyph-name="R" unicode="R" horiz-adv-x="704" 
d="M76 0v714h341q116 0 176 -50.5t60 -142.5q0 -48 -14 -84t-37 -55.5t-37.5 -27.5t-29.5 -13v-2q41 -5 73.5 -40.5t32.5 -110.5q0 -146 39 -188h-134q-19 31 -19 105q0 103 -29.5 146t-112.5 43h-184v-294h-125zM201 612v-223h205q122 0 122 114q0 63 -33.5 86t-90.5 23
h-203z" />
    <glyph glyph-name="S" unicode="S" horiz-adv-x="648" 
d="M33 238h125q0 -78 50 -115.5t131 -37.5q77 0 114 31.5t37 76.5q0 66 -59 88q-23 9 -51.5 17t-78 20.5t-83.5 21.5q-158 41 -158 181q0 101 77.5 155.5t183.5 54.5q117 0 195.5 -60.5t78.5 -167.5h-125q-10 126 -154 126q-52 0 -91.5 -22t-39.5 -71q0 -67 85 -92
q1 0 47 -12t94.5 -25t64.5 -18q67 -21 103 -71.5t36 -110.5q0 -58 -24 -102.5t-65.5 -70t-90.5 -38.5t-104 -13q-130 0 -213 64t-85 191z" />
    <glyph glyph-name="T" unicode="T" horiz-adv-x="593" 
d="M8 606v108h578v-108h-227v-606h-125v606h-226z" />
    <glyph glyph-name="U" unicode="U" horiz-adv-x="722" 
d="M68 257v457h125v-416q0 -36 2 -59t11 -54.5t26 -49.5t49.5 -31t79.5 -13t79.5 13t49.5 31t26 49.5t11 54.5t2 59v416h125v-457q0 -134 -78.5 -204t-214.5 -70t-214.5 70t-78.5 204z" />
    <glyph glyph-name="V" unicode="V" horiz-adv-x="611" 
d="M233 0l-238 714h130l179 -565h2l183 565h127l-244 -714h-139z" />
    <glyph glyph-name="W" unicode="W" horiz-adv-x="944" 
d="M194 0l-188 714h127l129 -546h2l144 546h128l140 -546h2l133 546h127l-197 -714h-127l-143 546h-2l-146 -546h-129z" />
    <glyph glyph-name="X" unicode="X" horiz-adv-x="648" 
d="M250 370l-236 344h149l162 -252l169 252h140l-236 -344l253 -370h-152l-178 273l-181 -273h-143z" />
    <glyph glyph-name="Y" unicode="Y" horiz-adv-x="648" 
d="M262 0v280l-268 434h145l189 -320l186 320h140l-267 -434v-280h-125z" />
    <glyph glyph-name="Z" unicode="Z" horiz-adv-x="630" 
d="M55 606v108h543v-95l-416 -511h426v-108h-585v102l416 504h-384z" />
    <glyph glyph-name="bracketleft" unicode="[" horiz-adv-x="296" 
d="M72 -191v922h223v-90h-115v-742h115v-90h-223z" />
    <glyph glyph-name="backslash" unicode="\" horiz-adv-x="352" 
d="M87 731l287 -748h-109l-287 748h109z" />
    <glyph glyph-name="bracketright" unicode="]" horiz-adv-x="296" 
d="M224 731v-922h-223v90h115v742h-115v90h223z" />
    <glyph glyph-name="asciicircum" unicode="^" horiz-adv-x="600" 
d="M186 335h-102l180 365h72l180 -365h-102l-114 247z" />
    <glyph glyph-name="underscore" unicode="_" horiz-adv-x="500" 
d="M500 -125h-500v50h500v-50z" />
    <glyph glyph-name="grave" unicode="`" horiz-adv-x="241" 
d="M-29 732h134l91 -143h-83z" />
    <glyph glyph-name="a" unicode="a" 
d="M493 381v-266q0 -21 6 -30t21 -9q17 0 28 2v-79q-37 -13 -72 -13q-76 0 -88 63q-32 -31 -81 -47t-98 -16q-76 0 -126.5 39.5t-50.5 111.5q0 37 11.5 64.5t28.5 43.5t45 27.5t51.5 16.5t57.5 9l63 8q55 7 76 20t21 45q0 70 -107 70q-50 0 -80 -20.5t-34 -61.5h-114
q6 92 71.5 132t163.5 40q85 0 146 -37t61 -113zM379 174v85q-27 -16 -88 -24l-46 -6q-99 -13 -99 -82q0 -36 28.5 -53.5t69.5 -17.5q53 0 94 24.5t41 73.5z" />
    <glyph glyph-name="b" unicode="b" horiz-adv-x="611" 
d="M63 0v714h114v-264h2q24 37 66.5 59t87.5 22q117 0 179.5 -77.5t62.5 -197.5q0 -113 -57.5 -191.5t-165.5 -78.5q-136 0 -179 85h-2v-71h-108zM461 258q0 75 -38 129t-105 54q-71 0 -108 -49t-37 -134q0 -80 39 -131t106 -51q72 0 107.5 53t35.5 129z" />
    <glyph glyph-name="c" unicode="c" 
d="M523 344h-114q-7 47 -38 72t-80 25q-25 0 -47.5 -8t-45 -27t-36 -58.5t-13.5 -94.5q0 -73 34 -125t103 -52q50 0 82.5 31t40.5 87h114q-16 -101 -76.5 -154.5t-160.5 -53.5q-118 0 -184.5 74.5t-66.5 192.5q0 123 66 200.5t189 77.5q95 0 160 -48t73 -139z" />
    <glyph glyph-name="d" unicode="d" horiz-adv-x="611" 
d="M547 714v-714h-108v70h-2q-43 -84 -160 -84q-118 0 -180 77t-62 199q0 132 65.5 200.5t158.5 68.5q52 0 99.5 -20.5t72.5 -60.5h2v264h114zM149 253q0 -73 36.5 -125t106.5 -52q71 0 108 54t37 129q0 86 -38.5 134t-104.5 48q-74 0 -109.5 -55t-35.5 -133z" />
    <glyph glyph-name="e" unicode="e" 
d="M529 229h-380q0 -65 35.5 -109t103.5 -44q96 0 126 86h108q-18 -83 -82.5 -129.5t-151.5 -46.5q-120 0 -186.5 74.5t-66.5 197.5q0 114 69 193.5t181 79.5q119 0 189 -91t55 -211zM149 304h266q-4 57 -39 97t-91 40q-58 0 -96 -39t-40 -98z" />
    <glyph glyph-name="f" unicode="f" horiz-adv-x="315" 
d="M9 432v85h85v43q0 90 38.5 122t104.5 32q56 0 80 -7v-89q-23 6 -53 6q-56 0 -56 -54v-53h97v-85h-97v-432h-114v432h-85z" />
    <glyph glyph-name="g" unicode="g" horiz-adv-x="593" 
d="M538 517v-490q0 -116 -65 -174t-189 -58q-57 0 -104.5 14t-84.5 52t-42 95h114q10 -45 41.5 -60.5t82.5 -15.5q133 0 133 132v79h-2q-24 -43 -65.5 -67t-89.5 -24q-79 0 -132.5 38t-76.5 97.5t-23 136.5q0 109 63.5 184t170.5 75q111 0 153 -85h2v71h114zM285 90
q70 0 104.5 52.5t34.5 127.5q0 73 -34.5 122t-104.5 49t-103 -53t-33 -127q0 -70 34.5 -120.5t101.5 -50.5z" />
    <glyph glyph-name="h" unicode="h" horiz-adv-x="574" 
d="M60 0v714h114v-265h2q22 36 63.5 59t91.5 23q86 0 134.5 -45t48.5 -131v-355h-114v325q-2 61 -26 88.5t-75 27.5q-56 0 -90.5 -39t-34.5 -97v-305h-114z" />
    <glyph glyph-name="i" unicode="i" horiz-adv-x="241" 
d="M63 606v108h114v-108h-114zM63 0v517h114v-517h-114z" />
    <glyph glyph-name="j" unicode="j" horiz-adv-x="241" 
d="M63 606v108h114v-108h-114zM63 -39v556h114v-561q0 -80 -35 -120.5t-113 -40.5q-31 0 -51 4v90q20 -4 39 -4q29 0 37.5 17t8.5 59z" />
    <glyph glyph-name="k" unicode="k" horiz-adv-x="537" 
d="M63 0v714h114v-406l206 209h140l-198 -190l217 -327h-139l-158 251l-68 -66v-185h-114z" />
    <glyph glyph-name="l" unicode="l" horiz-adv-x="241" 
d="M63 0v714h114v-714h-114z" />
    <glyph glyph-name="m" unicode="m" horiz-adv-x="870" 
d="M60 0v517h108v-72h3q29 43 65 64.5t94 21.5q50 0 89 -22t56 -64q63 86 162 86q173 0 173 -174v-357h-114v302q0 29 -1 46.5t-6.5 37.5t-15 30.5t-27.5 17.5t-44 7q-110 0 -110 -138v-303h-114v332q0 56 -20.5 82.5t-70.5 26.5q-47 0 -80 -36.5t-33 -97.5v-307h-114z" />
    <glyph glyph-name="n" unicode="n" horiz-adv-x="574" 
d="M60 0v517h108v-76l2 -2q27 43 69 67.5t92 24.5q86 0 134.5 -45t48.5 -131v-355h-114v325q-2 61 -26 88.5t-75 27.5q-56 0 -90.5 -39t-34.5 -97v-305h-114z" />
    <glyph glyph-name="o" unicode="o" horiz-adv-x="593" 
d="M297 -14q-121 0 -191 75.5t-70 197.5q0 120 70 196t191 76t191 -76t70 -196q0 -122 -70 -197.5t-191 -75.5zM297 76q72 0 109.5 54t37.5 129q0 74 -37.5 128t-109.5 54t-109.5 -54t-37.5 -128q0 -75 37.5 -129t109.5 -54z" />
    <glyph glyph-name="p" unicode="p" horiz-adv-x="611" 
d="M63 -191v708h108v-70h2q45 84 160 84q117 0 179.5 -77.5t62.5 -197.5q0 -113 -57.5 -191.5t-165.5 -78.5q-54 0 -101 20.5t-72 60.5h-2v-258h-114zM461 258q0 75 -38 129t-105 54q-71 0 -108 -49t-37 -134q0 -80 39 -131t106 -51q72 0 107.5 53t35.5 129z" />
    <glyph glyph-name="q" unicode="q" horiz-adv-x="611" 
d="M547 517v-708h-114v258h-2q-54 -81 -173 -81q-108 0 -165.5 78.5t-57.5 191.5q0 120 62.5 197.5t179.5 77.5q115 0 160 -84h2v70h108zM149 258q0 -76 35.5 -129t107.5 -53t108.5 49t36.5 133q0 86 -37 134.5t-108 48.5q-67 0 -105 -54t-38 -129z" />
    <glyph glyph-name="r" unicode="r" horiz-adv-x="352" 
d="M60 0v517h107v-100h2q10 43 55.5 78.5t95.5 35.5q10 0 43 -3v-110q-27 5 -49 5q-60 0 -100 -47t-40 -130v-246h-114z" />
    <glyph glyph-name="s" unicode="s" horiz-adv-x="519" 
d="M32 166h114q9 -90 117 -90q20 0 37.5 2.5t37 9t30.5 21t10 35.5q-1 13 -5.5 23t-15 17.5t-20.5 12.5t-28 10t-30 8t-35 7.5t-35 7.5q-36 8 -62 17.5t-51.5 26t-39 44t-13.5 65.5q0 40 20 70.5t53 46.5t69 23.5t74 7.5q87 0 147 -38.5t69 -120.5h-119q-14 69 -105 69
q-21 0 -40 -3.5t-36.5 -16t-17.5 -33.5q0 -12 4 -21.5t15 -16.5t20 -12t28.5 -10.5t30 -8t35.5 -7.5l35 -7q37 -8 62.5 -17.5t51.5 -26.5t39.5 -43.5t13.5 -63.5q0 -58 -36.5 -97.5t-86.5 -55t-108 -15.5q-102 0 -164.5 46t-64.5 134z" />
    <glyph glyph-name="t" unicode="t" horiz-adv-x="333" 
d="M8 432v85h86v155h114v-155h103v-85h-103v-276q0 -40 9.5 -55.5t45.5 -15.5q32 0 48 4v-88q-50 -6 -74 -6q-84 0 -112.5 30.5t-30.5 101.5v305h-86z" />
    <glyph glyph-name="u" unicode="u" horiz-adv-x="574" 
d="M514 517v-517h-112v72h-2q-21 -38 -62.5 -62t-84.5 -24q-101 0 -147 50t-46 153v328h114v-317q0 -66 25 -95t74 -29q127 0 127 141v300h114z" />
    <glyph glyph-name="v" unicode="v" horiz-adv-x="519" 
d="M197 0l-188 517h124l131 -397h2l126 397h118l-185 -517h-128z" />
    <glyph glyph-name="w" unicode="w" horiz-adv-x="778" 
d="M173 0l-160 517h121l101 -386h2l97 386h115l93 -386h2l105 386h116l-162 -517h-117l-96 384h-2l-95 -384h-120z" />
    <glyph glyph-name="x" unicode="x" horiz-adv-x="537" 
d="M4 0l195 272l-179 245h138l108 -159l113 159h132l-176 -239l198 -278h-137l-131 191l-127 -191h-134z" />
    <glyph glyph-name="y" unicode="y" horiz-adv-x="519" 
d="M199 2l-196 515h125l135 -386h2l131 386h119l-201 -545q-35 -88 -54 -115q-44 -62 -129 -62q-40 0 -79 6v96q44 -7 54 -7q36 0 52.5 17.5t27.5 54.5z" />
    <glyph glyph-name="z" unicode="z" horiz-adv-x="500" 
d="M42 427v90h420v-80l-296 -347h311v-90h-455v80l286 347h-266z" />
    <glyph glyph-name="braceleft" unicode="{" horiz-adv-x="296" 
d="M-4 225v90q17 0 36.5 5.5t38.5 23t19 44.5v206q0 63 43.5 100t84.5 37h91v-90h-55q-56 0 -56 -70v-195q0 -52 -34.5 -77t-69.5 -28v-2q104 -10 104 -111v-189q0 -70 56 -70h55v-90h-91q-41 0 -84.5 37t-43.5 100v198q0 43 -32 62t-62 19z" />
    <glyph glyph-name="bar" unicode="|" horiz-adv-x="222" 
d="M60 -214v1000h102v-1000h-102z" />
    <glyph glyph-name="braceright" unicode="}" horiz-adv-x="296" 
d="M300 315v-90q-31 0 -62.5 -17.5t-31.5 -55.5v-206q0 -63 -43.5 -100t-84.5 -37h-91v90h55q56 0 56 70v195q0 88 104 105v2q-104 10 -104 111v189q0 70 -56 70h-55v90h91q41 0 84.5 -37t43.5 -100v-198q0 -43 31.5 -62t62.5 -19z" />
    <glyph glyph-name="asciitilde" unicode="~" horiz-adv-x="600" 
d="M194 338q44 0 114 -34t97 -34q55 0 90 68l36 -84q-42 -86 -125 -86q-47 0 -116.5 34t-94.5 34q-55 0 -90 -68l-36 84q42 86 125 86z" />
    <glyph glyph-name="uni00A0" unicode="&#xa0;" horiz-adv-x="278" 
 />
    <glyph glyph-name="exclamdown" unicode="&#xa1;" horiz-adv-x="278" 
d="M206 531v-125h-134v125h134zM202 21v-204h-125v204l33 311h59z" />
    <glyph glyph-name="cent" unicode="&#xa2;" 
d="M268 -104v90q-105 0 -168 77.5t-63 189.5q0 125 64.5 201.5t166.5 76.5v90h43v-90q85 0 146 -51t67 -136h-114q-5 43 -32.5 70t-66.5 27v-365q91 16 103 118h114q-18 -98 -72.5 -153t-144.5 -55v-90h-43zM268 76v365q-61 -6 -89 -61t-28 -127q0 -67 29 -117.5t88 -59.5z
" />
    <glyph glyph-name="sterling" unicode="&#xa3;" 
d="M31 319v65h63q-47 56 -47 141q0 90 71 148t163 58q117 0 183.5 -63t67.5 -184h-114q-9 152 -135 152q-48 0 -79.5 -31t-31.5 -86q0 -50 46 -135h147v-65h-123q16 -29 16 -67q0 -89 -101 -164l2 -2q5 2 22 9t24.5 9.5t20.5 5.5t25 3q32 0 81 -17q46 -18 74 -18q53 0 97 38
l51 -77q-37 -31 -73.5 -43.5t-86.5 -12.5q-19 0 -56 7t-43 8q-60 20 -105 20q-61 0 -101 -34l-53 81q41 28 74.5 74t33.5 88q0 48 -21 92h-92z" />
    <glyph glyph-name="currency" unicode="&#xa4;" 
d="M76 90l-56 56l57 61q-50 56 -50 142q0 97 50 144l-57 61l57 57l57 -56q54 46 146 46q85 0 137 -45l58 57l61 -61l-56 -58q47 -49 47 -143q0 -89 -48 -146l55 -59l-55 -55l-57 58q-52 -50 -143 -50q-93 0 -147 49zM279 201q60 0 100 44t40 106q0 60 -40 104t-99 44
q-62 0 -103.5 -43.5t-41.5 -106.5q0 -62 41.5 -105t102.5 -43z" />
    <glyph glyph-name="yen" unicode="&#xa5;" 
d="M221 0v165h-137v65h137v68h-137v65h98l-187 351h127l156 -320l159 320h124l-188 -351h99v-65h-137v-68h137v-65h-137v-165h-114z" />
    <glyph glyph-name="brokenbar" unicode="&#xa6;" horiz-adv-x="222" 
d="M60 411v250h102v-250h-102zM60 -89v250h102v-250h-102z" />
    <glyph glyph-name="section" unicode="&#xa7;" 
d="M485 542h-108q-2 43 -27 71t-67 28q-32 0 -57 -21.5t-25 -53.5q0 -34 34.5 -63t83.5 -52.5t98 -49.5t83.5 -68t34.5 -95q0 -46 -31 -88t-75 -56q55 -47 55 -128q0 -80 -58 -125.5t-140 -45.5q-94 0 -154 54t-62 151h108q8 -115 105 -115q87 0 87 81q0 15 -4 28.5
t-16 26.5t-20 21.5t-29.5 21.5t-30 18t-37 19.5t-35.5 18.5q-80 39 -128 83.5t-48 108.5q0 104 108 149q-43 46 -43 101q0 76 60 122.5t137 46.5q87 0 144 -51.5t57 -137.5zM357 310l-166 95q-28 -8 -44.5 -29.5t-16.5 -50.5q0 -47 55 -78l182 -102q60 26 60 82q0 23 -15 42
t-55 41z" />
    <glyph glyph-name="dieresis" unicode="&#xa8;" horiz-adv-x="241" 
d="M149 710h114v-108h-114v108zM91 602h-114v108h114v-108z" />
    <glyph glyph-name="copyright" unicode="&#xa9;" horiz-adv-x="800" 
d="M767 357q0 -164 -107.5 -269t-258.5 -105q-160 0 -264 106.5t-104 267.5q0 164 108 269t260 105q151 0 258.5 -105t107.5 -269zM687 357q0 135 -82.5 222t-203.5 87q-123 0 -205.5 -87t-82.5 -222q0 -131 79 -220t209 -89q122 0 204 87t82 222zM521 285h69
q-12 -71 -61 -112.5t-116 -41.5q-95 0 -153.5 64t-58.5 162q0 93 57 154t153 61q71 0 120 -39.5t58 -111.5h-68q-8 39 -38 62.5t-72 23.5q-61 0 -95.5 -42.5t-34.5 -107.5q0 -67 36.5 -114t95.5 -47q44 0 73.5 24.5t34.5 64.5z" />
    <glyph glyph-name="ordfeminine" unicode="&#xaa;" horiz-adv-x="380" 
d="M331 621v-151q0 -12 3 -17.5t14 -4.5h7q6 0 9 1v-68q-22 -8 -47 -8q-53 0 -62 49q-14 -21 -49.5 -35t-67.5 -14q-51 0 -86.5 24.5t-35.5 68.5q0 27 11 45.5t34 29t40.5 15.5t49.5 10q70 11 83 20q10 7 10 18q0 29 -16 37t-44 8q-66 0 -70 -42h-85q6 57 50.5 82t109.5 25
q58 0 100 -23.5t42 -69.5zM244 491v44q-11 -6 -37.5 -10.5t-48 -7.5t-38.5 -14.5t-17 -31.5q0 -33 56 -33q85 0 85 53z" />
    <glyph glyph-name="guillemotleft" unicode="&#xab;" horiz-adv-x="463" 
d="M403 93l-155 123v112l155 123v-103l-95 -76l95 -76v-103zM205 93l-155 123v112l155 123v-103l-95 -76l95 -76v-103z" />
    <glyph glyph-name="logicalnot" unicode="&#xac;" horiz-adv-x="600" 
d="M450 108v195h-402v102h504v-297h-102z" />
    <glyph glyph-name="uni00AD" unicode="&#xad;" horiz-adv-x="389" 
d="M49 218v108h291v-108h-291z" />
    <glyph glyph-name="registered" unicode="&#xae;" horiz-adv-x="800" 
d="M767 357q0 -164 -107.5 -269t-258.5 -105q-160 0 -264 106.5t-104 267.5q0 164 108 269t260 105q151 0 258.5 -105t107.5 -269zM687 357q0 135 -82.5 222t-203.5 87q-123 0 -205.5 -87t-82.5 -222q0 -131 79 -220t209 -89q122 0 204 87t82 222zM327 320v-177h-68v414h157
q76 0 113.5 -28.5t37.5 -90.5q0 -101 -108 -113l116 -182h-77l-107 177h-64zM327 378h76q47 0 71.5 12t24.5 53q0 56 -90 56h-82v-121z" />
    <glyph glyph-name="macron" unicode="&#xaf;" horiz-adv-x="241" 
d="M265 624h-288v65h288v-65z" />
    <glyph glyph-name="degree" unicode="&#xb0;" horiz-adv-x="400" 
d="M50 564q0 62 44 106t106 44t106 -44t44 -106t-44 -106t-106 -44t-106 44t-44 106zM106 564q0 -39 27.5 -66.5t66.5 -27.5t66.5 27.5t27.5 66.5t-27.5 66.5t-66.5 27.5t-66.5 -27.5t-27.5 -66.5z" />
    <glyph glyph-name="plusminus" unicode="&#xb1;" horiz-adv-x="600" 
d="M249 381v125h102v-125h201v-102h-201v-125h-102v125h-201v102h201zM48 0v102h504v-102h-504z" />
    <glyph glyph-name="twosuperior" unicode="&#xb2;" horiz-adv-x="390" 
d="M353 467v-70h-319q1 63 24.5 103.5t74.5 71.5l73 45q63 38 63 85q0 25 -17 41t-47 16q-70 0 -76 -83h-87q0 68 43.5 110.5t120.5 42.5q70 0 110 -34t40 -93q0 -78 -100 -137l-69 -42q-44 -27 -52 -56h218z" />
    <glyph glyph-name="threesuperior" unicode="&#xb3;" horiz-adv-x="390" 
d="M160 593v60h24q35 0 56 14t21 40q0 54 -69 54q-35 0 -54 -20t-19 -54h-80q3 67 44.5 104.5t112.5 37.5q65 0 105 -30t40 -83q0 -59 -64 -86q81 -26 81 -108q0 -58 -47.5 -96t-116.5 -38q-79 0 -121.5 38.5t-42.5 100.5h80q5 -69 84 -69q39 0 61.5 18t22.5 50q0 67 -92 67
h-26z" />
    <glyph glyph-name="acute" unicode="&#xb4;" horiz-adv-x="241" 
d="M45 589l90 143h135l-142 -143h-83z" />
    <glyph glyph-name="mu" unicode="&#xb5;" horiz-adv-x="574" 
d="M514 517v-517h-112v72h-2q-52 -86 -141 -86q-55 0 -85 26v-203h-114v708h114v-317q0 -66 25 -95t74 -29q127 0 127 141v300h114z" />
    <glyph glyph-name="paragraph" unicode="&#xb6;" horiz-adv-x="600" 
d="M246 -160v504q-96 0 -155.5 51t-59.5 131q0 97 61.5 142.5t171.5 45.5h259v-874h-80v809h-117v-809h-80z" />
    <glyph glyph-name="periodcentered" unicode="&#xb7;" horiz-adv-x="278" 
d="M64 302q0 29 22.5 51.5t52.5 22.5t52.5 -22.5t22.5 -51.5q0 -30 -22.5 -53t-52.5 -23t-52.5 23t-22.5 53z" />
    <glyph glyph-name="cedilla" unicode="&#xb8;" horiz-adv-x="241" 
d="M9 -200l18 40q35 -16 68 -16q58 0 58 41q0 18 -13.5 28t-32.5 10q-23 0 -39 -10l-22 19l66 88h48l-46 -59l1 -1q16 4 33 4q33 0 59 -19.5t26 -55.5q0 -46 -36 -69t-85 -23q-61 0 -103 23z" />
    <glyph glyph-name="onesuperior" unicode="&#xb9;" horiz-adv-x="390" 
d="M58 692v58q120 0 138 70h70v-423h-87v295h-121z" />
    <glyph glyph-name="ordmasculine" unicode="&#xba;" horiz-adv-x="380" 
d="M371 543q0 -79 -46 -124.5t-132 -45.5t-132 45.5t-46 124.5t46 125t132 46t132 -46t46 -125zM284 543q0 42 -24 74t-67 32q-44 0 -67.5 -32t-23.5 -74t24 -73.5t67 -31.5q44 0 66 31t25 74z" />
    <glyph glyph-name="guillemotright" unicode="&#xbb;" horiz-adv-x="463" 
d="M258 451l155 -123v-112l-155 -123v103l95 76l-95 76v103zM60 451l155 -123v-112l-155 -123v103l95 76l-95 76v103z" />
    <glyph glyph-name="onequarter" unicode="&#xbc;" horiz-adv-x="834" 
d="M151 -24l419 748h78l-418 -748h-79zM36 577v58q120 0 138 70h70v-423h-87v295h-121zM632 0v92h-193v76l198 255h78v-263h58v-68h-58v-92h-83zM632 160v159l-124 -159h124z" />
    <glyph glyph-name="onehalf" unicode="&#xbd;" horiz-adv-x="834" 
d="M131 -24l419 748h78l-418 -748h-79zM36 577v58q120 0 138 70h70v-423h-87v295h-121zM791 70v-70h-319q1 63 24.5 103.5t74.5 71.5l73 45q63 38 63 85q0 25 -17 41t-47 16q-70 0 -76 -83h-87q0 68 43.5 110.5t120.5 42.5q70 0 110 -34t40 -93q0 -78 -100 -137l-69 -42
q-44 -27 -52 -56h218z" />
    <glyph glyph-name="threequarters" unicode="&#xbe;" horiz-adv-x="834" 
d="M201 -24l419 748h78l-418 -748h-79zM167 476v60h24q35 0 56 14t21 40q0 54 -69 54q-35 0 -54 -20t-19 -54h-80q3 67 44.5 104.5t112.5 37.5q65 0 105 -30t40 -83q0 -59 -64 -86q81 -25 81 -108q0 -58 -47.5 -96t-116.5 -38q-79 0 -121.5 38.5t-42.5 100.5h80
q5 -69 84 -69q39 0 61.5 18t22.5 50q0 67 -92 67h-26zM642 0v92h-193v76l198 255h78v-263h58v-68h-58v-92h-83zM642 160v159l-124 -159h124z" />
    <glyph glyph-name="questiondown" unicode="&#xbf;" 
d="M210 531h134v-125h-134v125zM393 39h114q0 -107 -65 -173t-175 -66q-94 0 -156 53t-62 144q0 44 14.5 77.5t29 48.5t44.5 40q33 28 47.5 43t27.5 48t13 78h108q0 -83 -17.5 -125t-60.5 -78q-4 -4 -15.5 -13.5t-15.5 -13t-13 -12.5t-13 -14t-9.5 -14.5t-8 -17.5
t-4.5 -19.5t-2 -23.5q0 -51 32 -78.5t66 -27.5q60 0 90.5 39t30.5 105z" />
    <glyph glyph-name="Agrave" unicode="&#xc0;" horiz-adv-x="667" 
d="M-7 0l274 714h133l275 -714h-134l-67 189h-285l-67 -189h-129zM223 284h218l-107 307h-3zM167 926h134l91 -143h-83z" />
    <glyph glyph-name="Aacute" unicode="&#xc1;" horiz-adv-x="667" 
d="M-7 0l274 714h133l275 -714h-134l-67 189h-285l-67 -189h-129zM223 284h218l-107 307h-3zM276 783l90 143h135l-142 -143h-83z" />
    <glyph glyph-name="Acircumflex" unicode="&#xc2;" horiz-adv-x="667" 
d="M-7 0l274 714h133l275 -714h-134l-67 189h-285l-67 -189h-129zM223 284h218l-107 307h-3zM334 873l-70 -90h-92l107 143h111l108 -143h-93z" />
    <glyph glyph-name="Atilde" unicode="&#xc3;" horiz-adv-x="667" 
d="M-7 0l274 714h133l275 -714h-134l-67 189h-285l-67 -189h-129zM223 284h218l-107 307h-3zM455 914h56q-9 -55 -33 -81q-28 -34 -78 -34q-31 0 -74 19q-43 18 -68 18q-35 0 -43 -41h-57q7 44 34.5 78.5t69.5 34.5q33 0 81 -20q42 -18 62 -18q39 0 50 44z" />
    <glyph glyph-name="Adieresis" unicode="&#xc4;" horiz-adv-x="667" 
d="M-7 0l274 714h133l275 -714h-134l-67 189h-285l-67 -189h-129zM223 284h218l-107 307h-3zM363 904h114v-108h-114v108zM305 796h-114v108h114v-108z" />
    <glyph glyph-name="Aring" unicode="&#xc5;" horiz-adv-x="667" 
d="M-7 0l274 714h133l275 -714h-134l-67 189h-285l-67 -189h-129zM223 284h218l-107 307h-3zM334 751q-44 0 -74 29t-30 74t30.5 74t73.5 29t73.5 -29t30.5 -74t-30.5 -74t-73.5 -29zM274 854q0 -26 17.5 -43.5t42.5 -17.5q26 0 43 17.5t17 43.5q0 27 -17 44t-43 17
q-25 0 -42.5 -17t-17.5 -44z" />
    <glyph glyph-name="AE" unicode="&#xc6;" horiz-adv-x="963" 
d="M-7 0l355 714h576v-108h-348v-187h326v-102h-326v-209h354v-108h-473v183h-239l-86 -183h-139zM421 606l-157 -328h193v328h-36z" />
    <glyph glyph-name="Ccedilla" unicode="&#xc7;" horiz-adv-x="722" 
d="M249 -200l18 40q35 -16 68 -16q58 0 58 41q0 18 -13.5 28t-32.5 10q-23 0 -39 -10l-22 19l55 74q-139 14 -221 118.5t-82 252.5q0 158 93.5 266t248.5 108q124 0 207.5 -65.5t95.5 -178.5h-125q-36 142 -178 142q-107 0 -162 -79.5t-55 -192.5t55 -192.5t162 -79.5
q80 0 126.5 52t55.5 135h122q-8 -127 -89.5 -207t-208.5 -82l-32 -42l1 -1q16 4 33 4q33 0 59 -19.5t26 -55.5q0 -46 -36 -69t-85 -23q-61 0 -103 23z" />
    <glyph glyph-name="Egrave" unicode="&#xc8;" horiz-adv-x="630" 
d="M76 0v714h514v-108h-389v-187h360v-102h-360v-209h396v-108h-521zM153 926h134l91 -143h-83z" />
    <glyph glyph-name="Eacute" unicode="&#xc9;" horiz-adv-x="630" 
d="M76 0v714h514v-108h-389v-187h360v-102h-360v-209h396v-108h-521zM282 783l90 143h135l-142 -143h-83z" />
    <glyph glyph-name="Ecircumflex" unicode="&#xca;" horiz-adv-x="630" 
d="M76 0v714h514v-108h-389v-187h360v-102h-360v-209h396v-108h-521zM330 873l-70 -90h-92l107 143h111l108 -143h-93z" />
    <glyph glyph-name="Edieresis" unicode="&#xcb;" horiz-adv-x="630" 
d="M76 0v714h514v-108h-389v-187h360v-102h-360v-209h396v-108h-521zM359 904h114v-108h-114v108zM301 796h-114v108h114v-108z" />
    <glyph glyph-name="Igrave" unicode="&#xcc;" horiz-adv-x="278" 
d="M76 0v714h125v-714h-125zM-28 926h134l91 -143h-83z" />
    <glyph glyph-name="Iacute" unicode="&#xcd;" horiz-adv-x="278" 
d="M76 0v714h125v-714h-125zM81 783l90 143h135l-142 -143h-83z" />
    <glyph glyph-name="Icircumflex" unicode="&#xce;" horiz-adv-x="278" 
d="M76 0v714h125v-714h-125zM139 873l-70 -90h-92l107 143h111l108 -143h-93z" />
    <glyph glyph-name="Idieresis" unicode="&#xcf;" horiz-adv-x="278" 
d="M76 0v714h125v-714h-125zM168 904h114v-108h-114v108zM110 796h-114v108h114v-108z" />
    <glyph glyph-name="Eth" unicode="&#xd0;" horiz-adv-x="722" 
d="M76 0v330h-73v78h73v306h296q157 0 236 -99.5t79 -257.5t-79 -257.5t-236 -99.5h-296zM201 612v-204h195v-78h-195v-228h123q71 0 119.5 19t73.5 55.5t35 79.5t10 101t-10 101t-35 79.5t-73.5 55.5t-119.5 19h-123z" />
    <glyph glyph-name="Ntilde" unicode="&#xd1;" horiz-adv-x="722" 
d="M71 0v714h132l326 -526h2v526h119v-714h-132l-325 525h-3v-525h-119zM480 914h56q-9 -55 -33 -81q-28 -34 -78 -34q-31 0 -74 19q-43 18 -68 18q-35 0 -43 -41h-57q7 44 34.5 78.5t69.5 34.5q33 0 81 -20q42 -18 62 -18q39 0 50 44z" />
    <glyph glyph-name="Ograve" unicode="&#xd2;" horiz-adv-x="760" 
d="M380 731q155 0 248.5 -108t93.5 -266q0 -159 -93.5 -266.5t-248.5 -107.5t-248.5 107.5t-93.5 266.5q0 158 93.5 266t248.5 108zM380 629q-107 0 -162 -79.5t-55 -192.5t55 -192.5t162 -79.5t162 79.5t55 192.5t-55 192.5t-162 79.5zM204 926h134l91 -143h-83z" />
    <glyph glyph-name="Oacute" unicode="&#xd3;" horiz-adv-x="760" 
d="M380 731q155 0 248.5 -108t93.5 -266q0 -159 -93.5 -266.5t-248.5 -107.5t-248.5 107.5t-93.5 266.5q0 158 93.5 266t248.5 108zM380 629q-107 0 -162 -79.5t-55 -192.5t55 -192.5t162 -79.5t162 79.5t55 192.5t-55 192.5t-162 79.5zM333 783l90 143h135l-142 -143h-83z
" />
    <glyph glyph-name="Ocircumflex" unicode="&#xd4;" horiz-adv-x="760" 
d="M380 731q155 0 248.5 -108t93.5 -266q0 -159 -93.5 -266.5t-248.5 -107.5t-248.5 107.5t-93.5 266.5q0 158 93.5 266t248.5 108zM380 629q-107 0 -162 -79.5t-55 -192.5t55 -192.5t162 -79.5t162 79.5t55 192.5t-55 192.5t-162 79.5zM381 873l-70 -90h-92l107 143h111
l108 -143h-93z" />
    <glyph glyph-name="Otilde" unicode="&#xd5;" horiz-adv-x="760" 
d="M380 731q155 0 248.5 -108t93.5 -266q0 -159 -93.5 -266.5t-248.5 -107.5t-248.5 107.5t-93.5 266.5q0 158 93.5 266t248.5 108zM380 629q-107 0 -162 -79.5t-55 -192.5t55 -192.5t162 -79.5t162 79.5t55 192.5t-55 192.5t-162 79.5zM502 914h56q-9 -55 -33 -81
q-28 -34 -78 -34q-31 0 -74 19q-43 18 -68 18q-35 0 -43 -41h-57q7 44 34.5 78.5t69.5 34.5q33 0 81 -20q42 -18 62 -18q39 0 50 44z" />
    <glyph glyph-name="Odieresis" unicode="&#xd6;" horiz-adv-x="760" 
d="M380 731q155 0 248.5 -108t93.5 -266q0 -159 -93.5 -266.5t-248.5 -107.5t-248.5 107.5t-93.5 266.5q0 158 93.5 266t248.5 108zM380 629q-107 0 -162 -79.5t-55 -192.5t55 -192.5t162 -79.5t162 79.5t55 192.5t-55 192.5t-162 79.5zM410 904h114v-108h-114v108zM352 796
h-114v108h114v-108z" />
    <glyph glyph-name="multiply" unicode="&#xd7;" horiz-adv-x="600" 
d="M370 253l174 -174l-80 -71l-164 174l-166 -174l-80 71l175 174l-174 174l80 71l164 -174l166 174l80 -71z" />
    <glyph glyph-name="Oslash" unicode="&#xd8;" horiz-adv-x="760" 
d="M677 734l43 -36l-79 -89q81 -106 81 -252q0 -159 -93.5 -266.5t-248.5 -107.5q-132 0 -222 82l-76 -85l-42 36l79 90q-81 104 -81 251q0 158 93.5 266t248.5 108q133 0 222 -81zM199 196l329 370q-53 63 -148 63q-107 0 -162 -79.5t-55 -192.5q0 -93 36 -161zM560 518
l-328 -370q58 -63 148 -63q107 0 162 79.5t55 192.5q0 97 -37 161z" />
    <glyph glyph-name="Ugrave" unicode="&#xd9;" horiz-adv-x="722" 
d="M68 257v457h125v-416q0 -36 2 -59t11 -54.5t26 -49.5t49.5 -31t79.5 -13t79.5 13t49.5 31t26 49.5t11 54.5t2 59v416h125v-457q0 -134 -78.5 -204t-214.5 -70t-214.5 70t-78.5 204zM184 926h134l91 -143h-83z" />
    <glyph glyph-name="Uacute" unicode="&#xda;" horiz-adv-x="722" 
d="M68 257v457h125v-416q0 -36 2 -59t11 -54.5t26 -49.5t49.5 -31t79.5 -13t79.5 13t49.5 31t26 49.5t11 54.5t2 59v416h125v-457q0 -134 -78.5 -204t-214.5 -70t-214.5 70t-78.5 204zM313 783l90 143h135l-142 -143h-83z" />
    <glyph glyph-name="Ucircumflex" unicode="&#xdb;" horiz-adv-x="722" 
d="M68 257v457h125v-416q0 -36 2 -59t11 -54.5t26 -49.5t49.5 -31t79.5 -13t79.5 13t49.5 31t26 49.5t11 54.5t2 59v416h125v-457q0 -134 -78.5 -204t-214.5 -70t-214.5 70t-78.5 204zM361 873l-70 -90h-92l107 143h111l108 -143h-93z" />
    <glyph glyph-name="Udieresis" unicode="&#xdc;" horiz-adv-x="722" 
d="M68 257v457h125v-416q0 -36 2 -59t11 -54.5t26 -49.5t49.5 -31t79.5 -13t79.5 13t49.5 31t26 49.5t11 54.5t2 59v416h125v-457q0 -134 -78.5 -204t-214.5 -70t-214.5 70t-78.5 204zM390 904h114v-108h-114v108zM332 796h-114v108h114v-108z" />
    <glyph glyph-name="Yacute" unicode="&#xdd;" horiz-adv-x="648" 
d="M262 0v280l-268 434h145l189 -320l186 320h140l-267 -434v-280h-125zM282 783l90 143h135l-142 -143h-83z" />
    <glyph glyph-name="Thorn" unicode="&#xde;" horiz-adv-x="667" 
d="M76 0v714h125v-108h190q72 0 123 -21t75.5 -57t34.5 -70.5t10 -72.5t-10 -72.5t-34.5 -69.5t-75.5 -56t-123 -21h-190v-166h-125zM201 504v-236h183q50 0 87.5 28t37.5 90q0 118 -123 118h-185z" />
    <glyph glyph-name="germandbls" unicode="&#xdf;" horiz-adv-x="574" 
d="M63 0v523q0 96 61 152t158 56q86 0 149.5 -49t63.5 -131q0 -53 -26 -94.5t-76 -56.5v-2q61 -8 97.5 -57.5t36.5 -113.5q0 -106 -62.5 -173.5t-166.5 -67.5q-28 0 -56 3v90q11 -3 39 -3q42 0 70 14t40.5 39.5t17 49t4.5 53.5q0 66 -55 98q-39 25 -115 25v75q70 0 99 26
q39 31 39 84q0 101 -101 101q-43 0 -73 -29t-30 -101v-511h-114z" />
    <glyph glyph-name="agrave" unicode="&#xe0;" 
d="M493 381v-266q0 -21 6 -30t21 -9q17 0 28 2v-79q-37 -13 -72 -13q-76 0 -88 63q-32 -31 -81 -47t-98 -16q-76 0 -126.5 39.5t-50.5 111.5q0 37 11.5 64.5t28.5 43.5t45 27.5t51.5 16.5t57.5 9l63 8q55 7 76 20t21 45q0 70 -107 70q-50 0 -80 -20.5t-34 -61.5h-114
q6 92 71.5 132t163.5 40q85 0 146 -37t61 -113zM379 174v85q-27 -16 -88 -24l-46 -6q-99 -13 -99 -82q0 -36 28.5 -53.5t69.5 -17.5q53 0 94 24.5t41 73.5zM112 732h134l91 -143h-83z" />
    <glyph glyph-name="aacute" unicode="&#xe1;" 
d="M493 381v-266q0 -21 6 -30t21 -9q17 0 28 2v-79q-37 -13 -72 -13q-76 0 -88 63q-32 -31 -81 -47t-98 -16q-76 0 -126.5 39.5t-50.5 111.5q0 37 11.5 64.5t28.5 43.5t45 27.5t51.5 16.5t57.5 9l63 8q55 7 76 20t21 45q0 70 -107 70q-50 0 -80 -20.5t-34 -61.5h-114
q6 92 71.5 132t163.5 40q85 0 146 -37t61 -113zM379 174v85q-27 -16 -88 -24l-46 -6q-99 -13 -99 -82q0 -36 28.5 -53.5t69.5 -17.5q53 0 94 24.5t41 73.5zM231 589l90 143h135l-142 -143h-83z" />
    <glyph glyph-name="acircumflex" unicode="&#xe2;" 
d="M493 381v-266q0 -21 6 -30t21 -9q17 0 28 2v-79q-37 -13 -72 -13q-76 0 -88 63q-32 -31 -81 -47t-98 -16q-76 0 -126.5 39.5t-50.5 111.5q0 37 11.5 64.5t28.5 43.5t45 27.5t51.5 16.5t57.5 9l63 8q55 7 76 20t21 45q0 70 -107 70q-50 0 -80 -20.5t-34 -61.5h-114
q6 92 71.5 132t163.5 40q85 0 146 -37t61 -113zM379 174v85q-27 -16 -88 -24l-46 -6q-99 -13 -99 -82q0 -36 28.5 -53.5t69.5 -17.5q53 0 94 24.5t41 73.5zM284 679l-70 -90h-92l107 143h111l108 -143h-93z" />
    <glyph glyph-name="atilde" unicode="&#xe3;" 
d="M493 381v-266q0 -21 6 -30t21 -9q17 0 28 2v-79q-37 -13 -72 -13q-76 0 -88 63q-32 -31 -81 -47t-98 -16q-76 0 -126.5 39.5t-50.5 111.5q0 37 11.5 64.5t28.5 43.5t45 27.5t51.5 16.5t57.5 9l63 8q55 7 76 20t21 45q0 70 -107 70q-50 0 -80 -20.5t-34 -61.5h-114
q6 92 71.5 132t163.5 40q85 0 146 -37t61 -113zM379 174v85q-27 -16 -88 -24l-46 -6q-99 -13 -99 -82q0 -36 28.5 -53.5t69.5 -17.5q53 0 94 24.5t41 73.5zM405 720h56q-9 -55 -33 -81q-28 -34 -78 -34q-31 0 -74 19q-43 18 -68 18q-35 0 -43 -41h-57q7 44 34.5 78.5
t69.5 34.5q33 0 81 -20q42 -18 62 -18q39 0 50 44z" />
    <glyph glyph-name="adieresis" unicode="&#xe4;" 
d="M493 381v-266q0 -21 6 -30t21 -9q17 0 28 2v-79q-37 -13 -72 -13q-76 0 -88 63q-32 -31 -81 -47t-98 -16q-76 0 -126.5 39.5t-50.5 111.5q0 37 11.5 64.5t28.5 43.5t45 27.5t51.5 16.5t57.5 9l63 8q55 7 76 20t21 45q0 70 -107 70q-50 0 -80 -20.5t-34 -61.5h-114
q6 92 71.5 132t163.5 40q85 0 146 -37t61 -113zM379 174v85q-27 -16 -88 -24l-46 -6q-99 -13 -99 -82q0 -36 28.5 -53.5t69.5 -17.5q53 0 94 24.5t41 73.5zM313 710h114v-108h-114v108zM255 602h-114v108h114v-108z" />
    <glyph glyph-name="aring" unicode="&#xe5;" 
d="M493 381v-266q0 -21 6 -30t21 -9q17 0 28 2v-79q-37 -13 -72 -13q-76 0 -88 63q-32 -31 -81 -47t-98 -16q-76 0 -126.5 39.5t-50.5 111.5q0 37 11.5 64.5t28.5 43.5t45 27.5t51.5 16.5t57.5 9l63 8q55 7 76 20t21 45q0 70 -107 70q-50 0 -80 -20.5t-34 -61.5h-114
q6 92 71.5 132t163.5 40q85 0 146 -37t61 -113zM379 174v85q-27 -16 -88 -24l-46 -6q-99 -13 -99 -82q0 -36 28.5 -53.5t69.5 -17.5q53 0 94 24.5t41 73.5zM283 571q-44 0 -74 29t-30 74t30.5 74t73.5 29t73.5 -29t30.5 -74t-30.5 -74t-73.5 -29zM223 674q0 -26 17.5 -43.5
t42.5 -17.5q26 0 43 17.5t17 43.5q0 27 -17 44t-43 17q-25 0 -42.5 -17t-17.5 -44z" />
    <glyph glyph-name="ae" unicode="&#xe6;" horiz-adv-x="889" 
d="M744 163h114q-22 -83 -84.5 -130t-149.5 -47q-136 0 -190 95q-63 -95 -215 -95q-82 0 -134.5 39t-52.5 112q0 46 16.5 77.5t48.5 48t61 23.5t73 12q16 3 39 6t36.5 5t29.5 6.5t24 10.5t14 17.5t6 27.5q0 70 -101 70q-50 0 -80 -20.5t-34 -61.5h-114q6 92 71 132t161 40
q126 0 175 -70q54 70 164 70q128 0 188.5 -83.5t51.5 -218.5h-375q0 -65 34 -109t101 -44q92 0 122 87zM487 304h261q1 63 -34 100t-97 37q-58 0 -92 -39t-38 -98zM379 180v77q-10 -10 -30.5 -15t-58 -8.5t-50.5 -5.5q-44 -7 -69 -26t-25 -60q0 -36 30.5 -51t73.5 -15
q51 0 90 28t39 76z" />
    <glyph glyph-name="ccedilla" unicode="&#xe7;" 
d="M171 -200l18 40q35 -16 68 -16q58 0 58 41q0 18 -13.5 28t-32.5 10q-23 0 -39 -10l-22 19l56 75q-108 7 -168.5 80.5t-60.5 185.5q0 123 66 200.5t189 77.5q95 0 160 -48t73 -139h-114q-7 47 -38 72t-80 25q-25 0 -47.5 -8t-45 -27t-36 -58.5t-13.5 -94.5q0 -73 34 -125
t103 -52q50 0 82.5 31t40.5 87h114q-15 -94 -69 -147t-143 -60l-35 -46l1 -1q16 4 33 4q33 0 59 -19.5t26 -55.5q0 -46 -36 -69t-85 -23q-61 0 -103 23z" />
    <glyph glyph-name="egrave" unicode="&#xe8;" 
d="M529 229h-380q0 -65 35.5 -109t103.5 -44q96 0 126 86h108q-18 -83 -82.5 -129.5t-151.5 -46.5q-120 0 -186.5 74.5t-66.5 197.5q0 114 69 193.5t181 79.5q119 0 189 -91t55 -211zM149 304h266q-4 57 -39 97t-91 40q-58 0 -96 -39t-40 -98zM117 732h134l91 -143h-83z" />
    <glyph glyph-name="eacute" unicode="&#xe9;" 
d="M529 229h-380q0 -65 35.5 -109t103.5 -44q96 0 126 86h108q-18 -83 -82.5 -129.5t-151.5 -46.5q-120 0 -186.5 74.5t-66.5 197.5q0 114 69 193.5t181 79.5q119 0 189 -91t55 -211zM149 304h266q-4 57 -39 97t-91 40q-58 0 -96 -39t-40 -98zM236 589l90 143h135l-142 -143
h-83z" />
    <glyph glyph-name="ecircumflex" unicode="&#xea;" 
d="M529 229h-380q0 -65 35.5 -109t103.5 -44q96 0 126 86h108q-18 -83 -82.5 -129.5t-151.5 -46.5q-120 0 -186.5 74.5t-66.5 197.5q0 114 69 193.5t181 79.5q119 0 189 -91t55 -211zM149 304h266q-4 57 -39 97t-91 40q-58 0 -96 -39t-40 -98zM289 679l-70 -90h-92l107 143
h111l108 -143h-93z" />
    <glyph glyph-name="edieresis" unicode="&#xeb;" 
d="M529 229h-380q0 -65 35.5 -109t103.5 -44q96 0 126 86h108q-18 -83 -82.5 -129.5t-151.5 -46.5q-120 0 -186.5 74.5t-66.5 197.5q0 114 69 193.5t181 79.5q119 0 189 -91t55 -211zM149 304h266q-4 57 -39 97t-91 40q-58 0 -96 -39t-40 -98zM318 710h114v-108h-114v108z
M260 602h-114v108h114v-108z" />
    <glyph glyph-name="igrave" unicode="&#xec;" horiz-adv-x="241" 
d="M177 0h-114v517h114v-517zM-41 732h134l91 -143h-83z" />
    <glyph glyph-name="iacute" unicode="&#xed;" horiz-adv-x="241" 
d="M177 0h-114v517h114v-517zM58 589l90 143h135l-142 -143h-83z" />
    <glyph glyph-name="icircumflex" unicode="&#xee;" horiz-adv-x="241" 
d="M177 0h-114v517h114v-517zM121 679l-70 -90h-92l107 143h111l108 -143h-93z" />
    <glyph glyph-name="idieresis" unicode="&#xef;" horiz-adv-x="241" 
d="M177 0h-114v517h114v-517zM150 710h114v-108h-114v108zM92 602h-114v108h114v-108z" />
    <glyph glyph-name="eth" unicode="&#xf0;" horiz-adv-x="593" 
d="M194 541l-40 45l95 45q-32 21 -79 35l69 61q56 -18 106 -50l105 50l39 -45l-93 -45q74 -62 113.5 -148t39.5 -183q0 -68 -14.5 -124t-44.5 -101t-82.5 -70t-123.5 -25q-112 0 -177 73.5t-65 192.5q0 109 65.5 181.5t167.5 72.5q85 0 141 -61h2q-20 48 -48 81t-67 67z
M299 416q-75 0 -109 -47.5t-34 -123.5q0 -73 34.5 -121t100.5 -48t105.5 50.5t39.5 118.5q0 71 -35 121t-102 50z" />
    <glyph glyph-name="ntilde" unicode="&#xf1;" horiz-adv-x="574" 
d="M60 0v517h108v-76l2 -2q27 43 69 67.5t92 24.5q86 0 134.5 -45t48.5 -131v-355h-114v325q-2 61 -26 88.5t-75 27.5q-56 0 -90.5 -39t-34.5 -97v-305h-114zM409 720h56q-9 -55 -33 -81q-28 -34 -78 -34q-31 0 -74 19q-43 18 -68 18q-35 0 -43 -41h-57q7 44 34.5 78.5
t69.5 34.5q33 0 81 -20q42 -18 62 -18q39 0 50 44z" />
    <glyph glyph-name="ograve" unicode="&#xf2;" horiz-adv-x="593" 
d="M297 -14q-121 0 -191 75.5t-70 197.5q0 120 70 196t191 76t191 -76t70 -196q0 -122 -70 -197.5t-191 -75.5zM297 76q72 0 109.5 54t37.5 129q0 74 -37.5 128t-109.5 54t-109.5 -54t-37.5 -128q0 -75 37.5 -129t109.5 -54zM127 732h134l91 -143h-83z" />
    <glyph glyph-name="oacute" unicode="&#xf3;" horiz-adv-x="593" 
d="M297 -14q-121 0 -191 75.5t-70 197.5q0 120 70 196t191 76t191 -76t70 -196q0 -122 -70 -197.5t-191 -75.5zM297 76q72 0 109.5 54t37.5 129q0 74 -37.5 128t-109.5 54t-109.5 -54t-37.5 -128q0 -75 37.5 -129t109.5 -54zM246 589l90 143h135l-142 -143h-83z" />
    <glyph glyph-name="ocircumflex" unicode="&#xf4;" horiz-adv-x="593" 
d="M297 -14q-121 0 -191 75.5t-70 197.5q0 120 70 196t191 76t191 -76t70 -196q0 -122 -70 -197.5t-191 -75.5zM297 76q72 0 109.5 54t37.5 129q0 74 -37.5 128t-109.5 54t-109.5 -54t-37.5 -128q0 -75 37.5 -129t109.5 -54zM299 679l-70 -90h-92l107 143h111l108 -143h-93z
" />
    <glyph glyph-name="otilde" unicode="&#xf5;" horiz-adv-x="593" 
d="M297 -14q-121 0 -191 75.5t-70 197.5q0 120 70 196t191 76t191 -76t70 -196q0 -122 -70 -197.5t-191 -75.5zM297 76q72 0 109.5 54t37.5 129q0 74 -37.5 128t-109.5 54t-109.5 -54t-37.5 -128q0 -75 37.5 -129t109.5 -54zM420 720h56q-9 -55 -33 -81q-28 -34 -78 -34
q-31 0 -74 19q-43 18 -68 18q-35 0 -43 -41h-57q7 44 34.5 78.5t69.5 34.5q33 0 81 -20q42 -18 62 -18q39 0 50 44z" />
    <glyph glyph-name="odieresis" unicode="&#xf6;" horiz-adv-x="593" 
d="M297 -14q-121 0 -191 75.5t-70 197.5q0 120 70 196t191 76t191 -76t70 -196q0 -122 -70 -197.5t-191 -75.5zM297 76q72 0 109.5 54t37.5 129q0 74 -37.5 128t-109.5 54t-109.5 -54t-37.5 -128q0 -75 37.5 -129t109.5 -54zM328 710h114v-108h-114v108zM270 602h-114v108
h114v-108z" />
    <glyph glyph-name="divide" unicode="&#xf7;" horiz-adv-x="600" 
d="M301 387q-29 0 -51 21.5t-22 50.5q0 30 21.5 51t50.5 21t50.5 -21.5t21.5 -50.5q0 -27 -22 -49.5t-49 -22.5zM552 202h-504v102h504v-102zM301 -25q-29 0 -51 21.5t-22 50.5q0 30 21.5 51t50.5 21t50.5 -21.5t21.5 -50.5q0 -27 -22 -49.5t-49 -22.5z" />
    <glyph glyph-name="oslash" unicode="&#xf8;" horiz-adv-x="593" 
d="M64 -28l-32 28l65 72q-61 73 -61 187q0 120 70 196t191 76q102 0 170 -55l63 69l32 -28l-65 -71q61 -74 61 -187q0 -122 -70 -197.5t-191 -75.5q-102 0 -169 56zM173 155l223 244q-37 42 -99 42q-72 0 -109.5 -54t-37.5 -128q0 -59 23 -104zM421 362l-223 -244
q37 -42 99 -42q72 0 109.5 54t37.5 129q0 58 -23 103z" />
    <glyph glyph-name="ugrave" unicode="&#xf9;" horiz-adv-x="574" 
d="M514 517v-517h-112v72h-2q-21 -38 -62.5 -62t-84.5 -24q-101 0 -147 50t-46 153v328h114v-317q0 -66 25 -95t74 -29q127 0 127 141v300h114zM118 732h134l91 -143h-83z" />
    <glyph glyph-name="uacute" unicode="&#xfa;" horiz-adv-x="574" 
d="M514 517v-517h-112v72h-2q-21 -38 -62.5 -62t-84.5 -24q-101 0 -147 50t-46 153v328h114v-317q0 -66 25 -95t74 -29q127 0 127 141v300h114zM237 589l90 143h135l-142 -143h-83z" />
    <glyph glyph-name="ucircumflex" unicode="&#xfb;" horiz-adv-x="574" 
d="M514 517v-517h-112v72h-2q-21 -38 -62.5 -62t-84.5 -24q-101 0 -147 50t-46 153v328h114v-317q0 -66 25 -95t74 -29q127 0 127 141v300h114zM290 679l-70 -90h-92l107 143h111l108 -143h-93z" />
    <glyph glyph-name="udieresis" unicode="&#xfc;" horiz-adv-x="574" 
d="M514 517v-517h-112v72h-2q-21 -38 -62.5 -62t-84.5 -24q-101 0 -147 50t-46 153v328h114v-317q0 -66 25 -95t74 -29q127 0 127 141v300h114zM319 710h114v-108h-114v108zM261 602h-114v108h114v-108z" />
    <glyph glyph-name="yacute" unicode="&#xfd;" horiz-adv-x="519" 
d="M199 2l-196 515h125l135 -386h2l131 386h119l-201 -545q-35 -88 -54 -115q-44 -62 -129 -62q-40 0 -79 6v96q44 -7 54 -7q36 0 52.5 17.5t27.5 54.5zM213 589l90 143h135l-142 -143h-83z" />
    <glyph glyph-name="thorn" unicode="&#xfe;" horiz-adv-x="611" 
d="M63 -191v905h114v-264h2q24 37 66.5 59t87.5 22q117 0 179.5 -77.5t62.5 -197.5q0 -113 -57.5 -191.5t-165.5 -78.5q-53 0 -101 20t-72 61h-2v-258h-114zM461 258q0 75 -38 129t-105 54q-71 0 -108 -49t-37 -134q0 -80 39 -131t106 -51q72 0 107.5 53t35.5 129z" />
    <glyph glyph-name="ydieresis" unicode="&#xff;" horiz-adv-x="519" 
d="M199 2l-196 515h125l135 -386h2l131 386h119l-201 -545q-35 -88 -54 -115q-44 -62 -129 -62q-40 0 -79 6v96q44 -7 54 -7q36 0 52.5 17.5t27.5 54.5zM295 710h114v-108h-114v108zM237 602h-114v108h114v-108z" />
    <glyph glyph-name="Amacron" unicode="&#x100;" horiz-adv-x="667" 
d="M-7 0l274 714h133l275 -714h-134l-67 189h-285l-67 -189h-129zM223 284h218l-107 307h-3zM478 818h-288v65h288v-65z" />
    <glyph glyph-name="amacron" unicode="&#x101;" 
d="M493 381v-266q0 -21 6 -30t21 -9q17 0 28 2v-79q-37 -13 -72 -13q-76 0 -88 63q-32 -31 -81 -47t-98 -16q-76 0 -126.5 39.5t-50.5 111.5q0 37 11.5 64.5t28.5 43.5t45 27.5t51.5 16.5t57.5 9l63 8q55 7 76 20t21 45q0 70 -107 70q-50 0 -80 -20.5t-34 -61.5h-114
q6 92 71.5 132t163.5 40q85 0 146 -37t61 -113zM379 174v85q-27 -16 -88 -24l-46 -6q-99 -13 -99 -82q0 -36 28.5 -53.5t69.5 -17.5q53 0 94 24.5t41 73.5zM428 624h-288v65h288v-65z" />
    <glyph glyph-name="Abreve" unicode="&#x102;" horiz-adv-x="667" 
d="M-7 0l274 714h133l275 -714h-134l-67 189h-285l-67 -189h-129zM223 284h218l-107 307h-3zM173 925h58q15 -76 107 -76q39 0 66 19.5t35 56.5h57q-8 -70 -51.5 -105.5t-114.5 -35.5q-69 0 -110 36t-47 105z" />
    <glyph glyph-name="abreve" unicode="&#x103;" 
d="M493 381v-266q0 -21 6 -30t21 -9q17 0 28 2v-79q-37 -13 -72 -13q-76 0 -88 63q-32 -31 -81 -47t-98 -16q-76 0 -126.5 39.5t-50.5 111.5q0 37 11.5 64.5t28.5 43.5t45 27.5t51.5 16.5t57.5 9l63 8q55 7 76 20t21 45q0 70 -107 70q-50 0 -80 -20.5t-34 -61.5h-114
q6 92 71.5 132t163.5 40q85 0 146 -37t61 -113zM379 174v85q-27 -16 -88 -24l-46 -6q-99 -13 -99 -82q0 -36 28.5 -53.5t69.5 -17.5q53 0 94 24.5t41 73.5zM123 731h58q15 -76 107 -76q39 0 66 19.5t35 56.5h57q-8 -70 -51.5 -105.5t-114.5 -35.5q-69 0 -110 36t-47 105z
" />
    <glyph glyph-name="Aogonek" unicode="&#x104;" horiz-adv-x="667" 
d="M541 0l-67 189h-285l-67 -189h-129l274 714h133l275 -714h-80q-56 -45 -75 -72t-19 -57q0 -20 11.5 -32t28.5 -12q30 0 51 34l41 -9q-20 -75 -105 -75q-43 0 -72 22.5t-29 63.5q0 68 114 137zM331 591l-108 -307h218l-107 307h-3z" />
    <glyph glyph-name="aogonek" unicode="&#x105;" 
d="M493 381v-266q0 -21 6 -30t21 -9q17 0 28 2v-79q-37 -13 -73 -13q-43 -36 -59.5 -62t-16.5 -53q0 -20 11.5 -32t27.5 -12q31 0 52 34l41 -9q-20 -75 -105 -75q-12 0 -24.5 2.5t-32 10t-32 27.5t-12.5 50q0 63 104 127q-34 15 -41 55q-32 -31 -81 -47t-98 -16
q-76 0 -126.5 39.5t-50.5 111.5q0 37 11.5 64.5t28.5 43.5t45 27.5t51.5 16.5t57.5 9l63 8q55 7 76 20t21 45q0 70 -107 70q-50 0 -80 -20.5t-34 -61.5h-114q6 92 71.5 132t163.5 40q85 0 146 -37t61 -113zM379 174v85q-27 -16 -88 -24l-46 -6q-99 -13 -99 -82
q0 -36 28.5 -53.5t69.5 -17.5q53 0 94 24.5t41 73.5z" />
    <glyph glyph-name="Cacute" unicode="&#x106;" horiz-adv-x="722" 
d="M38 357q0 158 93.5 266t248.5 108q124 0 207.5 -65.5t95.5 -178.5h-125q-36 142 -178 142q-107 0 -162 -79.5t-55 -192.5t55 -192.5t162 -79.5q80 0 126.5 52t55.5 135h122q-8 -129 -91.5 -209t-212.5 -80q-155 0 -248.5 107.5t-93.5 266.5zM331 783l90 143h135
l-142 -143h-83z" />
    <glyph glyph-name="cacute" unicode="&#x107;" 
d="M523 344h-114q-7 47 -38 72t-80 25q-25 0 -47.5 -8t-45 -27t-36 -58.5t-13.5 -94.5q0 -73 34 -125t103 -52q50 0 82.5 31t40.5 87h114q-16 -101 -76.5 -154.5t-160.5 -53.5q-118 0 -184.5 74.5t-66.5 192.5q0 123 66 200.5t189 77.5q95 0 160 -48t73 -139zM240 589
l90 143h135l-142 -143h-83z" />
    <glyph glyph-name="Ccircumflex" unicode="&#x108;" horiz-adv-x="722" 
d="M38 357q0 158 93.5 266t248.5 108q124 0 207.5 -65.5t95.5 -178.5h-125q-36 142 -178 142q-107 0 -162 -79.5t-55 -192.5t55 -192.5t162 -79.5q80 0 126.5 52t55.5 135h122q-8 -129 -91.5 -209t-212.5 -80q-155 0 -248.5 107.5t-93.5 266.5zM379 873l-70 -90h-92l107 143
h111l108 -143h-93z" />
    <glyph glyph-name="ccircumflex" unicode="&#x109;" 
d="M523 344h-114q-7 47 -38 72t-80 25q-25 0 -47.5 -8t-45 -27t-36 -58.5t-13.5 -94.5q0 -73 34 -125t103 -52q50 0 82.5 31t40.5 87h114q-16 -101 -76.5 -154.5t-160.5 -53.5q-118 0 -184.5 74.5t-66.5 192.5q0 123 66 200.5t189 77.5q95 0 160 -48t73 -139zM293 679
l-70 -90h-92l107 143h111l108 -143h-93z" />
    <glyph glyph-name="Cdotaccent" unicode="&#x10a;" horiz-adv-x="722" 
d="M38 357q0 158 93.5 266t248.5 108q124 0 207.5 -65.5t95.5 -178.5h-125q-36 142 -178 142q-107 0 -162 -79.5t-55 -192.5t55 -192.5t162 -79.5q80 0 126.5 52t55.5 135h122q-8 -129 -91.5 -209t-212.5 -80q-155 0 -248.5 107.5t-93.5 266.5zM436 796h-114v108h114v-108z
" />
    <glyph glyph-name="cdotaccent" unicode="&#x10b;" 
d="M523 344h-114q-7 47 -38 72t-80 25q-25 0 -47.5 -8t-45 -27t-36 -58.5t-13.5 -94.5q0 -73 34 -125t103 -52q50 0 82.5 31t40.5 87h114q-16 -101 -76.5 -154.5t-160.5 -53.5q-118 0 -184.5 74.5t-66.5 192.5q0 123 66 200.5t189 77.5q95 0 160 -48t73 -139zM350 602h-114
v108h114v-108z" />
    <glyph glyph-name="Ccaron" unicode="&#x10c;" horiz-adv-x="722" 
d="M38 357q0 158 93.5 266t248.5 108q124 0 207.5 -65.5t95.5 -178.5h-125q-36 142 -178 142q-107 0 -162 -79.5t-55 -192.5t55 -192.5t162 -79.5q80 0 126.5 52t55.5 135h122q-8 -129 -91.5 -209t-212.5 -80q-155 0 -248.5 107.5t-93.5 266.5zM542 926l-108 -143h-111
l-107 143h92l70 -89l71 89h93z" />
    <glyph glyph-name="ccaron" unicode="&#x10d;" 
d="M523 344h-114q-7 47 -38 72t-80 25q-25 0 -47.5 -8t-45 -27t-36 -58.5t-13.5 -94.5q0 -73 34 -125t103 -52q50 0 82.5 31t40.5 87h114q-16 -101 -76.5 -154.5t-160.5 -53.5q-118 0 -184.5 74.5t-66.5 192.5q0 123 66 200.5t189 77.5q95 0 160 -48t73 -139zM456 732
l-108 -143h-111l-107 143h92l70 -89l71 89h93z" />
    <glyph glyph-name="Dcaron" unicode="&#x10e;" horiz-adv-x="722" 
d="M76 0v714h296q157 0 236 -99.5t79 -257.5t-79 -257.5t-236 -99.5h-296zM201 102h123q71 0 119.5 19t73.5 55.5t35 79.5t10 101t-10 101t-35 79.5t-73.5 55.5t-119.5 19h-123v-510zM490 926l-108 -143h-111l-107 143h92l70 -89l71 89h93z" />
    <glyph glyph-name="dcaron" unicode="&#x10f;" horiz-adv-x="611" 
d="M547 714v-714h-108v70h-2q-43 -84 -160 -84q-118 0 -180 77t-62 199q0 132 65.5 200.5t158.5 68.5q52 0 99.5 -20.5t72.5 -60.5h2v264h114zM149 253q0 -73 36.5 -125t106.5 -52q71 0 108 54t37 129q0 86 -38.5 134t-104.5 48q-74 0 -109.5 -55t-35.5 -133zM596 571
l32 143h125l-81 -143h-76z" />
    <glyph glyph-name="Dcroat" unicode="&#x110;" horiz-adv-x="722" 
d="M76 0v330h-73v78h73v306h296q157 0 236 -99.5t79 -257.5t-79 -257.5t-236 -99.5h-296zM201 612v-204h195v-78h-195v-228h123q71 0 119.5 19t73.5 55.5t35 79.5t10 101t-10 101t-35 79.5t-73.5 55.5t-119.5 19h-123z" />
    <glyph glyph-name="dcroat" unicode="&#x111;" horiz-adv-x="615" 
d="M547 585v-585h-108v70h-2q-43 -84 -160 -84q-118 0 -180 77t-62 199q0 132 65.5 200.5t158.5 68.5q52 0 99.5 -20.5t72.5 -60.5h2v135h-169v63h169v66h114v-66h80v-63h-80zM149 253q0 -73 36.5 -125t106.5 -52q71 0 108 54t37 129q0 86 -38.5 134t-104.5 48
q-74 0 -109.5 -55t-35.5 -133z" />
    <glyph glyph-name="Emacron" unicode="&#x112;" horiz-adv-x="630" 
d="M76 0v714h514v-108h-389v-187h360v-102h-360v-209h396v-108h-521zM474 818h-288v65h288v-65z" />
    <glyph glyph-name="emacron" unicode="&#x113;" 
d="M529 229h-380q0 -65 35.5 -109t103.5 -44q96 0 126 86h108q-18 -83 -82.5 -129.5t-151.5 -46.5q-120 0 -186.5 74.5t-66.5 197.5q0 114 69 193.5t181 79.5q119 0 189 -91t55 -211zM149 304h266q-4 57 -39 97t-91 40q-58 0 -96 -39t-40 -98zM433 624h-288v65h288v-65z" />
    <glyph glyph-name="Ebreve" unicode="&#x114;" horiz-adv-x="630" 
d="M76 0v714h514v-108h-389v-187h360v-102h-360v-209h396v-108h-521zM169 925h58q15 -76 107 -76q39 0 66 19.5t35 56.5h57q-8 -70 -51.5 -105.5t-114.5 -35.5q-69 0 -110 36t-47 105z" />
    <glyph glyph-name="ebreve" unicode="&#x115;" 
d="M529 229h-380q0 -65 35.5 -109t103.5 -44q96 0 126 86h108q-18 -83 -82.5 -129.5t-151.5 -46.5q-120 0 -186.5 74.5t-66.5 197.5q0 114 69 193.5t181 79.5q119 0 189 -91t55 -211zM149 304h266q-4 57 -39 97t-91 40q-58 0 -96 -39t-40 -98zM128 731h58q15 -76 107 -76
q39 0 66 19.5t35 56.5h57q-8 -70 -51.5 -105.5t-114.5 -35.5q-69 0 -110 36t-47 105z" />
    <glyph glyph-name="Edotaccent" unicode="&#x116;" horiz-adv-x="630" 
d="M76 0v714h514v-108h-389v-187h360v-102h-360v-209h396v-108h-521zM388 796h-114v108h114v-108z" />
    <glyph glyph-name="edotaccent" unicode="&#x117;" 
d="M529 229h-380q0 -65 35.5 -109t103.5 -44q96 0 126 86h108q-18 -83 -82.5 -129.5t-151.5 -46.5q-120 0 -186.5 74.5t-66.5 197.5q0 114 69 193.5t181 79.5q119 0 189 -91t55 -211zM149 304h266q-4 57 -39 97t-91 40q-58 0 -96 -39t-40 -98zM346 602h-114v108h114v-108z
" />
    <glyph glyph-name="Eogonek" unicode="&#x118;" horiz-adv-x="630" 
d="M76 0v714h514v-108h-389v-187h360v-102h-360v-209h396v-108h-38q-56 -45 -75 -72t-19 -57q0 -20 11.5 -32t28.5 -12q30 0 51 34l41 -9q-20 -75 -105 -75q-43 0 -72 22.5t-29 63.5q0 68 114 137h-429z" />
    <glyph glyph-name="eogonek" unicode="&#x119;" 
d="M529 229h-380q0 -65 35.5 -109t103.5 -44q96 0 126 86h108q-15 -72 -66 -116.5t-122 -55.5q-48 -39 -64.5 -64.5t-16.5 -54.5q0 -20 11.5 -32t28.5 -12q30 0 51 34l41 -9q-20 -75 -105 -75q-43 0 -72 22.5t-29 63.5q0 62 92 124q-112 5 -174 78.5t-62 192.5
q0 114 69 193.5t181 79.5q119 0 189 -91t55 -211zM149 304h266q-4 57 -39 97t-91 40q-58 0 -96 -39t-40 -98z" />
    <glyph glyph-name="Ecaron" unicode="&#x11a;" horiz-adv-x="630" 
d="M76 0v714h514v-108h-389v-187h360v-102h-360v-209h396v-108h-521zM494 926l-108 -143h-111l-107 143h92l70 -89l71 89h93z" />
    <glyph glyph-name="ecaron" unicode="&#x11b;" 
d="M529 229h-380q0 -65 35.5 -109t103.5 -44q96 0 126 86h108q-18 -83 -82.5 -129.5t-151.5 -46.5q-120 0 -186.5 74.5t-66.5 197.5q0 114 69 193.5t181 79.5q119 0 189 -91t55 -211zM149 304h266q-4 57 -39 97t-91 40q-58 0 -96 -39t-40 -98zM451 732l-108 -143h-111
l-107 143h92l70 -89l71 89h93z" />
    <glyph glyph-name="Gcircumflex" unicode="&#x11c;" horiz-adv-x="759" 
d="M43 357q0 158 93.5 266t248.5 108q121 0 206.5 -64t99.5 -180h-122q-9 67 -61 104.5t-123 37.5q-107 0 -162 -79.5t-55 -192.5t55 -192.5t162 -79.5q95 -2 146.5 50.5t53.5 145.5h-190v95h304v-376h-80l-19 84q-49 -56 -98.5 -78.5t-116.5 -22.5q-155 0 -248.5 107.5
t-93.5 266.5zM387 873l-70 -90h-92l107 143h111l108 -143h-93z" />
    <glyph glyph-name="gcircumflex" unicode="&#x11d;" horiz-adv-x="593" 
d="M538 517v-490q0 -116 -65 -174t-189 -58q-57 0 -104.5 14t-84.5 52t-42 95h114q10 -45 41.5 -60.5t82.5 -15.5q133 0 133 132v79h-2q-24 -43 -65.5 -67t-89.5 -24q-79 0 -132.5 38t-76.5 97.5t-23 136.5q0 109 63.5 184t170.5 75q111 0 153 -85h2v71h114zM285 90
q70 0 104.5 52.5t34.5 127.5q0 73 -34.5 122t-104.5 49t-103 -53t-33 -127q0 -70 34.5 -120.5t101.5 -50.5zM300 679l-70 -90h-92l107 143h111l108 -143h-93z" />
    <glyph glyph-name="Gbreve" unicode="&#x11e;" horiz-adv-x="759" 
d="M43 357q0 158 93.5 266t248.5 108q121 0 206.5 -64t99.5 -180h-122q-9 67 -61 104.5t-123 37.5q-107 0 -162 -79.5t-55 -192.5t55 -192.5t162 -79.5q95 -2 146.5 50.5t53.5 145.5h-190v95h304v-376h-80l-19 84q-49 -56 -98.5 -78.5t-116.5 -22.5q-155 0 -248.5 107.5
t-93.5 266.5zM226 925h58q15 -76 107 -76q39 0 66 19.5t35 56.5h57q-8 -70 -51.5 -105.5t-114.5 -35.5q-69 0 -110 36t-47 105z" />
    <glyph glyph-name="gbreve" unicode="&#x11f;" horiz-adv-x="593" 
d="M538 517v-490q0 -116 -65 -174t-189 -58q-57 0 -104.5 14t-84.5 52t-42 95h114q10 -45 41.5 -60.5t82.5 -15.5q133 0 133 132v79h-2q-24 -43 -65.5 -67t-89.5 -24q-79 0 -132.5 38t-76.5 97.5t-23 136.5q0 109 63.5 184t170.5 75q111 0 153 -85h2v71h114zM285 90
q70 0 104.5 52.5t34.5 127.5q0 73 -34.5 122t-104.5 49t-103 -53t-33 -127q0 -70 34.5 -120.5t101.5 -50.5zM138 731h58q15 -76 107 -76q39 0 66 19.5t35 56.5h57q-8 -70 -51.5 -105.5t-114.5 -35.5q-69 0 -110 36t-47 105z" />
    <glyph glyph-name="Gdotaccent" unicode="&#x120;" horiz-adv-x="759" 
d="M43 357q0 158 93.5 266t248.5 108q121 0 206.5 -64t99.5 -180h-122q-9 67 -61 104.5t-123 37.5q-107 0 -162 -79.5t-55 -192.5t55 -192.5t162 -79.5q95 -2 146.5 50.5t53.5 145.5h-190v95h304v-376h-80l-19 84q-49 -56 -98.5 -78.5t-116.5 -22.5q-155 0 -248.5 107.5
t-93.5 266.5zM443 796h-114v108h114v-108z" />
    <glyph glyph-name="gdotaccent" unicode="&#x121;" horiz-adv-x="593" 
d="M538 517v-490q0 -116 -65 -174t-189 -58q-57 0 -104.5 14t-84.5 52t-42 95h114q10 -45 41.5 -60.5t82.5 -15.5q133 0 133 132v79h-2q-24 -43 -65.5 -67t-89.5 -24q-79 0 -132.5 38t-76.5 97.5t-23 136.5q0 109 63.5 184t170.5 75q111 0 153 -85h2v71h114zM285 90
q70 0 104.5 52.5t34.5 127.5q0 73 -34.5 122t-104.5 49t-103 -53t-33 -127q0 -70 34.5 -120.5t101.5 -50.5zM356 602h-114v108h114v-108z" />
    <glyph glyph-name="Gcommaaccent" unicode="&#x122;" horiz-adv-x="759" 
d="M43 357q0 158 93.5 266t248.5 108q121 0 206.5 -64t99.5 -180h-122q-9 67 -61 104.5t-123 37.5q-107 0 -162 -79.5t-55 -192.5t55 -192.5t162 -79.5q95 -2 146.5 50.5t53.5 145.5h-190v95h304v-376h-80l-19 84q-49 -56 -98.5 -78.5t-116.5 -22.5q-155 0 -248.5 107.5
t-93.5 266.5zM316 -149v99h131v-89q0 -79 -116 -84v38q40 6 45 36h-60z" />
    <glyph glyph-name="gcommaaccent" unicode="&#x123;" horiz-adv-x="593" 
d="M538 517v-490q0 -116 -65 -174t-189 -58q-57 0 -104.5 14t-84.5 52t-42 95h114q10 -45 41.5 -60.5t82.5 -15.5q133 0 133 132v79h-2q-24 -43 -65.5 -67t-89.5 -24q-79 0 -132.5 38t-76.5 97.5t-23 136.5q0 109 63.5 184t170.5 75q111 0 153 -85h2v71h114zM285 90
q70 0 104.5 52.5t34.5 127.5q0 73 -34.5 122t-104.5 49t-103 -53t-33 -127q0 -70 34.5 -120.5t101.5 -50.5zM365 714v-99h-131v89q0 79 116 84v-38q-40 -6 -45 -36h60z" />
    <glyph glyph-name="Hcircumflex" unicode="&#x124;" horiz-adv-x="722" 
d="M73 0v714h125v-284h325v284h125v-714h-125v322h-325v-322h-125zM361 873l-70 -90h-92l107 143h111l108 -143h-93z" />
    <glyph glyph-name="hcircumflex" unicode="&#x125;" horiz-adv-x="574" 
d="M60 0v714h114v-265h2q22 36 63.5 59t91.5 23q86 0 134.5 -45t48.5 -131v-355h-114v325q-2 61 -26 88.5t-75 27.5q-56 0 -90.5 -39t-34.5 -97v-305h-114zM277 873l-70 -90h-92l107 143h111l108 -143h-93z" />
    <glyph glyph-name="Hbar" unicode="&#x126;" horiz-adv-x="722" 
d="M73 0v714h125v-130h325v130h125v-714h-125v287h-325v-287h-125zM198 391h325v124h-325v-124z" />
    <glyph glyph-name="hbar" unicode="&#x127;" horiz-adv-x="578" 
d="M64 0v585h-80v63h80v66h114v-66h169v-63h-169v-136h2q22 36 63.5 59t91.5 23q86 0 134.5 -45t48.5 -131v-355h-114v325q-2 61 -26 88.5t-75 27.5q-56 0 -90.5 -39t-34.5 -97v-305h-114z" />
    <glyph glyph-name="Itilde" unicode="&#x128;" horiz-adv-x="278" 
d="M76 0v714h125v-714h-125zM260 914h56q-9 -55 -33 -81q-28 -34 -78 -34q-31 0 -74 19q-43 18 -68 18q-35 0 -43 -41h-57q7 44 34.5 78.5t69.5 34.5q33 0 81 -20q42 -18 62 -18q39 0 50 44z" />
    <glyph glyph-name="itilde" unicode="&#x129;" horiz-adv-x="241" 
d="M177 0h-114v517h114v-517zM242 720h56q-9 -55 -33 -81q-28 -34 -78 -34q-31 0 -74 19q-43 18 -68 18q-35 0 -43 -41h-57q7 44 34.5 78.5t69.5 34.5q33 0 81 -20q42 -18 62 -18q39 0 50 44z" />
    <glyph glyph-name="Imacron" unicode="&#x12a;" horiz-adv-x="278" 
d="M76 0v714h125v-714h-125zM282 818h-288v65h288v-65z" />
    <glyph glyph-name="imacron" unicode="&#x12b;" horiz-adv-x="241" 
d="M177 0h-114v517h114v-517zM264 624h-288v65h288v-65z" />
    <glyph glyph-name="Ibreve" unicode="&#x12c;" horiz-adv-x="278" 
d="M76 0v714h125v-714h-125zM-22 925h58q15 -76 107 -76q39 0 66 19.5t35 56.5h57q-8 -70 -51.5 -105.5t-114.5 -35.5q-69 0 -110 36t-47 105z" />
    <glyph glyph-name="ibreve" unicode="&#x12d;" horiz-adv-x="241" 
d="M177 0h-114v517h114v-517zM-40 731h58q15 -76 107 -76q39 0 66 19.5t35 56.5h57q-8 -70 -51.5 -105.5t-114.5 -35.5q-69 0 -110 36t-47 105z" />
    <glyph glyph-name="Iogonek" unicode="&#x12e;" horiz-adv-x="278" 
d="M201 714v-714q-49 -43 -66.5 -71t-17.5 -58q0 -20 10 -32t25 -12q27 0 47 34l37 -9q-20 -75 -95 -75q-38 0 -64.5 22t-26.5 63q0 71 103 138h-77v714h125z" />
    <glyph glyph-name="iogonek" unicode="&#x12f;" horiz-adv-x="241" 
d="M63 606v108h114v-108h-114zM63 0v517h114v-517q-49 -43 -66.5 -71t-17.5 -58q0 -20 10 -32t25 -12q27 0 47 34l37 -9q-20 -75 -95 -75q-38 0 -64.5 22t-26.5 63q0 71 103 138h-66z" />
    <glyph glyph-name="Idotaccent" unicode="&#x130;" horiz-adv-x="278" 
d="M76 0v714h125v-714h-125zM196 796h-114v108h114v-108z" />
    <glyph glyph-name="dotlessi" unicode="&#x131;" horiz-adv-x="241" 
d="M177 0h-114v517h114v-517z" />
    <glyph glyph-name="Jcircumflex" unicode="&#x134;" horiz-adv-x="537" 
d="M13 212v38h125v-37q0 -64 22 -96t76 -32q58 0 79 33t21 105v491h125v-484q0 -42 -4.5 -74t-19.5 -66t-39.5 -56t-68.5 -36.5t-103 -14.5q-108 0 -160.5 62.5t-52.5 166.5zM393 873l-70 -90h-92l107 143h111l108 -143h-93z" />
    <glyph glyph-name="jcircumflex" unicode="&#x135;" horiz-adv-x="241" 
d="M63 -39v556h114v-561q0 -80 -35 -120.5t-113 -40.5q-31 0 -51 4v90q20 -4 39 -4q29 0 37.5 17t8.5 59zM119 679l-70 -90h-92l107 143h111l108 -143h-93z" />
    <glyph glyph-name="Kcommaaccent" unicode="&#x136;" horiz-adv-x="685" 
d="M76 0v714h125v-325l318 325h154l-285 -285l305 -429h-156l-234 341l-102 -101v-240h-125zM285 -149v99h131v-89q0 -79 -116 -84v38q40 6 45 36h-60z" />
    <glyph glyph-name="kcommaaccent" unicode="&#x137;" horiz-adv-x="537" 
d="M63 0v714h114v-406l206 209h140l-198 -190l217 -327h-139l-158 251l-68 -66v-185h-114zM214 -149v99h131v-89q0 -79 -116 -84v38q40 6 45 36h-60z" />
    <glyph glyph-name="kgreenlandic" unicode="&#x138;" horiz-adv-x="537" 
d="M63 0v517h114v-209l206 209h140l-198 -190l217 -327h-139l-158 251l-68 -66v-185h-114z" />
    <glyph glyph-name="Lacute" unicode="&#x139;" horiz-adv-x="574" 
d="M76 0v714h125v-606h363v-108h-488zM96 783l90 143h135l-142 -143h-83z" />
    <glyph glyph-name="lacute" unicode="&#x13a;" horiz-adv-x="241" 
d="M63 0v714h114v-714h-114zM64 783l90 143h135l-142 -143h-83z" />
    <glyph glyph-name="Lcommaaccent" unicode="&#x13b;" horiz-adv-x="574" 
d="M76 0v714h125v-606h363v-108h-488zM256 -149v99h131v-89q0 -79 -116 -84v38q40 6 45 36h-60z" />
    <glyph glyph-name="lcommaaccent" unicode="&#x13c;" horiz-adv-x="241" 
d="M63 0v714h114v-714h-114zM54 -149v99h131v-89q0 -79 -116 -84v38q40 6 45 36h-60z" />
    <glyph glyph-name="Lcaron" unicode="&#x13d;" horiz-adv-x="574" 
d="M76 0v714h125v-606h363v-108h-488zM286 571l32 143h125l-81 -143h-76z" />
    <glyph glyph-name="lcaron" unicode="&#x13e;" horiz-adv-x="241" 
d="M63 0v714h114v-714h-114zM226 571l32 143h125l-81 -143h-76z" />
    <glyph glyph-name="Ldot" unicode="&#x13f;" horiz-adv-x="574" 
d="M76 0v714h125v-606h363v-108h-488zM437 336h-114v108h114v-108z" />
    <glyph glyph-name="ldot" unicode="&#x140;" horiz-adv-x="369" 
d="M63 0v714h114v-714h-114zM357 336h-114v108h114v-108z" />
    <glyph glyph-name="Lslash" unicode="&#x141;" horiz-adv-x="574" 
d="M76 317v397h125v-306l200 142v-93l-200 -142v-207h363v-108h-488v227l-76 -54v90z" />
    <glyph glyph-name="lslash" unicode="&#x142;" horiz-adv-x="241" 
d="M63 0v319l-68 -53v71l68 53v324h114v-235l68 54v-72l-68 -54v-407h-114z" />
    <glyph glyph-name="Nacute" unicode="&#x143;" horiz-adv-x="722" 
d="M71 0v714h132l326 -526h2v526h119v-714h-132l-325 525h-3v-525h-119zM311 783l90 143h135l-142 -143h-83z" />
    <glyph glyph-name="nacute" unicode="&#x144;" horiz-adv-x="574" 
d="M60 0v517h108v-76l2 -2q27 43 69 67.5t92 24.5q86 0 134.5 -45t48.5 -131v-355h-114v325q-2 61 -26 88.5t-75 27.5q-56 0 -90.5 -39t-34.5 -97v-305h-114zM235 589l90 143h135l-142 -143h-83z" />
    <glyph glyph-name="Ncommaaccent" unicode="&#x145;" horiz-adv-x="722" 
d="M71 0v714h132l326 -526h2v526h119v-714h-132l-325 525h-3v-525h-119zM294 -149v99h131v-89q0 -79 -116 -84v38q40 6 45 36h-60z" />
    <glyph glyph-name="ncommaaccent" unicode="&#x146;" horiz-adv-x="574" 
d="M60 0v517h108v-76l2 -2q27 43 69 67.5t92 24.5q86 0 134.5 -45t48.5 -131v-355h-114v325q-2 61 -26 88.5t-75 27.5q-56 0 -90.5 -39t-34.5 -97v-305h-114zM220 -149v99h131v-89q0 -79 -116 -84v38q40 6 45 36h-60z" />
    <glyph glyph-name="Ncaron" unicode="&#x147;" horiz-adv-x="722" 
d="M71 0v714h132l326 -526h2v526h119v-714h-132l-325 525h-3v-525h-119zM523 926l-108 -143h-111l-107 143h92l70 -89l71 89h93z" />
    <glyph glyph-name="ncaron" unicode="&#x148;" horiz-adv-x="574" 
d="M60 0v517h108v-76l2 -2q27 43 69 67.5t92 24.5q86 0 134.5 -45t48.5 -131v-355h-114v325q-2 61 -26 88.5t-75 27.5q-56 0 -90.5 -39t-34.5 -97v-305h-114zM452 732l-108 -143h-111l-107 143h92l70 -89l71 89h93z" />
    <glyph glyph-name="Eng" unicode="&#x14a;" horiz-adv-x="722" 
d="M529 -14l-336 539h-3v-525h-119v714h132l326 -526h2v526h119v-727q0 -192 -186 -192q-40 0 -77 8v96q36 -9 64 -9q78 0 78 96z" />
    <glyph glyph-name="eng" unicode="&#x14b;" horiz-adv-x="574" 
d="M400 -19v341q0 119 -101 119q-56 0 -90.5 -39t-34.5 -97v-305h-114v517h108v-76l2 -2q27 43 69 67.5t92 24.5q86 0 134.5 -45t48.5 -131v-379q0 -181 -173 -181q-34 0 -65 7v90q32 -7 53 -7q71 0 71 96z" />
    <glyph glyph-name="Omacron" unicode="&#x14c;" horiz-adv-x="760" 
d="M380 731q155 0 248.5 -108t93.5 -266q0 -159 -93.5 -266.5t-248.5 -107.5t-248.5 107.5t-93.5 266.5q0 158 93.5 266t248.5 108zM380 629q-107 0 -162 -79.5t-55 -192.5t55 -192.5t162 -79.5t162 79.5t55 192.5t-55 192.5t-162 79.5zM525 818h-288v65h288v-65z" />
    <glyph glyph-name="omacron" unicode="&#x14d;" horiz-adv-x="593" 
d="M297 -14q-121 0 -191 75.5t-70 197.5q0 120 70 196t191 76t191 -76t70 -196q0 -122 -70 -197.5t-191 -75.5zM297 76q72 0 109.5 54t37.5 129q0 74 -37.5 128t-109.5 54t-109.5 -54t-37.5 -128q0 -75 37.5 -129t109.5 -54zM443 624h-288v65h288v-65z" />
    <glyph glyph-name="Obreve" unicode="&#x14e;" horiz-adv-x="760" 
d="M380 731q155 0 248.5 -108t93.5 -266q0 -159 -93.5 -266.5t-248.5 -107.5t-248.5 107.5t-93.5 266.5q0 158 93.5 266t248.5 108zM380 629q-107 0 -162 -79.5t-55 -192.5t55 -192.5t162 -79.5t162 79.5t55 192.5t-55 192.5t-162 79.5zM220 925h58q15 -76 107 -76
q39 0 66 19.5t35 56.5h57q-8 -70 -51.5 -105.5t-114.5 -35.5q-69 0 -110 36t-47 105z" />
    <glyph glyph-name="obreve" unicode="&#x14f;" horiz-adv-x="593" 
d="M297 -14q-121 0 -191 75.5t-70 197.5q0 120 70 196t191 76t191 -76t70 -196q0 -122 -70 -197.5t-191 -75.5zM297 76q72 0 109.5 54t37.5 129q0 74 -37.5 128t-109.5 54t-109.5 -54t-37.5 -128q0 -75 37.5 -129t109.5 -54zM138 731h58q15 -76 107 -76q39 0 66 19.5
t35 56.5h57q-8 -70 -51.5 -105.5t-114.5 -35.5q-69 0 -110 36t-47 105z" />
    <glyph glyph-name="Ohungarumlaut" unicode="&#x150;" horiz-adv-x="760" 
d="M380 731q155 0 248.5 -108t93.5 -266q0 -159 -93.5 -266.5t-248.5 -107.5t-248.5 107.5t-93.5 266.5q0 158 93.5 266t248.5 108zM380 629q-107 0 -162 -79.5t-55 -192.5t55 -192.5t162 -79.5t162 79.5t55 192.5t-55 192.5t-162 79.5zM431 783l90 143h136l-144 -143h-82z
M232 783l90 143h136l-144 -143h-82z" />
    <glyph glyph-name="ohungarumlaut" unicode="&#x151;" horiz-adv-x="593" 
d="M297 -14q-121 0 -191 75.5t-70 197.5q0 120 70 196t191 76t191 -76t70 -196q0 -122 -70 -197.5t-191 -75.5zM297 76q72 0 109.5 54t37.5 129q0 74 -37.5 128t-109.5 54t-109.5 -54t-37.5 -128q0 -75 37.5 -129t109.5 -54zM349 589l90 143h136l-144 -143h-82zM150 589
l90 143h136l-144 -143h-82z" />
    <glyph glyph-name="OE" unicode="&#x152;" horiz-adv-x="1093" 
d="M671 606v-187h343v-102h-343v-209h381v-108h-495v64q-69 -81 -188 -81q-102 0 -178 52t-113 135t-37 184q0 158 91 267.5t245 109.5q115 0 180 -74v57h488v-108h-374zM552 219v266q0 60 -44.5 102t-126.5 42q-72 0 -122 -41.5t-71.5 -101.5t-21.5 -130t21.5 -129.5
t71.5 -100.5t122 -41q77 0 124 42t47 92z" />
    <glyph glyph-name="oe" unicode="&#x153;" horiz-adv-x="907" 
d="M883 229h-378q0 -67 35 -110t100 -43q45 0 80 23t43 65h114q-21 -87 -82.5 -132.5t-152.5 -45.5q-138 0 -185 95q-51 -95 -184 -95q-115 0 -176.5 78t-61.5 196q0 115 66.5 193t180.5 78q132 0 181 -87q56 87 181 87q65 0 113 -24t74.5 -67t39 -95.5t12.5 -115.5z
M635 441q-56 0 -92 -40t-38 -97h264q-8 137 -134 137zM281 441q-67 0 -99.5 -53.5t-32.5 -125.5q0 -79 30.5 -132.5t101.5 -53.5t101.5 53.5t30.5 132.5q0 72 -32.5 125.5t-99.5 53.5z" />
    <glyph glyph-name="Racute" unicode="&#x154;" horiz-adv-x="704" 
d="M76 0v714h341q116 0 176 -50.5t60 -142.5q0 -48 -14 -84t-37 -55.5t-37.5 -27.5t-29.5 -13v-2q41 -5 73.5 -40.5t32.5 -110.5q0 -146 39 -188h-134q-19 31 -19 105q0 103 -29.5 146t-112.5 43h-184v-294h-125zM201 612v-223h205q122 0 122 114q0 63 -33.5 86t-90.5 23
h-203zM293 783l90 143h135l-142 -143h-83z" />
    <glyph glyph-name="racute" unicode="&#x155;" horiz-adv-x="352" 
d="M60 0v517h107v-100h2q10 43 55.5 78.5t95.5 35.5q10 0 43 -3v-110q-27 5 -49 5q-60 0 -100 -47t-40 -130v-246h-114zM157 589l90 143h135l-142 -143h-83z" />
    <glyph glyph-name="Rcommaaccent" unicode="&#x156;" horiz-adv-x="704" 
d="M76 0v714h341q116 0 176 -50.5t60 -142.5q0 -48 -14 -84t-37 -55.5t-37.5 -27.5t-29.5 -13v-2q41 -5 73.5 -40.5t32.5 -110.5q0 -146 39 -188h-134q-19 31 -19 105q0 103 -29.5 146t-112.5 43h-184v-294h-125zM201 612v-223h205q122 0 122 114q0 63 -33.5 86t-90.5 23
h-203zM291 -149v99h131v-89q0 -79 -116 -84v38q40 6 45 36h-60z" />
    <glyph glyph-name="rcommaaccent" unicode="&#x157;" horiz-adv-x="352" 
d="M60 0v517h107v-100h2q10 43 55.5 78.5t95.5 35.5q10 0 43 -3v-110q-27 5 -49 5q-60 0 -100 -47t-40 -130v-246h-114zM51 -149v99h131v-89q0 -79 -116 -84v38q40 6 45 36h-60z" />
    <glyph glyph-name="Rcaron" unicode="&#x158;" horiz-adv-x="704" 
d="M76 0v714h341q116 0 176 -50.5t60 -142.5q0 -48 -14 -84t-37 -55.5t-37.5 -27.5t-29.5 -13v-2q41 -5 73.5 -40.5t32.5 -110.5q0 -146 39 -188h-134q-19 31 -19 105q0 103 -29.5 146t-112.5 43h-184v-294h-125zM201 612v-223h205q122 0 122 114q0 63 -33.5 86t-90.5 23
h-203zM504 926l-108 -143h-111l-107 143h92l70 -89l71 89h93z" />
    <glyph glyph-name="rcaron" unicode="&#x159;" horiz-adv-x="352" 
d="M60 0v517h107v-100h2q10 43 55.5 78.5t95.5 35.5q10 0 43 -3v-110q-27 5 -49 5q-60 0 -100 -47t-40 -130v-246h-114zM374 732l-108 -143h-111l-107 143h92l70 -89l71 89h93z" />
    <glyph glyph-name="Sacute" unicode="&#x15a;" horiz-adv-x="648" 
d="M33 238h125q0 -78 50 -115.5t131 -37.5q77 0 114 31.5t37 76.5q0 66 -59 88q-23 9 -51.5 17t-78 20.5t-83.5 21.5q-158 41 -158 181q0 101 77.5 155.5t183.5 54.5q117 0 195.5 -60.5t78.5 -167.5h-125q-10 126 -154 126q-52 0 -91.5 -22t-39.5 -71q0 -67 85 -92
q1 0 47 -12t94.5 -25t64.5 -18q67 -21 103 -71.5t36 -110.5q0 -58 -24 -102.5t-65.5 -70t-90.5 -38.5t-104 -13q-130 0 -213 64t-85 191zM282 783l90 143h135l-142 -143h-83z" />
    <glyph glyph-name="sacute" unicode="&#x15b;" horiz-adv-x="519" 
d="M32 166h114q9 -90 117 -90q20 0 37.5 2.5t37 9t30.5 21t10 35.5q-1 13 -5.5 23t-15 17.5t-20.5 12.5t-28 10t-30 8t-35 7.5t-35 7.5q-36 8 -62 17.5t-51.5 26t-39 44t-13.5 65.5q0 40 20 70.5t53 46.5t69 23.5t74 7.5q87 0 147 -38.5t69 -120.5h-119q-14 69 -105 69
q-21 0 -40 -3.5t-36.5 -16t-17.5 -33.5q0 -12 4 -21.5t15 -16.5t20 -12t28.5 -10.5t30 -8t35.5 -7.5l35 -7q37 -8 62.5 -17.5t51.5 -26.5t39.5 -43.5t13.5 -63.5q0 -58 -36.5 -97.5t-86.5 -55t-108 -15.5q-102 0 -164.5 46t-64.5 134zM211 589l90 143h135l-142 -143h-83z
" />
    <glyph glyph-name="Scircumflex" unicode="&#x15c;" horiz-adv-x="648" 
d="M33 238h125q0 -78 50 -115.5t131 -37.5q77 0 114 31.5t37 76.5q0 66 -59 88q-23 9 -51.5 17t-78 20.5t-83.5 21.5q-158 41 -158 181q0 101 77.5 155.5t183.5 54.5q117 0 195.5 -60.5t78.5 -167.5h-125q-10 126 -154 126q-52 0 -91.5 -22t-39.5 -71q0 -67 85 -92
q1 0 47 -12t94.5 -25t64.5 -18q67 -21 103 -71.5t36 -110.5q0 -58 -24 -102.5t-65.5 -70t-90.5 -38.5t-104 -13q-130 0 -213 64t-85 191zM330 873l-70 -90h-92l107 143h111l108 -143h-93z" />
    <glyph glyph-name="scircumflex" unicode="&#x15d;" horiz-adv-x="519" 
d="M32 166h114q9 -90 117 -90q20 0 37.5 2.5t37 9t30.5 21t10 35.5q-1 13 -5.5 23t-15 17.5t-20.5 12.5t-28 10t-30 8t-35 7.5t-35 7.5q-36 8 -62 17.5t-51.5 26t-39 44t-13.5 65.5q0 40 20 70.5t53 46.5t69 23.5t74 7.5q87 0 147 -38.5t69 -120.5h-119q-14 69 -105 69
q-21 0 -40 -3.5t-36.5 -16t-17.5 -33.5q0 -12 4 -21.5t15 -16.5t20 -12t28.5 -10.5t30 -8t35.5 -7.5l35 -7q37 -8 62.5 -17.5t51.5 -26.5t39.5 -43.5t13.5 -63.5q0 -58 -36.5 -97.5t-86.5 -55t-108 -15.5q-102 0 -164.5 46t-64.5 134zM264 679l-70 -90h-92l107 143h111
l108 -143h-93z" />
    <glyph glyph-name="Scedilla" unicode="&#x15e;" horiz-adv-x="648" 
d="M200 -200l18 40q35 -16 68 -16q58 0 58 41q0 18 -13.5 28t-32.5 10q-23 0 -39 -10l-22 19l54 73q-115 10 -185.5 73t-72.5 180h125q0 -78 50 -115.5t131 -37.5q77 0 114 31.5t37 76.5q0 66 -59 88q-28 10 -213 59q-158 42 -158 181q0 101 77.5 155.5t183.5 54.5
q117 0 195.5 -60.5t78.5 -167.5h-125q-10 126 -154 126q-52 0 -91.5 -22t-39.5 -71q0 -67 85 -92q1 0 47 -12t94.5 -25t64.5 -18q67 -21 103 -71.5t36 -110.5q0 -75 -41.5 -127t-102 -74t-134.5 -23l-32 -42l1 -1q16 4 33 4q33 0 59 -19.5t26 -55.5q0 -46 -36 -69t-85 -23
q-61 0 -103 23z" />
    <glyph glyph-name="scedilla" unicode="&#x15f;" horiz-adv-x="519" 
d="M139 -200l18 40q35 -16 68 -16q58 0 58 41q0 18 -13.5 28t-32.5 10q-23 0 -39 -10l-22 19l56 75q-90 6 -144 51.5t-56 127.5h114q9 -90 117 -90q20 0 37.5 2.5t37 9t30.5 21t10 35.5q-1 13 -5.5 23t-15 17.5t-20.5 12.5t-28 10t-30 8t-35 7.5t-35 7.5q-36 8 -62 17.5
t-51.5 26t-39 44t-13.5 65.5q0 40 20 70.5t53 46.5t69 23.5t74 7.5q87 0 147 -38.5t69 -120.5h-119q-14 69 -105 69q-21 0 -40 -3.5t-36.5 -16t-17.5 -33.5q0 -12 4 -21.5t15 -16.5t20 -12t28.5 -10.5t30 -8t35.5 -7.5l35 -7q37 -8 62.5 -17.5t51.5 -26.5t39.5 -43.5
t13.5 -63.5q0 -80 -62.5 -121.5t-150.5 -45.5l-35 -46l1 -1q16 4 33 4q33 0 59 -19.5t26 -55.5q0 -46 -36 -69t-85 -23q-61 0 -103 23z" />
    <glyph glyph-name="Scaron" unicode="&#x160;" horiz-adv-x="648" 
d="M33 238h125q0 -78 50 -115.5t131 -37.5q77 0 114 31.5t37 76.5q0 66 -59 88q-23 9 -51.5 17t-78 20.5t-83.5 21.5q-158 41 -158 181q0 101 77.5 155.5t183.5 54.5q117 0 195.5 -60.5t78.5 -167.5h-125q-10 126 -154 126q-52 0 -91.5 -22t-39.5 -71q0 -67 85 -92
q1 0 47 -12t94.5 -25t64.5 -18q67 -21 103 -71.5t36 -110.5q0 -58 -24 -102.5t-65.5 -70t-90.5 -38.5t-104 -13q-130 0 -213 64t-85 191zM493 926l-108 -143h-111l-107 143h92l70 -89l71 89h93z" />
    <glyph glyph-name="scaron" unicode="&#x161;" horiz-adv-x="519" 
d="M32 166h114q9 -90 117 -90q20 0 37.5 2.5t37 9t30.5 21t10 35.5q-1 13 -5.5 23t-15 17.5t-20.5 12.5t-28 10t-30 8t-35 7.5t-35 7.5q-36 8 -62 17.5t-51.5 26t-39 44t-13.5 65.5q0 40 20 70.5t53 46.5t69 23.5t74 7.5q87 0 147 -38.5t69 -120.5h-119q-14 69 -105 69
q-21 0 -40 -3.5t-36.5 -16t-17.5 -33.5q0 -12 4 -21.5t15 -16.5t20 -12t28.5 -10.5t30 -8t35.5 -7.5l35 -7q37 -8 62.5 -17.5t51.5 -26.5t39.5 -43.5t13.5 -63.5q0 -58 -36.5 -97.5t-86.5 -55t-108 -15.5q-102 0 -164.5 46t-64.5 134zM428 732l-108 -143h-111l-107 143h92
l70 -89l71 89h93z" />
    <glyph glyph-name="Tcommaaccent" unicode="&#x162;" horiz-adv-x="593" 
d="M8 606v108h578v-108h-227v-606h-125v606h-226zM230 -149v99h131v-89q0 -79 -116 -84v38q40 6 45 36h-60z" />
    <glyph glyph-name="tcommaaccent" unicode="&#x163;" horiz-adv-x="333" 
d="M8 432v85h86v155h114v-155h103v-85h-103v-276q0 -40 9.5 -55.5t45.5 -15.5q32 0 48 4v-88q-50 -6 -74 -6q-84 0 -112.5 30.5t-30.5 101.5v305h-86zM139 -149v99h131v-89q0 -79 -116 -84v38q40 6 45 36h-60z" />
    <glyph glyph-name="Tcaron" unicode="&#x164;" horiz-adv-x="593" 
d="M8 606v108h578v-108h-227v-606h-125v606h-226zM461 926l-108 -143h-111l-107 143h92l70 -89l71 89h93z" />
    <glyph glyph-name="tcaron" unicode="&#x165;" horiz-adv-x="333" 
d="M264 571l32 143h125l-81 -143h-76zM8 432v85h86v155h114v-155h103v-85h-103v-276q0 -40 9.5 -55.5t45.5 -15.5q32 0 48 4v-88q-50 -6 -74 -6q-84 0 -112.5 30.5t-30.5 101.5v305h-86z" />
    <glyph glyph-name="Tbar" unicode="&#x166;" horiz-adv-x="593" 
d="M8 606v108h578v-108h-227v-135h153v-74h-153v-397h-125v397h-152v74h152v135h-226z" />
    <glyph glyph-name="tbar" unicode="&#x167;" horiz-adv-x="333" 
d="M8 432v85h86v155h114v-155h103v-85h-103v-94h94v-63h-94v-119q0 -40 9.5 -55.5t45.5 -15.5q32 0 48 4v-88q-46 -6 -74 -6q-85 0 -114 31t-29 101v148h-80v63h80v94h-86z" />
    <glyph glyph-name="Utilde" unicode="&#x168;" horiz-adv-x="722" 
d="M68 257v457h125v-416q0 -36 2 -59t11 -54.5t26 -49.5t49.5 -31t79.5 -13t79.5 13t49.5 31t26 49.5t11 54.5t2 59v416h125v-457q0 -134 -78.5 -204t-214.5 -70t-214.5 70t-78.5 204zM482 914h56q-9 -55 -33 -81q-28 -34 -78 -34q-31 0 -74 19q-43 18 -68 18q-35 0 -43 -41
h-57q7 44 34.5 78.5t69.5 34.5q33 0 81 -20q42 -18 62 -18q39 0 50 44z" />
    <glyph glyph-name="utilde" unicode="&#x169;" horiz-adv-x="574" 
d="M514 517v-517h-112v72h-2q-21 -38 -62.5 -62t-84.5 -24q-101 0 -147 50t-46 153v328h114v-317q0 -66 25 -95t74 -29q127 0 127 141v300h114zM411 720h56q-9 -55 -33 -81q-28 -34 -78 -34q-31 0 -74 19q-43 18 -68 18q-35 0 -43 -41h-57q7 44 34.5 78.5t69.5 34.5
q33 0 81 -20q42 -18 62 -18q39 0 50 44z" />
    <glyph glyph-name="Umacron" unicode="&#x16a;" horiz-adv-x="722" 
d="M68 257v457h125v-416q0 -36 2 -59t11 -54.5t26 -49.5t49.5 -31t79.5 -13t79.5 13t49.5 31t26 49.5t11 54.5t2 59v416h125v-457q0 -134 -78.5 -204t-214.5 -70t-214.5 70t-78.5 204zM505 818h-288v65h288v-65z" />
    <glyph glyph-name="umacron" unicode="&#x16b;" horiz-adv-x="574" 
d="M514 517v-517h-112v72h-2q-21 -38 -62.5 -62t-84.5 -24q-101 0 -147 50t-46 153v328h114v-317q0 -66 25 -95t74 -29q127 0 127 141v300h114zM434 624h-288v65h288v-65z" />
    <glyph glyph-name="Ubreve" unicode="&#x16c;" horiz-adv-x="722" 
d="M68 257v457h125v-416q0 -36 2 -59t11 -54.5t26 -49.5t49.5 -31t79.5 -13t79.5 13t49.5 31t26 49.5t11 54.5t2 59v416h125v-457q0 -134 -78.5 -204t-214.5 -70t-214.5 70t-78.5 204zM200 925h58q15 -76 107 -76q39 0 66 19.5t35 56.5h57q-8 -70 -51.5 -105.5t-114.5 -35.5
q-69 0 -110 36t-47 105z" />
    <glyph glyph-name="ubreve" unicode="&#x16d;" horiz-adv-x="574" 
d="M514 517v-517h-112v72h-2q-21 -38 -62.5 -62t-84.5 -24q-101 0 -147 50t-46 153v328h114v-317q0 -66 25 -95t74 -29q127 0 127 141v300h114zM129 731h58q15 -76 107 -76q39 0 66 19.5t35 56.5h57q-8 -70 -51.5 -105.5t-114.5 -35.5q-69 0 -110 36t-47 105z" />
    <glyph glyph-name="Uring" unicode="&#x16e;" horiz-adv-x="722" 
d="M68 257v457h125v-416q0 -36 2 -59t11 -54.5t26 -49.5t49.5 -31t79.5 -13t79.5 13t49.5 31t26 49.5t11 54.5t2 59v416h125v-457q0 -134 -78.5 -204t-214.5 -70t-214.5 70t-78.5 204zM362 751q-44 0 -74 29t-30 74t30.5 74t73.5 29t73.5 -29t30.5 -74t-30.5 -74t-73.5 -29z
M302 854q0 -26 17.5 -43.5t42.5 -17.5q26 0 43 17.5t17 43.5q0 27 -17 44t-43 17q-25 0 -42.5 -17t-17.5 -44z" />
    <glyph glyph-name="uring" unicode="&#x16f;" horiz-adv-x="574" 
d="M514 517v-517h-112v72h-2q-21 -38 -62.5 -62t-84.5 -24q-101 0 -147 50t-46 153v328h114v-317q0 -66 25 -95t74 -29q127 0 127 141v300h114zM292 571q-44 0 -74 29t-30 74t30.5 74t73.5 29t73.5 -29t30.5 -74t-30.5 -74t-73.5 -29zM232 674q0 -26 17.5 -43.5t42.5 -17.5
q26 0 43 17.5t17 43.5q0 27 -17 44t-43 17q-25 0 -42.5 -17t-17.5 -44z" />
    <glyph glyph-name="Uhungarumlaut" unicode="&#x170;" horiz-adv-x="722" 
d="M68 257v457h125v-416q0 -36 2 -59t11 -54.5t26 -49.5t49.5 -31t79.5 -13t79.5 13t49.5 31t26 49.5t11 54.5t2 59v416h125v-457q0 -134 -78.5 -204t-214.5 -70t-214.5 70t-78.5 204zM411 783l90 143h136l-144 -143h-82zM212 783l90 143h136l-144 -143h-82z" />
    <glyph glyph-name="uhungarumlaut" unicode="&#x171;" horiz-adv-x="574" 
d="M514 517v-517h-112v72h-2q-21 -38 -62.5 -62t-84.5 -24q-101 0 -147 50t-46 153v328h114v-317q0 -66 25 -95t74 -29q127 0 127 141v300h114zM340 589l90 143h136l-144 -143h-82zM141 589l90 143h136l-144 -143h-82z" />
    <glyph glyph-name="Uogonek" unicode="&#x172;" horiz-adv-x="722" 
d="M68 257v457h125v-416q0 -36 2 -59t11 -54.5t26 -49.5t49.5 -31t79.5 -13t79.5 13t49.5 31t26 49.5t11 54.5t2 59v416h125v-457q0 -123 -67 -192t-184 -80q-44 -37 -59.5 -61.5t-15.5 -52.5q0 -20 11.5 -32t28.5 -12q30 0 51 34l41 -9q-20 -75 -105 -75q-43 0 -72 22.5
t-29 63.5q0 62 87 121q-127 5 -200 74.5t-73 198.5z" />
    <glyph glyph-name="uogonek" unicode="&#x173;" horiz-adv-x="574" 
d="M402 0v72h-2q-21 -38 -62.5 -62t-84.5 -24q-101 0 -147 50t-46 153v328h114v-317q0 -66 25 -95t74 -29q127 0 127 141v300h114v-517h-58q-54 -45 -72.5 -72t-18.5 -57q0 -20 11.5 -32t28.5 -12q30 0 51 34l41 -9q-20 -75 -105 -75q-43 0 -72 22.5t-29 63.5q0 68 111 137z
" />
    <glyph glyph-name="Wcircumflex" unicode="&#x174;" horiz-adv-x="944" 
d="M194 0l-188 714h127l129 -546h2l144 546h128l140 -546h2l133 546h127l-197 -714h-127l-143 546h-2l-146 -546h-129zM472 873l-70 -90h-92l107 143h111l108 -143h-93z" />
    <glyph glyph-name="wcircumflex" unicode="&#x175;" horiz-adv-x="778" 
d="M173 0l-160 517h121l101 -386h2l97 386h115l93 -386h2l105 386h116l-162 -517h-117l-96 384h-2l-95 -384h-120zM394 679l-70 -90h-92l107 143h111l108 -143h-93z" />
    <glyph glyph-name="Ycircumflex" unicode="&#x176;" horiz-adv-x="648" 
d="M262 0v280l-268 434h145l189 -320l186 320h140l-267 -434v-280h-125zM330 873l-70 -90h-92l107 143h111l108 -143h-93z" />
    <glyph glyph-name="ycircumflex" unicode="&#x177;" horiz-adv-x="519" 
d="M199 2l-196 515h125l135 -386h2l131 386h119l-201 -545q-35 -88 -54 -115q-44 -62 -129 -62q-40 0 -79 6v96q44 -7 54 -7q36 0 52.5 17.5t27.5 54.5zM266 679l-70 -90h-92l107 143h111l108 -143h-93z" />
    <glyph glyph-name="Ydieresis" unicode="&#x178;" horiz-adv-x="648" 
d="M262 0v280l-268 434h145l189 -320l186 320h140l-267 -434v-280h-125zM359 904h114v-108h-114v108zM301 796h-114v108h114v-108z" />
    <glyph glyph-name="Zacute" unicode="&#x179;" horiz-adv-x="630" 
d="M55 606v108h543v-95l-416 -511h426v-108h-585v102l416 504h-384zM275 783l90 143h135l-142 -143h-83z" />
    <glyph glyph-name="zacute" unicode="&#x17a;" horiz-adv-x="500" 
d="M42 427v90h420v-80l-296 -347h311v-90h-455v80l286 347h-266zM198 589l90 143h135l-142 -143h-83z" />
    <glyph glyph-name="Zdotaccent" unicode="&#x17b;" horiz-adv-x="630" 
d="M55 606v108h543v-95l-416 -511h426v-108h-585v102l416 504h-384zM380 796h-114v108h114v-108z" />
    <glyph glyph-name="zdotaccent" unicode="&#x17c;" horiz-adv-x="500" 
d="M42 427v90h420v-80l-296 -347h311v-90h-455v80l286 347h-266zM308 602h-114v108h114v-108z" />
    <glyph glyph-name="Zcaron" unicode="&#x17d;" horiz-adv-x="630" 
d="M55 606v108h543v-95l-416 -511h426v-108h-585v102l416 504h-384zM487 926l-108 -143h-111l-107 143h92l70 -89l71 89h93z" />
    <glyph glyph-name="zcaron" unicode="&#x17e;" horiz-adv-x="500" 
d="M42 427v90h420v-80l-296 -347h311v-90h-455v80l286 347h-266zM415 732l-108 -143h-111l-107 143h92l70 -89l71 89h93z" />
    <glyph glyph-name="florin" unicode="&#x192;" 
d="M116 353l15 85h92l32 168q32 125 176 125q33 0 73 -5l-17 -90q-25 5 -41 5q-40 0 -57 -16t-26 -57l-25 -130h102l-15 -85h-102l-73 -381q-12 -59 -60.5 -100.5t-110.5 -41.5q-34 0 -79 5l15 90q27 -5 48 -5q29 0 46 12t23 44l75 377h-91z" />
    <glyph glyph-name="Aringacute" unicode="&#x1fa;" horiz-adv-x="667" 
d="M345 957h121l-101 -99h-80zM-7 0l269 682q-23 26 -23 62q0 41 27.5 67t68.5 26q40 0 67.5 -26t27.5 -67q0 -36 -25 -64l270 -680h-134l-67 189h-285l-67 -189h-129zM280 744q0 -24 15.5 -39t38.5 -15q24 0 39.5 15t15.5 39t-15.5 39.5t-38.5 15.5q-24 0 -39.5 -15.5
t-15.5 -39.5zM331 581l-108 -297h218l-107 297h-3z" />
    <glyph glyph-name="aringacute" unicode="&#x1fb;" 
d="M238 799l81 127h131l-131 -127h-81zM283 564q-44 0 -74 29t-30 74t30.5 74t73.5 29t73.5 -29t30.5 -74t-30.5 -74t-73.5 -29zM223 667q0 -26 17.5 -43.5t42.5 -17.5q26 0 43 17.5t17 43.5q0 27 -17 44t-43 17q-25 0 -42.5 -17t-17.5 -44zM493 381v-266q0 -21 6 -30t21 -9
q17 0 28 2v-79q-37 -13 -72 -13q-76 0 -88 63q-32 -31 -81 -47t-98 -16q-76 0 -126.5 39.5t-50.5 111.5q0 37 11.5 64.5t28.5 43.5t45 27.5t51.5 16.5t57.5 9l63 8q55 7 76 20t21 45q0 70 -107 70q-50 0 -80 -20.5t-34 -61.5h-114q6 92 71.5 132t163.5 40q85 0 146 -37
t61 -113zM379 174v85q-27 -16 -88 -24l-46 -6q-99 -13 -99 -82q0 -36 28.5 -53.5t69.5 -17.5q53 0 94 24.5t41 73.5z" />
    <glyph glyph-name="AEacute" unicode="&#x1fc;" horiz-adv-x="963" 
d="M-7 0l355 714h576v-108h-348v-187h326v-102h-326v-209h354v-108h-473v183h-239l-86 -183h-139zM421 606l-157 -328h193v328h-36zM539 783l90 143h135l-142 -143h-83z" />
    <glyph glyph-name="aeacute" unicode="&#x1fd;" horiz-adv-x="889" 
d="M744 163h114q-22 -83 -84.5 -130t-149.5 -47q-136 0 -190 95q-63 -95 -215 -95q-82 0 -134.5 39t-52.5 112q0 46 16.5 77.5t48.5 48t61 23.5t73 12q16 3 39 6t36.5 5t29.5 6.5t24 10.5t14 17.5t6 27.5q0 70 -101 70q-50 0 -80 -20.5t-34 -61.5h-114q6 92 71 132t161 40
q126 0 175 -70q54 70 164 70q128 0 188.5 -83.5t51.5 -218.5h-375q0 -65 34 -109t101 -44q92 0 122 87zM487 304h261q1 63 -34 100t-97 37q-58 0 -92 -39t-38 -98zM379 180v77q-10 -10 -30.5 -15t-58 -8.5t-50.5 -5.5q-44 -7 -69 -26t-25 -60q0 -36 30.5 -51t73.5 -15
q51 0 90 28t39 76zM414 589l90 143h135l-142 -143h-83z" />
    <glyph glyph-name="Oslashacute" unicode="&#x1fe;" horiz-adv-x="760" 
d="M677 734l43 -36l-79 -89q81 -106 81 -252q0 -159 -93.5 -266.5t-248.5 -107.5q-132 0 -222 82l-76 -85l-42 36l79 90q-81 104 -81 251q0 158 93.5 266t248.5 108q133 0 222 -81zM199 196l329 370q-53 63 -148 63q-107 0 -162 -79.5t-55 -192.5q0 -93 36 -161zM560 518
l-328 -370q58 -63 148 -63q107 0 162 79.5t55 192.5q0 97 -37 161zM333 783l90 143h135l-142 -143h-83z" />
    <glyph glyph-name="oslashacute" unicode="&#x1ff;" horiz-adv-x="593" 
d="M246 589l90 143h135l-142 -143h-83zM64 -28l-32 28l65 72q-61 73 -61 187q0 120 70 196t191 76q102 0 170 -55l63 69l32 -28l-65 -71q61 -74 61 -187q0 -122 -70 -197.5t-191 -75.5q-102 0 -169 56zM173 155l223 244q-37 42 -99 42q-72 0 -109.5 -54t-37.5 -128
q0 -59 23 -104zM421 362l-223 -244q37 -42 99 -42q72 0 109.5 54t37.5 129q0 58 -23 103z" />
    <glyph glyph-name="Scommaaccent" unicode="&#x218;" horiz-adv-x="648" 
d="M33 238h125q0 -78 50 -115.5t131 -37.5q77 0 114 31.5t37 76.5q0 66 -59 88q-23 9 -51.5 17t-78 20.5t-83.5 21.5q-158 41 -158 181q0 101 77.5 155.5t183.5 54.5q117 0 195.5 -60.5t78.5 -167.5h-125q-10 126 -154 126q-52 0 -91.5 -22t-39.5 -71q0 -67 85 -92
q1 0 47 -12t94.5 -25t64.5 -18q67 -21 103 -71.5t36 -110.5q0 -58 -24 -102.5t-65.5 -70t-90.5 -38.5t-104 -13q-130 0 -213 64t-85 191zM255 -149v99h131v-89q0 -79 -116 -84v38q40 6 45 36h-60z" />
    <glyph glyph-name="scommaaccent" unicode="&#x219;" horiz-adv-x="519" 
d="M32 166h114q9 -90 117 -90q20 0 37.5 2.5t37 9t30.5 21t10 35.5q-1 13 -5.5 23t-15 17.5t-20.5 12.5t-28 10t-30 8t-35 7.5t-35 7.5q-36 8 -62 17.5t-51.5 26t-39 44t-13.5 65.5q0 40 20 70.5t53 46.5t69 23.5t74 7.5q87 0 147 -38.5t69 -120.5h-119q-14 69 -105 69
q-21 0 -40 -3.5t-36.5 -16t-17.5 -33.5q0 -12 4 -21.5t15 -16.5t20 -12t28.5 -10.5t30 -8t35.5 -7.5l35 -7q37 -8 62.5 -17.5t51.5 -26.5t39.5 -43.5t13.5 -63.5q0 -58 -36.5 -97.5t-86.5 -55t-108 -15.5q-102 0 -164.5 46t-64.5 134zM194 -149v99h131v-89q0 -79 -116 -84
v38q40 6 45 36h-60z" />
    <glyph glyph-name="uni021A" unicode="&#x21a;" horiz-adv-x="593" 
d="M8 606v108h578v-108h-227v-606h-125v606h-226zM230 -149v99h131v-89q0 -79 -116 -84v38q40 6 45 36h-60z" />
    <glyph glyph-name="uni021B" unicode="&#x21b;" horiz-adv-x="333" 
d="M8 432v85h86v155h114v-155h103v-85h-103v-276q0 -40 9.5 -55.5t45.5 -15.5q32 0 48 4v-88q-50 -6 -74 -6q-84 0 -112.5 30.5t-30.5 101.5v305h-86zM139 -149v99h131v-89q0 -79 -116 -84v38q40 6 45 36h-60z" />
    <glyph glyph-name="dotlessj" unicode="&#x237;" horiz-adv-x="241" 
d="M63 -39v556h114v-561q0 -80 -35 -120.5t-113 -40.5q-31 0 -51 4v90q20 -4 39 -4q29 0 37.5 17t8.5 59z" />
    <glyph glyph-name="circumflex" unicode="&#x2c6;" horiz-adv-x="241" 
d="M120 679l-70 -90h-92l107 143h111l108 -143h-93z" />
    <glyph glyph-name="caron" unicode="&#x2c7;" horiz-adv-x="241" 
d="M283 732l-108 -143h-111l-107 143h92l70 -89l71 89h93z" />
    <glyph glyph-name="uni02C9" unicode="&#x2c9;" horiz-adv-x="241" 
d="M265 624h-288v65h288v-65z" />
    <glyph glyph-name="breve" unicode="&#x2d8;" horiz-adv-x="241" 
d="M-41 731h58q15 -76 107 -76q39 0 66 19.5t35 56.5h57q-8 -70 -51.5 -105.5t-114.5 -35.5q-69 0 -110 36t-47 105z" />
    <glyph glyph-name="dotaccent" unicode="&#x2d9;" horiz-adv-x="241" 
d="M178 602h-114v108h114v-108z" />
    <glyph glyph-name="ring" unicode="&#x2da;" horiz-adv-x="241" 
d="M121 571q-44 0 -74 29t-30 74t30.5 74t73.5 29t73.5 -29t30.5 -74t-30.5 -74t-73.5 -29zM61 674q0 -26 17.5 -43.5t42.5 -17.5q26 0 43 17.5t17 43.5q0 27 -17 44t-43 17q-25 0 -42.5 -17t-17.5 -44z" />
    <glyph glyph-name="ogonek" unicode="&#x2db;" horiz-adv-x="241" 
d="M162 0h54q-56 -45 -75 -72t-19 -57q0 -20 11.5 -32t28.5 -12q30 0 51 34l41 -9q-20 -75 -105 -75q-43 0 -72 22.5t-29 63.5q0 68 114 137z" />
    <glyph glyph-name="tilde" unicode="&#x2dc;" horiz-adv-x="241" 
d="M241 720h56q-9 -55 -33 -81q-28 -34 -78 -34q-31 0 -74 19q-43 18 -68 18q-35 0 -43 -41h-57q7 44 34.5 78.5t69.5 34.5q33 0 81 -20q42 -18 62 -18q39 0 50 44z" />
    <glyph glyph-name="hungarumlaut" unicode="&#x2dd;" horiz-adv-x="241" 
d="M164 589l90 143h136l-144 -143h-82zM-35 589l90 143h136l-144 -143h-82z" />
    <glyph glyph-name="uni0374" unicode="&#x374;" horiz-adv-x="278" 
d="M237 732l-82 -171h-91l37 171h136z" />
    <glyph glyph-name="uni0375" unicode="&#x375;" horiz-adv-x="278" 
d="M35 -203l82 171h91l-37 -171h-136z" />
    <glyph glyph-name="uni037E" unicode="&#x37e;" horiz-adv-x="278" 
d="M69 371v135h139v-135h-139zM69 0v135h139v-135q-1 -61 -37.5 -103.5t-97.5 -54.5v61q32 8 49 35.5t16 61.5h-69z" />
    <glyph glyph-name="tonos" unicode="&#x384;" horiz-adv-x="241" 
d="M73 584l34 148h136l-77 -148h-93z" />
    <glyph glyph-name="dieresistonos" unicode="&#x385;" horiz-adv-x="422" 
d="M141 584l37 145h119l-68 -145h-88zM309 602v108h106v-108h-106zM14 602v108h105v-108h-105z" />
    <glyph glyph-name="Alphatonos" unicode="&#x386;" horiz-adv-x="674" 
d="M3 566l34 148h136l-77 -148h-93zM-7 0l274 714h133l275 -714h-134l-67 189h-285l-67 -189h-129zM223 284h218l-107 307h-3z" />
    <glyph glyph-name="anoteleia" unicode="&#x387;" horiz-adv-x="278" 
d="M69 371v135h139v-135h-139z" />
    <glyph glyph-name="Epsilontonos" unicode="&#x388;" horiz-adv-x="773" 
d="M3 566l34 148h136l-77 -148h-93zM219 0v714h514v-108h-389v-187h360v-102h-360v-209h396v-108h-521z" />
    <glyph glyph-name="Etatonos" unicode="&#x389;" horiz-adv-x="865" 
d="M3 566l34 148h136l-77 -148h-93zM216 0v714h125v-284h325v284h125v-714h-125v322h-325v-322h-125z" />
    <glyph glyph-name="Iotatonos" unicode="&#x38a;" horiz-adv-x="421" 
d="M3 566l34 148h136l-77 -148h-93zM219 0v714h125v-714h-125z" />
    <glyph glyph-name="Omicrontonos" unicode="&#x38c;" horiz-adv-x="882" 
d="M3 566l34 148h136l-77 -148h-93zM502 731q155 0 248.5 -108t93.5 -266q0 -159 -93.5 -266.5t-248.5 -107.5t-248.5 107.5t-93.5 266.5q0 158 93.5 266t248.5 108zM502 629q-107 0 -162 -79.5t-55 -192.5t55 -192.5t162 -79.5t162 79.5t55 192.5t-55 192.5t-162 79.5z" />
    <glyph glyph-name="Upsilontonos" unicode="&#x38e;" horiz-adv-x="842" 
d="M3 566l34 148h136l-77 -148h-93zM456 0v280l-268 434h145l189 -320l186 320h140l-267 -434v-280h-125z" />
    <glyph glyph-name="Omegatonos" unicode="&#x38f;" horiz-adv-x="889" 
d="M859 105v-105h-296v95q160 95 160 306q0 97 -58 162.5t-157 65.5t-159.5 -65.5t-60.5 -172.5q0 -199 164 -296v-95h-297v105h150v5q-142 99 -142 280q0 146 96.5 243.5t248.5 97.5q155 0 247.5 -98t92.5 -233q0 -182 -150 -290v-5h161zM3 566l34 148h136l-77 -148h-93z
" />
    <glyph glyph-name="iotadieresistonos" unicode="&#x390;" horiz-adv-x="256" 
d="M60 584l37 145h119l-68 -145h-88zM228 602v108h106v-108h-106zM-67 602v108h105v-108h-105zM177 517v-394q0 -47 34 -47q13 0 33 5v-78q-35 -17 -79 -17q-102 0 -102 107v424h114z" />
    <glyph glyph-name="Alpha" unicode="&#x391;" horiz-adv-x="667" 
d="M-7 0l274 714h133l275 -714h-134l-67 189h-285l-67 -189h-129zM223 284h218l-107 307h-3z" />
    <glyph glyph-name="Beta" unicode="&#x392;" horiz-adv-x="704" 
d="M76 0v714h347q99 0 155.5 -45t56.5 -132q0 -108 -102 -152v-2q65 -14 99.5 -62t34.5 -122q0 -89 -65.5 -144t-197.5 -55h-328zM201 415h204q46 0 75.5 26t29.5 73q0 52 -26 75t-79 23h-204v-197zM201 102h221q57 0 88.5 29.5t31.5 83.5q0 53 -31.5 81.5t-88.5 28.5h-221
v-223z" />
    <glyph glyph-name="Gamma" unicode="&#x393;" horiz-adv-x="577" 
d="M76 0v714h494v-108h-369v-606h-125z" />
    <glyph glyph-name="uni0394" unicode="&#x394;" horiz-adv-x="657" 
d="M665 0h-672l269 714h133zM494 105l-167 482l-167 -482h334z" />
    <glyph glyph-name="Epsilon" unicode="&#x395;" horiz-adv-x="630" 
d="M76 0v714h514v-108h-389v-187h360v-102h-360v-209h396v-108h-521z" />
    <glyph glyph-name="Zeta" unicode="&#x396;" horiz-adv-x="630" 
d="M55 606v108h543v-95l-416 -511h426v-108h-585v102l416 504h-384z" />
    <glyph glyph-name="Eta" unicode="&#x397;" horiz-adv-x="722" 
d="M73 0v714h125v-284h325v284h125v-714h-125v322h-325v-322h-125z" />
    <glyph glyph-name="Theta" unicode="&#x398;" horiz-adv-x="760" 
d="M380 731q155 0 248.5 -108t93.5 -266q0 -159 -93.5 -266.5t-248.5 -107.5t-248.5 107.5t-93.5 266.5q0 158 93.5 266t248.5 108zM380 629q-107 0 -162 -79.5t-55 -192.5t55 -192.5t162 -79.5t162 79.5t55 192.5t-55 192.5t-162 79.5zM247 310v108h266v-108h-266z" />
    <glyph glyph-name="Iota" unicode="&#x399;" horiz-adv-x="278" 
d="M76 0v714h125v-714h-125z" />
    <glyph glyph-name="Kappa" unicode="&#x39a;" horiz-adv-x="685" 
d="M76 0v714h125v-325l318 325h154l-285 -285l305 -429h-156l-234 341l-102 -101v-240h-125z" />
    <glyph glyph-name="Lambda" unicode="&#x39b;" horiz-adv-x="639" 
d="M-7 0l261 714h134l258 -714h-133l-192 591h-3l-196 -591h-129z" />
    <glyph glyph-name="Mu" unicode="&#x39c;" horiz-adv-x="889" 
d="M74 0v714h176l197 -559h2l192 559h174v-714h-119v551h-2l-198 -551h-103l-198 551h-2v-551h-119z" />
    <glyph glyph-name="Nu" unicode="&#x39d;" horiz-adv-x="722" 
d="M71 0v714h132l326 -526h2v526h119v-714h-132l-325 525h-3v-525h-119z" />
    <glyph glyph-name="Xi" unicode="&#x39e;" horiz-adv-x="584" 
d="M42 607v107h500v-107h-500zM84 316v106h416v-106h-416zM33 0v107h518v-107h-518z" />
    <glyph glyph-name="Omicron" unicode="&#x39f;" horiz-adv-x="760" 
d="M380 731q155 0 248.5 -108t93.5 -266q0 -159 -93.5 -266.5t-248.5 -107.5t-248.5 107.5t-93.5 266.5q0 158 93.5 266t248.5 108zM380 629q-107 0 -162 -79.5t-55 -192.5t55 -192.5t162 -79.5t162 79.5t55 192.5t-55 192.5t-162 79.5z" />
    <glyph glyph-name="Pi" unicode="&#x3a0;" horiz-adv-x="722" 
d="M73 0v714h575v-714h-125v607h-325v-607h-125z" />
    <glyph glyph-name="Rho" unicode="&#x3a1;" horiz-adv-x="667" 
d="M76 0v714h315q72 0 123 -21t75.5 -57t34.5 -70.5t10 -72.5t-10 -72.5t-34.5 -69.5t-75.5 -56t-123 -21h-190v-274h-125zM201 612v-236h183q50 0 87.5 28t37.5 90q0 118 -123 118h-185z" />
    <glyph glyph-name="Sigma" unicode="&#x3a3;" horiz-adv-x="629" 
d="M595 0h-556v104l251 266l-239 239v105h528v-107h-364l230 -232l-246 -268h396v-107z" />
    <glyph glyph-name="Tau" unicode="&#x3a4;" horiz-adv-x="593" 
d="M8 606v108h578v-108h-227v-606h-125v606h-226z" />
    <glyph glyph-name="Upsilon" unicode="&#x3a5;" horiz-adv-x="648" 
d="M262 0v280l-268 434h145l189 -320l186 320h140l-267 -434v-280h-125z" />
    <glyph glyph-name="Phi" unicode="&#x3a6;" horiz-adv-x="795" 
d="M336 745h126v-70q140 -5 217.5 -78t77.5 -215q0 -136 -80.5 -219t-214.5 -88v-75h-126v75q-138 5 -218 84t-80 219q0 139 80.5 215.5t217.5 81.5v70zM462 577v-404q170 8 170 209q0 103 -42 147.5t-128 47.5zM337 173v404q-174 -6 -174 -199q0 -199 174 -205z" />
    <glyph glyph-name="Chi" unicode="&#x3a7;" horiz-adv-x="648" 
d="M250 370l-236 344h149l162 -252l169 252h140l-236 -344l253 -370h-152l-178 273l-181 -273h-143z" />
    <glyph glyph-name="Psi" unicode="&#x3a8;" horiz-adv-x="834" 
d="M355 255v459h125v-458q87 1 126.5 43t39.5 141v274h126v-276q0 -268 -292 -283v-155h-125v155q-155 4 -224.5 74t-69.5 209v276h126v-274q0 -99 39.5 -141t128.5 -44z" />
    <glyph glyph-name="uni03A9" unicode="&#x3a9;" horiz-adv-x="767" 
d="M737 105v-105h-296v95q160 95 160 306q0 97 -58 162.5t-157 65.5t-159.5 -65.5t-60.5 -172.5q0 -199 164 -296v-95h-297v105h150v5q-142 99 -142 280q0 146 96.5 243.5t248.5 97.5q155 0 247.5 -98t92.5 -233q0 -182 -150 -290v-5h161z" />
    <glyph glyph-name="Iotadieresis" unicode="&#x3aa;" horiz-adv-x="278" 
d="M76 0v714h125v-714h-125zM168 904h114v-108h-114v108zM110 796h-114v108h114v-108z" />
    <glyph glyph-name="Upsilondieresis" unicode="&#x3ab;" horiz-adv-x="648" 
d="M262 0v280l-268 434h145l189 -320l186 320h140l-267 -434v-280h-125zM359 904h114v-108h-114v108zM301 796h-114v108h114v-108z" />
    <glyph glyph-name="alphatonos" unicode="&#x3ac;" horiz-adv-x="598" 
d="M408 517h114v-394q0 -47 32 -47q15 0 32 5v-79q-32 -16 -73 -16q-39 0 -65.5 21.5t-33.5 63.5h-2q-44 -85 -159 -85q-106 0 -164.5 78.5t-58.5 195.5q0 116 58 193.5t175 77.5q44 0 82.5 -21.5t60.5 -58.5h2v66zM412 258q0 74 -34 128.5t-95 54.5q-70 0 -104.5 -56
t-34.5 -130q0 -75 35 -127t100 -52q64 0 98.5 55t34.5 127zM238 584l34 148h136l-77 -148h-93z" />
    <glyph glyph-name="epsilontonos" unicode="&#x3ad;" horiz-adv-x="503" 
d="M206 584l34 148h136l-77 -148h-93zM469 371h-114q-11 70 -98 70q-96 0 -96 -66t71 -66h73v-81h-74q-84 0 -84 -74q0 -78 112 -78q100 0 116 94h114q-28 -184 -247 -184q-55 0 -101.5 15t-79.5 53t-33 94q0 45 25.5 77t67.5 42v3q-76 23 -76 104q0 73 61 115t151 42
q189 0 212 -160z" />
    <glyph glyph-name="etatonos" unicode="&#x3ae;" horiz-adv-x="579" 
d="M249 584l34 148h136l-77 -148h-93zM60 0v517h108v-76l2 -2q27 43 69 67.5t92 24.5q86 0 134.5 -45t48.5 -131v-546h-114v516q-2 61 -26 88.5t-75 27.5q-56 0 -90.5 -39t-34.5 -97v-305h-114z" />
    <glyph glyph-name="iotatonos" unicode="&#x3af;" horiz-adv-x="256" 
d="M73 584l34 148h136l-77 -148h-93zM177 517v-394q0 -47 34 -47q13 0 33 5v-78q-35 -17 -79 -17q-102 0 -102 107v424h114z" />
    <glyph glyph-name="upsilondieresistonos" unicode="&#x3b0;" horiz-adv-x="548" 
d="M58 517h113v-325q0 -61 25.5 -88.5t75.5 -27.5q126 0 126 197q0 56 -16 123t-47 121h120q57 -101 57 -242q0 -134 -61.5 -211.5t-178.5 -77.5q-214 0 -214 188v343zM199 584l37 145h119l-68 -145h-88zM367 602v108h106v-108h-106zM72 602v108h105v-108h-105z" />
    <glyph glyph-name="alpha" unicode="&#x3b1;" horiz-adv-x="598" 
d="M408 517h114v-394q0 -47 32 -47q15 0 32 5v-79q-32 -16 -73 -16q-39 0 -65.5 21.5t-33.5 63.5h-2q-44 -85 -159 -85q-106 0 -164.5 78.5t-58.5 195.5q0 116 58 193.5t175 77.5q44 0 82.5 -21.5t60.5 -58.5h2v66zM412 258q0 74 -34 128.5t-95 54.5q-70 0 -104.5 -56
t-34.5 -130q0 -75 35 -127t100 -52q64 0 98.5 55t34.5 127z" />
    <glyph glyph-name="beta" unicode="&#x3b2;" horiz-adv-x="579" 
d="M63 -191v694q0 110 55 166.5t163 56.5q109 0 161 -48.5t52 -124.5q0 -51 -26.5 -87t-66.5 -45v-2q71 -13 107 -67.5t36 -131.5q0 -114 -61.5 -174t-149.5 -60q-47 0 -88.5 20.5t-65.5 60.5h-2v-258h-114zM316 350h-57v88h26q47 0 71 28.5t24 79.5q0 43 -25.5 66.5
t-73.5 23.5q-56 0 -82 -33.5t-26 -111.5v-225q0 -94 35 -142t95 -48q56 0 91 32.5t35 103.5q0 76 -27 107t-86 31z" />
    <glyph glyph-name="gamma" unicode="&#x3b3;" horiz-adv-x="484" 
d="M358 517h118q-42 -281 -193 -525v-183h-114v144q0 112 -51.5 285t-109.5 279h124q35 -60 70 -179.5t45 -205.5h4q72 142 107 385z" />
    <glyph glyph-name="delta" unicode="&#x3b4;" horiz-adv-x="573" 
d="M36 249q0 88 46.5 149t134.5 84q-102 60 -100 130q1 48 45 81t143 33q100 0 165 -31v-89q-71 33 -165 33q-75 0 -75 -36q0 -14 19 -29t65 -43q8 -5 13 -8q46 -27 76 -49t64 -56.5t51.5 -77t17.5 -93.5q0 -107 -63.5 -184t-179.5 -77q-122 0 -189.5 74t-67.5 189zM150 249
q0 -79 40 -126t103 -47q59 0 93.5 45.5t34.5 125.5q0 114 -131 189q-140 -28 -140 -187z" />
    <glyph glyph-name="epsilon" unicode="&#x3b5;" horiz-adv-x="503" 
d="M469 371h-114q-11 70 -98 70q-96 0 -96 -66t71 -66h73v-81h-74q-84 0 -84 -74q0 -78 112 -78q100 0 116 94h114q-28 -184 -247 -184q-55 0 -101.5 15t-79.5 53t-33 94q0 45 25.5 77t67.5 42v3q-76 23 -76 104q0 73 61 115t151 42q189 0 212 -160z" />
    <glyph glyph-name="zeta" unicode="&#x3b6;" horiz-adv-x="453" 
d="M346 -66q0 66 -44 66h-34q-109 0 -169.5 70.5t-60.5 191.5q0 122 62 215.5t183 145.5h-200v91h370v-80q-159 -63 -231.5 -155.5t-69.5 -216.5q3 -171 147 -171h19q132 0 132 -137q0 -59 -13 -108h-103q12 51 12 88z" />
    <glyph glyph-name="eta" unicode="&#x3b7;" horiz-adv-x="579" 
d="M60 0v517h108v-76l2 -2q27 43 69 67.5t92 24.5q86 0 134.5 -45t48.5 -131v-546h-114v516q-2 61 -26 88.5t-75 27.5q-56 0 -90.5 -39t-34.5 -97v-305h-114z" />
    <glyph glyph-name="theta" unicode="&#x3b8;" horiz-adv-x="546" 
d="M273 726q130 0 185.5 -95t55.5 -274q0 -177 -56 -274t-185 -97q-241 0 -241 371q0 369 241 369zM150 408h245q-3 116 -30.5 172t-91.5 56q-67 0 -94 -55.5t-29 -172.5zM273 76q68 0 93.5 52.5t29.5 192.5h-246q1 -138 28 -191.5t95 -53.5z" />
    <glyph glyph-name="iota" unicode="&#x3b9;" horiz-adv-x="256" 
d="M177 517v-394q0 -47 34 -47q13 0 33 5v-78q-35 -17 -79 -17q-102 0 -102 107v424h114z" />
    <glyph glyph-name="kappa" unicode="&#x3ba;" horiz-adv-x="534" 
d="M60 0v517h114v-222l206 222h140l-199 -203l218 -314h-139l-158 234l-68 -65v-169h-114z" />
    <glyph glyph-name="lambda" unicode="&#x3bb;" horiz-adv-x="541" 
d="M503 76q17 0 32 5v-78q-31 -17 -66 -17q-75 0 -95 64l-102 310h-2l-133 -360h-125l207 482l-44 110q-17 42 -66 42q-21 0 -48 -8v89q33 11 78 11q61 0 93.5 -29.5t62.5 -108.5l180 -491q10 -21 28 -21z" />
    <glyph glyph-name="uni03BC" unicode="&#x3bc;" horiz-adv-x="574" 
d="M514 517v-517h-112v72h-2q-52 -86 -141 -86q-55 0 -85 26v-203h-114v708h114v-317q0 -66 25 -95t74 -29q127 0 127 141v300h114z" />
    <glyph glyph-name="nu" unicode="&#x3bd;" horiz-adv-x="508" 
d="M381 517h118q-39 -249 -180 -517h-128l-182 517h124l127 -397h2q90 186 119 397z" />
    <glyph glyph-name="xi" unicode="&#x3be;" horiz-adv-x="445" 
d="M333 -66q0 66 -44 66h-34q-105 0 -162 56t-57 143q0 144 138 181v1q-56 12 -86 52t-30 92q0 93 61.5 147t159.5 54q81 0 149 -29v-91q-74 30 -141 30q-52 0 -83 -29t-31 -82q0 -105 136 -105h85v-88h-88q-82 0 -118.5 -29t-36.5 -91q0 -119 135 -121h19q132 0 132 -137
q0 -59 -13 -108h-103q12 51 12 88z" />
    <glyph glyph-name="omicron" unicode="&#x3bf;" horiz-adv-x="593" 
d="M297 -14q-121 0 -191 75.5t-70 197.5q0 120 70 196t191 76t191 -76t70 -196q0 -122 -70 -197.5t-191 -75.5zM297 76q72 0 109.5 54t37.5 129q0 74 -37.5 128t-109.5 54t-109.5 -54t-37.5 -128q0 -75 37.5 -129t109.5 -54z" />
    <glyph glyph-name="pi" unicode="&#x3c0;" horiz-adv-x="691" 
d="M123 0v427h-98v90h636v-90h-107v-302q0 -48 42 -48q19 0 37 5v-79q-39 -17 -83 -17q-109 0 -109 108v333h-204v-427h-114z" />
    <glyph glyph-name="rho" unicode="&#x3c1;" horiz-adv-x="585" 
d="M58 -191v448q0 128 64 201t179 73q121 0 184.5 -80t63.5 -194q0 -50 -12.5 -96.5t-38 -86.5t-71 -64t-104.5 -24q-40 0 -83 20.5t-67 59.5h-2v-257h-113zM435 263q0 77 -34.5 127t-101.5 50q-60 0 -95.5 -48.5t-35.5 -132.5q0 -78 34.5 -130.5t101.5 -52.5q63 0 97 54.5
t34 132.5z" />
    <glyph glyph-name="sigma1" unicode="&#x3c2;" horiz-adv-x="542" 
d="M358 -66q0 30 -8.5 48t-35.5 18h-45q-105 0 -169 68.5t-64 193.5q0 113 65 191t189 78q82 0 141.5 -41t77.5 -122h-114q-26 73 -105 73q-72 0 -106 -52.5t-34 -126.5q0 -83 39 -127t106 -44h36q131 0 131 -137q0 -59 -13 -108h-103q12 51 12 88z" />
    <glyph glyph-name="sigma" unicode="&#x3c3;" horiz-adv-x="589" 
d="M36 258q0 116 74 187.5t200 71.5h269v-90h-125q37 -23 58.5 -70.5t21.5 -98.5q0 -49 -14.5 -96t-43 -87t-77.5 -64.5t-111 -24.5q-118 0 -185 77t-67 195zM150 258q0 -83 39.5 -132t98.5 -49q64 0 98 48.5t34 132.5q0 121 -62 169h-41q-76 0 -121.5 -42t-45.5 -127z" />
    <glyph glyph-name="tau" unicode="&#x3c4;" horiz-adv-x="488" 
d="M291 427v-302q0 -48 49 -48q21 0 39 5v-79q-39 -17 -87 -17q-114 0 -114 108v333h-168v90h468v-90h-187z" />
    <glyph glyph-name="upsilon" unicode="&#x3c5;" horiz-adv-x="548" 
d="M58 517h113v-325q0 -61 25.5 -88.5t75.5 -27.5q126 0 126 197q0 56 -16 123t-47 121h120q57 -101 57 -242q0 -134 -61.5 -211.5t-178.5 -77.5q-214 0 -214 188v343z" />
    <glyph glyph-name="phi" unicode="&#x3c6;" horiz-adv-x="733" 
d="M423 663v-132q125 -2 200 -74t75 -194q0 -132 -74.5 -202t-198.5 -75v-177h-116v177q-125 3 -199.5 73t-74.5 202q0 122 74.5 195t199.5 75v132h114zM423 441v-364q74 -2 117.5 46t43.5 140q0 83 -42 131t-119 47zM309 76v365q-76 1 -118 -48t-42 -132q0 -92 43 -139.5
t117 -45.5z" />
    <glyph glyph-name="chi" unicode="&#x3c7;" horiz-adv-x="493" 
d="M306 194l198 -385h-137l-124 276l-119 -276h-134l197 380l-182 328h137l106 -224l105 224h133z" />
    <glyph glyph-name="psi" unicode="&#x3c8;" horiz-adv-x="692" 
d="M484 517h120q52 -97 52 -242q0 -132 -68 -207.5t-184 -80.5v-177h-115v176q-231 10 -231 256v275h114v-268q0 -77 25.5 -122t91.5 -51v586h115v-586q66 4 102 53.5t36 143.5q0 58 -15 125.5t-43 118.5z" />
    <glyph glyph-name="omega" unicode="&#x3c9;" horiz-adv-x="739" 
d="M311 189v198h113v-198q0 -113 70 -113q93 0 93 168q0 150 -93 273h125q85 -113 85 -280q0 -105 -53 -178t-148 -73q-104 0 -137 98q-28 -55 -56 -76.5t-81 -21.5q-98 0 -146 71.5t-48 178.5q0 161 86 281h124q-93 -121 -93 -274q0 -167 91 -167q68 0 68 113z" />
    <glyph glyph-name="iotadieresis" unicode="&#x3ca;" horiz-adv-x="256" 
d="M152 710h114v-108h-114v108zM94 602h-114v108h114v-108zM177 517v-394q0 -47 34 -47q13 0 33 5v-78q-35 -17 -79 -17q-102 0 -102 107v424h114z" />
    <glyph glyph-name="upsilondieresis" unicode="&#x3cb;" horiz-adv-x="548" 
d="M58 517h113v-325q0 -61 25.5 -88.5t75.5 -27.5q126 0 126 197q0 56 -16 123t-47 121h120q57 -101 57 -242q0 -134 -61.5 -211.5t-178.5 -77.5q-214 0 -214 188v343zM297 710h114v-108h-114v108zM239 602h-114v108h114v-108z" />
    <glyph glyph-name="omicrontonos" unicode="&#x3cc;" horiz-adv-x="593" 
d="M243 584l34 148h136l-77 -148h-93zM297 -14q-121 0 -191 75.5t-70 197.5q0 120 70 196t191 76t191 -76t70 -196q0 -122 -70 -197.5t-191 -75.5zM297 76q72 0 109.5 54t37.5 129q0 74 -37.5 128t-109.5 54t-109.5 -54t-37.5 -128q0 -75 37.5 -129t109.5 -54z" />
    <glyph glyph-name="upsilontonos" unicode="&#x3cd;" horiz-adv-x="548" 
d="M212 584l34 148h136l-77 -148h-93zM58 517h113v-325q0 -61 25.5 -88.5t75.5 -27.5q126 0 126 197q0 56 -16 123t-47 121h120q57 -101 57 -242q0 -134 -61.5 -211.5t-178.5 -77.5q-214 0 -214 188v343z" />
    <glyph glyph-name="omegatonos" unicode="&#x3ce;" horiz-adv-x="739" 
d="M311 189v198h113v-198q0 -113 70 -113q93 0 93 168q0 150 -93 273h125q85 -113 85 -280q0 -105 -53 -178t-148 -73q-104 0 -137 98q-28 -55 -56 -76.5t-81 -21.5q-98 0 -146 71.5t-48 178.5q0 161 86 281h124q-93 -121 -93 -274q0 -167 91 -167q68 0 68 113zM319 584
l34 148h136l-77 -148h-93z" />
    <glyph glyph-name="uni0400" unicode="&#x400;" horiz-adv-x="630" 
d="M76 0v714h514v-108h-389v-187h360v-102h-360v-209h396v-108h-521zM153 926h134l91 -143h-83z" />
    <glyph glyph-name="afii10023" unicode="&#x401;" horiz-adv-x="630" 
d="M76 0v714h514v-108h-389v-187h360v-102h-360v-209h396v-108h-521zM359 904h114v-108h-114v108zM301 796h-114v108h114v-108z" />
    <glyph glyph-name="afii10051" unicode="&#x402;" horiz-adv-x="786" 
d="M339 0h-125v606h-206v108h578v-108h-247v-248q61 84 177 84q114 0 175 -74.5t61 -199.5q0 -131 -74 -209.5t-190 -78.5h-14v96q69 2 111 47t42 140q0 181 -136 181q-68 0 -110 -48.5t-42 -132.5v-163z" />
    <glyph glyph-name="afii10052" unicode="&#x403;" horiz-adv-x="577" 
d="M76 0v714h494v-108h-369v-606h-125zM236 783l90 143h135l-142 -143h-83z" />
    <glyph glyph-name="afii10053" unicode="&#x404;" horiz-adv-x="722" 
d="M683 501h-125q-31 128 -183 128q-91 0 -144 -59.5t-65 -147.5h304v-101h-307q6 -101 61 -168.5t150 -67.5q153 0 188 154h121q-17 -117 -99 -186.5t-208 -69.5q-151 0 -244.5 101.5t-93.5 271.5q0 161 90.5 268t248.5 107q123 0 204 -58t102 -172z" />
    <glyph glyph-name="afii10054" unicode="&#x405;" horiz-adv-x="648" 
d="M33 238h125q0 -78 50 -115.5t131 -37.5q77 0 114 31.5t37 76.5q0 66 -59 88q-23 9 -51.5 17t-78 20.5t-83.5 21.5q-158 41 -158 181q0 101 77.5 155.5t183.5 54.5q117 0 195.5 -60.5t78.5 -167.5h-125q-10 126 -154 126q-52 0 -91.5 -22t-39.5 -71q0 -67 85 -92
q1 0 47 -12t94.5 -25t64.5 -18q67 -21 103 -71.5t36 -110.5q0 -58 -24 -102.5t-65.5 -70t-90.5 -38.5t-104 -13q-130 0 -213 64t-85 191z" />
    <glyph glyph-name="afii10055" unicode="&#x406;" horiz-adv-x="278" 
d="M76 0v714h125v-714h-125z" />
    <glyph glyph-name="afii10056" unicode="&#x407;" horiz-adv-x="278" 
d="M168 904h114v-108h-114v108zM110 796h-114v108h114v-108zM76 0v714h125v-714h-125z" />
    <glyph glyph-name="afii10057" unicode="&#x408;" horiz-adv-x="537" 
d="M461 714v-484q0 -42 -4.5 -74t-19.5 -66t-39.5 -56t-68.5 -36.5t-103 -14.5q-108 0 -160.5 62.5t-52.5 166.5v38h125v-37q0 -64 22 -96t76 -32q58 0 79 33t21 105v491h125z" />
    <glyph glyph-name="afii10058" unicode="&#x409;" horiz-adv-x="1057" 
d="M1024 221q0 -106 -64.5 -163.5t-180.5 -57.5h-293v606h-211l-15 -383q-5 -114 -53 -177t-131 -63q-41 0 -72 13v97q29 -8 46 -8q44 0 63.5 32t23.5 122l18 475h456v-274h168q117 0 181 -57t64 -162zM899 218q0 56 -34 88t-93 32h-161v-235h163q125 0 125 115z" />
    <glyph glyph-name="afii10059" unicode="&#x40a;" horiz-adv-x="1035" 
d="M1002 221q0 -106 -64.5 -163.5t-180.5 -57.5h-275v338h-284v-338h-125v714h125v-273h284v273h125v-274h150q117 0 181 -57t64 -162zM877 218q0 56 -34 88t-93 32h-143v-235h145q125 0 125 115z" />
    <glyph glyph-name="afii10060" unicode="&#x40b;" horiz-adv-x="786" 
d="M500 442q126 0 184 -57t58 -155v-230h-125v206q0 63 -33 94.5t-104 31.5q-78 0 -141 -17v-315h-125v606h-206v108h578v-108h-247v-183q81 19 161 19z" />
    <glyph glyph-name="afii10061" unicode="&#x40c;" horiz-adv-x="685" 
d="M277 783l90 143h135l-142 -143h-83zM76 0v714h125v-325l318 325h154l-285 -285l305 -429h-156l-234 341l-102 -101v-240h-125z" />
    <glyph glyph-name="uni040D" unicode="&#x40d;" horiz-adv-x="722" 
d="M73 0v714h125v-546l305 546h145v-714h-125v546l-305 -546h-145zM189 926h134l91 -143h-83z" />
    <glyph glyph-name="afii10062" unicode="&#x40e;" horiz-adv-x="611" 
d="M242 203l-247 511h138l173 -388l174 388h136l-277 -569q-43 -88 -91.5 -125t-110.5 -37q-44 0 -84 18v105q38 -18 73 -18q30 0 54 19.5t52 75.5zM148 925h58q15 -76 107 -76q39 0 66 19.5t35 56.5h57q-8 -70 -51.5 -105.5t-114.5 -35.5q-69 0 -110 36t-47 105z" />
    <glyph glyph-name="afii10145" unicode="&#x40f;" horiz-adv-x="722" 
d="M73 0v714h125v-606h325v606h125v-714h-225v-177h-125v177h-225z" />
    <glyph glyph-name="afii10017" unicode="&#x410;" horiz-adv-x="667" 
d="M-7 0l274 714h133l275 -714h-134l-67 189h-285l-67 -189h-129zM331 591l-108 -307h218l-107 307h-3z" />
    <glyph glyph-name="afii10018" unicode="&#x411;" horiz-adv-x="694" 
d="M654 221q0 -106 -64.5 -163.5t-180.5 -57.5h-333v714h520v-108h-395v-166h208q117 0 181 -57t64 -162zM529 218q0 56 -34 88t-93 32h-201v-235h203q125 0 125 115z" />
    <glyph glyph-name="afii10019" unicode="&#x412;" horiz-adv-x="704" 
d="M76 0v714h347q99 0 155.5 -45t56.5 -132q0 -108 -102 -152v-2q65 -14 99.5 -62t34.5 -122q0 -89 -65.5 -144t-197.5 -55h-328zM201 415h204q46 0 75.5 26t29.5 73q0 52 -26 75t-79 23h-204v-197zM201 102h221q57 0 88.5 29.5t31.5 83.5q0 53 -31.5 81.5t-88.5 28.5h-221
v-223z" />
    <glyph glyph-name="afii10020" unicode="&#x413;" horiz-adv-x="577" 
d="M76 0v714h494v-108h-369v-606h-125z" />
    <glyph glyph-name="afii10021" unicode="&#x414;" horiz-adv-x="716" 
d="M708 -177h-123v177h-458v-177h-123v285h67q93 183 93 456v150h466v-606h78v-285zM505 108v498h-218v-43q0 -268 -82 -455h300z" />
    <glyph glyph-name="afii10022" unicode="&#x415;" horiz-adv-x="630" 
d="M76 0v714h514v-108h-389v-187h360v-102h-360v-209h396v-108h-521z" />
    <glyph glyph-name="afii10024" unicode="&#x416;" horiz-adv-x="1032" 
d="M375 319l-235 -319h-152l307 402l-277 312h158l276 -320v320h125v-321l278 321h154l-274 -303l308 -411h-156l-233 321l-77 -83v-238h-125v231z" />
    <glyph glyph-name="afii10025" unicode="&#x417;" horiz-adv-x="648" 
d="M604 206q0 -92 -75 -157.5t-207 -65.5q-134 0 -211.5 64.5t-78.5 188.5h123q0 -79 46 -116.5t124 -37.5q71 0 112.5 33t41.5 93q0 56 -37 85t-106 29h-77v97h77q56 0 90 29t34 79q0 47 -34.5 76t-97.5 29q-138 0 -149 -125h-119q4 110 79 167t190 57q111 0 182.5 -51.5
t71.5 -146.5q0 -54 -35 -96.5t-79 -53.5v-3q64 -16 99.5 -61t35.5 -113z" />
    <glyph glyph-name="afii10026" unicode="&#x418;" horiz-adv-x="722" 
d="M73 0v714h125v-546l305 546h145v-714h-125v546l-305 -546h-145z" />
    <glyph glyph-name="afii10027" unicode="&#x419;" horiz-adv-x="722" 
d="M73 0v714h125v-546l305 546h145v-714h-125v546l-305 -546h-145zM205 925h58q15 -76 107 -76q39 0 66 19.5t35 56.5h57q-8 -70 -51.5 -105.5t-114.5 -35.5q-69 0 -110 36t-47 105z" />
    <glyph glyph-name="afii10028" unicode="&#x41a;" horiz-adv-x="685" 
d="M76 0v714h125v-325l318 325h154l-285 -285l305 -429h-156l-234 341l-102 -101v-240h-125z" />
    <glyph glyph-name="afii10029" unicode="&#x41b;" horiz-adv-x="700" 
d="M626 0h-125v606h-226l-15 -383q-5 -114 -53 -177t-131 -63q-41 0 -72 13v97q29 -8 46 -8q44 0 63.5 32t23.5 122l18 475h471v-714z" />
    <glyph glyph-name="afii10030" unicode="&#x41c;" horiz-adv-x="889" 
d="M74 0v714h176l197 -559h2l192 559h174v-714h-119v551h-2l-198 -551h-103l-198 551h-2v-551h-119z" />
    <glyph glyph-name="afii10031" unicode="&#x41d;" horiz-adv-x="722" 
d="M73 0v714h125v-284h325v284h125v-714h-125v322h-325v-322h-125z" />
    <glyph glyph-name="afii10032" unicode="&#x41e;" horiz-adv-x="760" 
d="M380 731q155 0 248.5 -108t93.5 -266q0 -159 -93.5 -266.5t-248.5 -107.5t-248.5 107.5t-93.5 266.5q0 158 93.5 266t248.5 108zM380 629q-107 0 -162 -79.5t-55 -192.5t55 -192.5t162 -79.5t162 79.5t55 192.5t-55 192.5t-162 79.5z" />
    <glyph glyph-name="afii10033" unicode="&#x41f;" horiz-adv-x="722" 
d="M648 714v-714h-125v606h-325v-606h-125v714h575z" />
    <glyph glyph-name="afii10034" unicode="&#x420;" horiz-adv-x="667" 
d="M76 0v714h315q72 0 123 -21t75.5 -57t34.5 -70.5t10 -72.5t-10 -72.5t-34.5 -69.5t-75.5 -56t-123 -21h-190v-274h-125zM201 612v-236h183q50 0 87.5 28t37.5 90q0 118 -123 118h-185z" />
    <glyph glyph-name="afii10035" unicode="&#x421;" horiz-adv-x="722" 
d="M38 357q0 158 93.5 266t248.5 108q124 0 207.5 -65.5t95.5 -178.5h-125q-36 142 -178 142q-107 0 -162 -79.5t-55 -192.5t55 -192.5t162 -79.5q80 0 126.5 52t55.5 135h122q-8 -129 -91.5 -209t-212.5 -80q-155 0 -248.5 107.5t-93.5 266.5z" />
    <glyph glyph-name="afii10036" unicode="&#x422;" horiz-adv-x="593" 
d="M8 606v108h578v-108h-227v-606h-125v606h-226z" />
    <glyph glyph-name="afii10037" unicode="&#x423;" horiz-adv-x="611" 
d="M242 203l-247 511h138l173 -388l174 388h136l-277 -569q-43 -88 -91.5 -125t-110.5 -37q-44 0 -84 18v105q38 -18 73 -18q30 0 54 19.5t52 75.5z" />
    <glyph glyph-name="afii10038" unicode="&#x424;" horiz-adv-x="809" 
d="M467 714v-71q132 -3 219.5 -73.5t87.5 -202.5q0 -130 -86.5 -203.5t-220.5 -83.5v-80h-125v80q-128 4 -217.5 75.5t-89.5 202.5q0 130 86.5 203.5t220.5 81.5v71h125zM467 539v-354q85 7 134.5 52.5t49.5 129.5q0 157 -184 172zM342 184v354q-85 -5 -134.5 -50.5
t-49.5 -129.5q0 -154 184 -174z" />
    <glyph glyph-name="afii10039" unicode="&#x425;" horiz-adv-x="648" 
d="M250 370l-236 344h149l162 -252l169 252h140l-236 -344l253 -370h-152l-178 273l-181 -273h-143z" />
    <glyph glyph-name="afii10040" unicode="&#x426;" horiz-adv-x="734" 
d="M648 108h78v-285h-123v177h-530v714h125v-606h325v606h125v-606z" />
    <glyph glyph-name="afii10041" unicode="&#x427;" horiz-adv-x="686" 
d="M487 316q-116 -24 -197 -24q-125 0 -182.5 57t-57.5 154v211h125v-184q0 -66 33 -97t102 -31q80 0 177 21v291h125v-714h-125v316z" />
    <glyph glyph-name="afii10042" unicode="&#x428;" horiz-adv-x="1070" 
d="M73 0v714h125v-606h274v606h125v-606h274v606h125v-714h-923z" />
    <glyph glyph-name="afii10043" unicode="&#x429;" horiz-adv-x="1082" 
d="M73 0v714h125v-606h274v606h125v-606h274v606h125v-606h78v-285h-123v177h-878z" />
    <glyph glyph-name="afii10044" unicode="&#x42a;" horiz-adv-x="812" 
d="M779 221q0 -106 -64.5 -163.5t-180.5 -57.5h-313v606h-213v108h338v-274h188q117 0 181 -57t64 -162zM654 218q0 56 -34 88t-93 32h-181v-235h183q125 0 125 115z" />
    <glyph glyph-name="afii10045" unicode="&#x42b;" horiz-adv-x="895" 
d="M695 0v714h125v-714h-125zM611 221q0 -106 -64.5 -163.5t-180.5 -57.5h-293v714h125v-274h168q117 0 181 -57t64 -162zM486 218q0 56 -34 88t-93 32h-161v-235h163q125 0 125 115z" />
    <glyph glyph-name="afii10046" unicode="&#x42c;" horiz-adv-x="667" 
d="M634 221q0 -106 -64.5 -163.5t-180.5 -57.5h-313v714h125v-274h188q117 0 181 -57t64 -162zM509 218q0 56 -34 88t-93 32h-181v-235h183q125 0 125 115z" />
    <glyph glyph-name="afii10047" unicode="&#x42d;" horiz-adv-x="722" 
d="M246 317v101h310q-7 92 -57 151.5t-139 59.5q-74 0 -123 -33.5t-66 -94.5h-125q21 102 105.5 166t206.5 64q155 0 240.5 -104.5t85.5 -270.5t-95 -269.5t-243 -103.5q-126 0 -209.5 69.5t-97.5 186.5h126q12 -69 58.5 -111.5t122.5 -42.5q100 0 155 68t58 164h-313z" />
    <glyph glyph-name="afii10048" unicode="&#x42e;" horiz-adv-x="1020" 
d="M651 731q149 0 240 -108.5t91 -265.5q0 -158 -91 -266t-240 -108q-143 0 -230 95t-98 244h-125v-322h-125v714h125v-284h129q20 134 105 217.5t219 83.5zM651 629q-70 0 -118.5 -40.5t-68.5 -99.5t-20 -132t20 -132t68.5 -99.5t118.5 -40.5t118 40.5t68 100t20 131.5
t-20 131.5t-68 100t-118 40.5z" />
    <glyph glyph-name="afii10049" unicode="&#x42f;" horiz-adv-x="690" 
d="M616 0h-125v294h-146l-202 -294h-152l220 305q-155 45 -155 195q0 93 62 153.5t175 60.5h323v-714zM491 389v223h-189q-60 0 -90.5 -30t-30.5 -81q0 -112 122 -112h188z" />
    <glyph glyph-name="afii10065" unicode="&#x430;" 
d="M493 381v-266q0 -21 6 -30t21 -9q17 0 28 2v-79q-37 -13 -72 -13q-76 0 -88 63q-32 -31 -81 -47t-98 -16q-76 0 -126.5 39.5t-50.5 111.5q0 37 11.5 64.5t28.5 43.5t45 27.5t51.5 16.5t57.5 9l63 8q55 7 76 20t21 45q0 70 -107 70q-50 0 -80 -20.5t-34 -61.5h-114
q6 92 71.5 132t163.5 40q85 0 146 -37t61 -113zM379 174v85q-27 -16 -88 -24l-46 -6q-99 -13 -99 -82q0 -36 28.5 -53.5t69.5 -17.5q53 0 94 24.5t41 73.5z" />
    <glyph glyph-name="afii10066" unicode="&#x431;" horiz-adv-x="593" 
d="M558 253q0 -120 -70.5 -193.5t-182.5 -73.5q-126 0 -194.5 80.5t-68.5 222.5q0 352 263 386l47 6q36 5 51.5 11.5t21.5 21.5h114q-7 -57 -47 -84.5t-110 -36.5l-64 -8q-74 -9 -116 -52.5t-61 -124.5h3q66 101 189 101q99 0 162 -69t63 -187zM444 253q0 78 -37.5 122
t-104.5 44q-64 0 -104.5 -46t-40.5 -124t39.5 -125.5t106.5 -47.5q64 0 102.5 46t38.5 131z" />
    <glyph glyph-name="afii10067" unicode="&#x432;" 
d="M521 156q0 -75 -49.5 -115.5t-140.5 -40.5h-271v517h282q72 0 113.5 -34t41.5 -93q0 -79 -79 -109v-2q50 -13 76.5 -45t26.5 -78zM316 431h-142v-120h146q66 0 66 61q0 59 -70 59zM331 228h-157v-142h157q77 0 77 70q0 34 -20 53t-57 19z" />
    <glyph glyph-name="afii10068" unicode="&#x433;" horiz-adv-x="426" 
d="M421 427h-247v-427h-114v517h361v-90z" />
    <glyph glyph-name="afii10069" unicode="&#x434;" horiz-adv-x="600" 
d="M593 -164h-112v164h-362v-164h-112v254h61q61 143 61 309v118h395v-427h69v-254zM410 90v337h-170v-33q0 -154 -55 -304h225z" />
    <glyph glyph-name="afii10070" unicode="&#x435;" 
d="M529 229h-380q0 -65 35.5 -109t103.5 -44q96 0 126 86h108q-18 -83 -82.5 -129.5t-151.5 -46.5q-120 0 -186.5 74.5t-66.5 197.5q0 114 69 193.5t181 79.5q119 0 189 -91t55 -211zM149 304h266q-4 57 -39 97t-91 40q-58 0 -96 -39t-40 -98z" />
    <glyph glyph-name="afii10072" unicode="&#x436;" horiz-adv-x="779" 
d="M789 0h-137l-156 223l-50 -54v-169h-114v165l-50 55l-158 -220h-134l222 289l-198 228h138l177 -216h3v216h114v-218h3l177 218h138l-193 -220z" />
    <glyph glyph-name="afii10073" unicode="&#x437;" horiz-adv-x="519" 
d="M482 156q0 -79 -65 -124.5t-159 -45.5q-110 0 -167.5 46.5t-61.5 128.5h115q8 -87 117 -87q49 0 78 21.5t29 58.5q0 73 -101 73h-64v84h46q103 0 103 65q0 68 -94 68q-44 0 -69 -21t-30 -56h-115q8 85 69.5 124.5t155.5 39.5q90 0 143 -38.5t53 -103.5q0 -76 -83 -107v-2
q42 -9 71 -39.5t29 -84.5z" />
    <glyph glyph-name="afii10074" unicode="&#x438;" horiz-adv-x="574" 
d="M204 0h-144v517h114v-377h3l193 377h144v-517h-114v377h-3z" />
    <glyph glyph-name="afii10075" unicode="&#x439;" horiz-adv-x="574" 
d="M127 731h58q15 -76 107 -76q39 0 66 19.5t35 56.5h57q-8 -70 -51.5 -105.5t-114.5 -35.5q-69 0 -110 36t-47 105zM204 0h-144v517h114v-377h3l193 377h144v-517h-114v377h-3z" />
    <glyph glyph-name="afii10076" unicode="&#x43a;" horiz-adv-x="534" 
d="M60 0v517h114v-222l206 222h140l-199 -203l218 -314h-139l-158 234l-68 -65v-169h-114z" />
    <glyph glyph-name="afii10077" unicode="&#x43b;" horiz-adv-x="566" 
d="M506 0h-114v427h-159l-7 -255q-3 -93 -47 -139.5t-106 -46.5q-35 0 -63 11v89q22 -5 37 -5q34 0 49.5 22t17.5 91l9 323h383v-517z" />
    <glyph glyph-name="afii10078" unicode="&#x43c;" horiz-adv-x="704" 
d="M168 0h-108v517h147l147 -414h2l141 414h147v-517h-108v360h-2l-126 -360h-111l-127 360h-2v-360z" />
    <glyph glyph-name="afii10079" unicode="&#x43d;" horiz-adv-x="574" 
d="M174 0h-114v517h114v-203h226v203h114v-517h-114v224h-226v-224z" />
    <glyph glyph-name="afii10080" unicode="&#x43e;" horiz-adv-x="593" 
d="M297 -14q-121 0 -191 75.5t-70 197.5q0 120 70 196t191 76t191 -76t70 -196q0 -122 -70 -197.5t-191 -75.5zM297 76q72 0 109.5 54t37.5 129q0 74 -37.5 128t-109.5 54t-109.5 -54t-37.5 -128q0 -75 37.5 -129t109.5 -54z" />
    <glyph glyph-name="afii10081" unicode="&#x43f;" horiz-adv-x="574" 
d="M174 0h-114v517h454v-517h-114v427h-226v-427z" />
    <glyph glyph-name="afii10082" unicode="&#x440;" horiz-adv-x="611" 
d="M63 -191v708h108v-70h2q45 84 160 84q117 0 179.5 -77.5t62.5 -197.5q0 -113 -57.5 -191.5t-165.5 -78.5q-54 0 -101 20.5t-72 60.5h-2v-258h-114zM461 258q0 75 -38 129t-105 54q-71 0 -108 -49t-37 -134q0 -80 39 -131t106 -51q72 0 107.5 53t35.5 129z" />
    <glyph glyph-name="afii10083" unicode="&#x441;" 
d="M523 344h-114q-7 47 -38 72t-80 25q-25 0 -47.5 -8t-45 -27t-36 -58.5t-13.5 -94.5q0 -73 34 -125t103 -52q50 0 82.5 31t40.5 87h114q-16 -101 -76.5 -154.5t-160.5 -53.5q-118 0 -184.5 74.5t-66.5 192.5q0 123 66 200.5t189 77.5q95 0 160 -48t73 -139z" />
    <glyph glyph-name="afii10084" unicode="&#x442;" horiz-adv-x="464" 
d="M459 427h-170v-427h-114v427h-170v90h454v-90z" />
    <glyph glyph-name="afii10085" unicode="&#x443;" horiz-adv-x="519" 
d="M199 2l-196 515h125l135 -386h2l131 386h119l-201 -545q-35 -88 -54 -115q-44 -62 -129 -62q-40 0 -79 6v96q44 -7 54 -7q36 0 52.5 17.5t27.5 54.5z" />
    <glyph glyph-name="afii10086" unicode="&#x444;" horiz-adv-x="830" 
d="M792 266q0 -76 -21 -137t-70 -102t-121 -41q-67 0 -105 48h-3v-225h-114v225h-3q-51 -48 -117 -48q-100 0 -150 80.5t-50 199.5q0 122 55 193.5t148 71.5q70 0 114 -53h3v236h114v-236h3q50 53 119 53q92 0 145 -71t53 -194zM678 264q0 179 -113 179q-30 0 -56.5 -14.5
t-36.5 -46.5v-251q5 -24 29 -40.5t59 -16.5q63 0 90.5 54t27.5 136zM358 131v251q-10 32 -36.5 46.5t-56.5 14.5q-113 0 -113 -179q0 -82 27.5 -136t90.5 -54q35 0 59 16.5t29 40.5z" />
    <glyph glyph-name="afii10087" unicode="&#x445;" horiz-adv-x="537" 
d="M4 0l195 272l-179 245h138l108 -159l113 159h132l-176 -239l198 -278h-137l-131 191l-127 -191h-134z" />
    <glyph glyph-name="afii10088" unicode="&#x446;" horiz-adv-x="590" 
d="M514 90h69v-254h-112v164h-411v517h114v-427h226v427h114v-427z" />
    <glyph glyph-name="afii10089" unicode="&#x447;" horiz-adv-x="540" 
d="M480 517v-517h-114v212q-95 -19 -154 -19q-83 0 -130 41.5t-47 126.5v156h114v-136q0 -48 20 -70.5t63 -22.5q54 0 134 16v213h114z" />
    <glyph glyph-name="afii10090" unicode="&#x448;" horiz-adv-x="814" 
d="M60 0v517h114v-427h176v427h114v-427h176v427h114v-517h-694z" />
    <glyph glyph-name="afii10091" unicode="&#x449;" horiz-adv-x="830" 
d="M60 0v517h114v-427h176v427h114v-427h176v427h114v-427h69v-254h-112v164h-651z" />
    <glyph glyph-name="afii10092" unicode="&#x44a;" horiz-adv-x="630" 
d="M598 168q0 -79 -48 -123.5t-136 -44.5h-263v427h-146v90h260v-188h145q91 0 139.5 -42.5t48.5 -118.5zM484 166q0 74 -85 74h-134v-151h136q83 0 83 77z" />
    <glyph glyph-name="afii10093" unicode="&#x44b;" horiz-adv-x="727" 
d="M553 0v517h114v-517h-114zM487 168q0 -79 -48 -123.5t-136 -44.5h-243v517h114v-188h125q91 0 139.5 -42.5t48.5 -118.5zM373 166q0 74 -85 74h-114v-151h116q83 0 83 77z" />
    <glyph glyph-name="afii10094" unicode="&#x44c;" horiz-adv-x="539" 
d="M507 168q0 -79 -48 -123.5t-136 -44.5h-263v517h114v-188h145q91 0 139.5 -42.5t48.5 -118.5zM393 166q0 74 -85 74h-134v-151h136q83 0 83 77z" />
    <glyph glyph-name="afii10095" unicode="&#x44d;" 
d="M521 262q0 -119 -70 -197.5t-184 -78.5q-97 0 -159.5 51t-74.5 138h113q7 -47 39.5 -73t81.5 -26q59 0 96 40t42 110h-194v81h193q-5 63 -40 98.5t-92 35.5q-92 0 -122 -85h-114q20 80 82.5 127.5t155.5 47.5q116 0 181.5 -72.5t65.5 -196.5z" />
    <glyph glyph-name="afii10096" unicode="&#x44e;" horiz-adv-x="808" 
d="M520 -14q-110 0 -177 65.5t-76 174.5h-93v-226h-114v517h114v-205h96q15 99 80.5 159t169.5 60q118 0 185.5 -76t67.5 -196q0 -122 -67.5 -197.5t-185.5 -75.5zM520 74q67 0 103 53t36 132t-36 131.5t-103 52.5t-104 -52.5t-37 -131.5t37 -132t104 -53z" />
    <glyph glyph-name="afii10097" unicode="&#x44f;" horiz-adv-x="550" 
d="M490 0h-114v208h-99l-154 -208h-129l166 218q-112 32 -112 143q0 69 49.5 112.5t133.5 43.5h259v-517zM376 291v139h-136q-80 0 -80 -69q0 -70 79 -70h137z" />
    <glyph glyph-name="uni0450" unicode="&#x450;" 
d="M117 732h134l91 -143h-83zM529 229h-380q0 -65 35.5 -109t103.5 -44q96 0 126 86h108q-18 -83 -82.5 -129.5t-151.5 -46.5q-120 0 -186.5 74.5t-66.5 197.5q0 114 69 193.5t181 79.5q119 0 189 -91t55 -211zM149 304h266q-4 57 -39 97t-91 40q-58 0 -96 -39t-40 -98z" />
    <glyph glyph-name="afii10071" unicode="&#x451;" 
d="M529 229h-380q0 -65 35.5 -109t103.5 -44q96 0 126 86h108q-18 -83 -82.5 -129.5t-151.5 -46.5q-120 0 -186.5 74.5t-66.5 197.5q0 114 69 193.5t181 79.5q119 0 189 -91t55 -211zM149 304h266q-4 57 -39 97t-91 40q-58 0 -96 -39t-40 -98zM318 710h114v-108h-114v108z
M260 602h-114v108h114v-108z" />
    <glyph glyph-name="afii10099" unicode="&#x452;" horiz-adv-x="574" 
d="M400 122v188q0 118 -101 118q-56 0 -90.5 -40t-34.5 -98v-290h-114v571h-80v82h80v61h114v-61h169v-82h-169v-137h2q22 36 63.5 59t91.5 23q86 0 134.5 -45t48.5 -131v-217q0 -137 -80.5 -223t-213.5 -91v99q88 8 134 62.5t46 151.5z" />
    <glyph glyph-name="afii10100" unicode="&#x453;" horiz-adv-x="426" 
d="M421 427h-247v-427h-114v517h361v-90zM164 589l90 143h135l-142 -143h-83z" />
    <glyph glyph-name="afii10101" unicode="&#x454;" 
d="M523 176q-19 -90 -80.5 -140t-153.5 -50q-117 0 -185.5 72t-68.5 195q0 126 71.5 202t185.5 76q95 0 156.5 -46t74.5 -128h-114q-21 84 -116 84q-61 0 -100 -35.5t-44 -98.5h201v-81h-202q3 -73 40 -111.5t101 -38.5q96 0 121 100h113z" />
    <glyph glyph-name="afii10102" unicode="&#x455;" horiz-adv-x="519" 
d="M32 166h114q9 -90 117 -90q20 0 37.5 2.5t37 9t30.5 21t10 35.5q-1 13 -5.5 23t-15 17.5t-20.5 12.5t-28 10t-30 8t-35 7.5t-35 7.5q-36 8 -62 17.5t-51.5 26t-39 44t-13.5 65.5q0 40 20 70.5t53 46.5t69 23.5t74 7.5q87 0 147 -38.5t69 -120.5h-119q-14 69 -105 69
q-21 0 -40 -3.5t-36.5 -16t-17.5 -33.5q0 -12 4 -21.5t15 -16.5t20 -12t28.5 -10.5t30 -8t35.5 -7.5l35 -7q37 -8 62.5 -17.5t51.5 -26.5t39.5 -43.5t13.5 -63.5q0 -58 -36.5 -97.5t-86.5 -55t-108 -15.5q-102 0 -164.5 46t-64.5 134z" />
    <glyph glyph-name="afii10103" unicode="&#x456;" horiz-adv-x="241" 
d="M63 606v108h114v-108h-114zM63 0v517h114v-517h-114z" />
    <glyph glyph-name="afii10104" unicode="&#x457;" horiz-adv-x="241" 
d="M177 0h-114v517h114v-517zM150 710h114v-108h-114v108zM92 602h-114v108h114v-108z" />
    <glyph glyph-name="afii10105" unicode="&#x458;" horiz-adv-x="241" 
d="M63 606v108h114v-108h-114zM63 -39v556h114v-561q0 -80 -35 -120.5t-113 -40.5q-31 0 -51 4v90q20 -4 39 -4q29 0 37.5 17t8.5 59z" />
    <glyph glyph-name="afii10106" unicode="&#x459;" horiz-adv-x="838" 
d="M386 0v427h-153l-7 -255q-3 -93 -47 -139.5t-106 -46.5q-35 0 -63 11v89q22 -5 37 -5q34 0 49.5 22t17.5 91l9 323h377v-194h118q91 0 139.5 -42t48.5 -116q0 -77 -48 -121t-136 -44h-236zM692 163q0 34 -22 52.5t-63 18.5h-107v-145h109q83 0 83 74z" />
    <glyph glyph-name="afii10107" unicode="&#x45a;" horiz-adv-x="830" 
d="M174 0h-114v517h114v-194h194v194h114v-194h128q91 0 139.5 -42t48.5 -116q0 -77 -48 -121t-136 -44h-246v234h-194v-234zM684 163q0 34 -22 52.5t-63 18.5h-117v-145h119q83 0 83 74z" />
    <glyph glyph-name="afii10108" unicode="&#x45b;" horiz-adv-x="574" 
d="M60 0v571h-80v82h80v61h114v-61h169v-82h-169v-137h2q22 36 63.5 59t91.5 23q86 0 134.5 -45t48.5 -131v-340h-114v310q0 118 -101 118q-56 0 -90.5 -40t-34.5 -98v-290h-114z" />
    <glyph glyph-name="afii10109" unicode="&#x45c;" horiz-adv-x="534" 
d="M60 0v517h114v-222l206 222h140l-199 -203l218 -314h-139l-158 234l-68 -65v-169h-114zM203 589l90 143h135l-142 -143h-83z" />
    <glyph glyph-name="uni045D" unicode="&#x45d;" horiz-adv-x="574" 
d="M204 0h-144v517h114v-377h3l193 377h144v-517h-114v377h-3zM116 732h134l91 -143h-83z" />
    <glyph glyph-name="afii10110" unicode="&#x45e;" horiz-adv-x="519" 
d="M106 731h58q15 -76 107 -76q39 0 66 19.5t35 56.5h57q-8 -70 -51.5 -105.5t-114.5 -35.5q-69 0 -110 36t-47 105zM199 2l-196 515h125l135 -386h2l131 386h119l-201 -545q-35 -88 -54 -115q-44 -62 -129 -62q-40 0 -79 6v96q44 -7 54 -7q36 0 52.5 17.5t27.5 54.5z" />
    <glyph glyph-name="afii10193" unicode="&#x45f;" horiz-adv-x="574" 
d="M400 90v427h114v-517h-171v-164h-114v164h-169v517h114v-427h226z" />
    <glyph glyph-name="afii10146" unicode="&#x462;" horiz-adv-x="752" 
d="M286 634h196v-100h-196v-102h188q117 0 181 -56t64 -159t-64.5 -160t-180.5 -57h-313v534h-153v100h153v80h125v-80zM594 214q0 54 -34 85t-93 31h-181v-227h183q125 0 125 111z" />
    <glyph glyph-name="afii10194" unicode="&#x463;" horiz-adv-x="614" 
d="M453 517v-90h-204v-98h145q91 0 139.5 -42.5t48.5 -118.5q0 -79 -48 -123.5t-136 -44.5h-263v427h-130v90h130v197h114v-197h204zM468 166q0 74 -85 74h-134v-151h136q83 0 83 77z" />
    <glyph glyph-name="afii10147" unicode="&#x472;" horiz-adv-x="760" 
d="M380 731q155 0 248.5 -108t93.5 -266q0 -159 -93.5 -266.5t-248.5 -107.5t-248.5 107.5t-93.5 266.5q0 158 93.5 266t248.5 108zM380 629q-94 0 -147.5 -56t-67.5 -149h430q-14 93 -68 149t-147 56zM380 85q101 0 155.5 65t62.5 170h-437q8 -105 62.5 -170t156.5 -65z
" />
    <glyph glyph-name="afii10195" unicode="&#x473;" horiz-adv-x="593" 
d="M297 -14q-121 0 -191 75.5t-70 197.5q0 120 70 196t191 76t191 -76t70 -196q0 -122 -70 -197.5t-191 -75.5zM297 441q-65 0 -101 -37t-45 -100h292q-21 137 -146 137zM297 76q68 0 105 41.5t43 111.5h-296q6 -71 42.5 -112t105.5 -41z" />
    <glyph glyph-name="afii10148" unicode="&#x474;" horiz-adv-x="632" 
d="M556 577l-184 -577h-139l-238 714h130l179 -565h2l138 463q35 119 142 119q32 0 57 -8v-100q-21 6 -36 6q-34 0 -51 -52z" />
    <glyph glyph-name="afii10196" unicode="&#x475;" horiz-adv-x="531" 
d="M453 395l-128 -395h-128l-188 517h124l131 -397h2l90 306q30 105 129 105q27 0 51 -8v-87q-20 5 -34 5q-34 0 -49 -46z" />
    <glyph glyph-name="afii10050" unicode="&#x490;" horiz-adv-x="577" 
d="M559 869v-263h-358v-606h-125v714h360v155h123z" />
    <glyph glyph-name="afii10098" unicode="&#x491;" horiz-adv-x="426" 
d="M419 670v-243h-245v-427h-114v517h247v153h112z" />
    <glyph glyph-name="Wgrave" unicode="&#x1e80;" horiz-adv-x="944" 
d="M194 0l-188 714h127l129 -546h2l144 546h128l140 -546h2l133 546h127l-197 -714h-127l-143 546h-2l-146 -546h-129zM310 926h134l91 -143h-83z" />
    <glyph glyph-name="wgrave" unicode="&#x1e81;" horiz-adv-x="778" 
d="M173 0l-160 517h121l101 -386h2l97 386h115l93 -386h2l105 386h116l-162 -517h-117l-96 384h-2l-95 -384h-120zM227 732h134l91 -143h-83z" />
    <glyph glyph-name="Wacute" unicode="&#x1e82;" horiz-adv-x="944" 
d="M194 0l-188 714h127l129 -546h2l144 546h128l140 -546h2l133 546h127l-197 -714h-127l-143 546h-2l-146 -546h-129zM409 783l90 143h135l-142 -143h-83z" />
    <glyph glyph-name="wacute" unicode="&#x1e83;" horiz-adv-x="778" 
d="M173 0l-160 517h121l101 -386h2l97 386h115l93 -386h2l105 386h116l-162 -517h-117l-96 384h-2l-95 -384h-120zM336 589l90 143h135l-142 -143h-83z" />
    <glyph glyph-name="Wdieresis" unicode="&#x1e84;" horiz-adv-x="944" 
d="M194 0l-188 714h127l129 -546h2l144 546h128l140 -546h2l133 546h127l-197 -714h-127l-143 546h-2l-146 -546h-129zM501 904h114v-108h-114v108zM443 796h-114v108h114v-108z" />
    <glyph glyph-name="wdieresis" unicode="&#x1e85;" horiz-adv-x="778" 
d="M173 0l-160 517h121l101 -386h2l97 386h115l93 -386h2l105 386h116l-162 -517h-117l-96 384h-2l-95 -384h-120zM423 710h114v-108h-114v108zM365 602h-114v108h114v-108z" />
    <glyph glyph-name="Ygrave" unicode="&#x1ef2;" horiz-adv-x="648" 
d="M262 0v280l-268 434h145l189 -320l186 320h140l-267 -434v-280h-125zM153 926h134l91 -143h-83z" />
    <glyph glyph-name="ygrave" unicode="&#x1ef3;" horiz-adv-x="519" 
d="M199 2l-196 515h125l135 -386h2l131 386h119l-201 -545q-35 -88 -54 -115q-44 -62 -129 -62q-40 0 -79 6v96q44 -7 54 -7q36 0 52.5 17.5t27.5 54.5zM94 732h134l91 -143h-83z" />
    <glyph glyph-name="uni2010" unicode="&#x2010;" horiz-adv-x="389" 
d="M49 218v108h291v-108h-291z" />
    <glyph glyph-name="endash" unicode="&#x2013;" horiz-adv-x="500" 
d="M0 218v108h500v-108h-500z" />
    <glyph glyph-name="emdash" unicode="&#x2014;" horiz-adv-x="1000" 
d="M130 218v108h740v-108h-740z" />
    <glyph glyph-name="afii00208" unicode="&#x2015;" horiz-adv-x="1000" 
d="M70 218v108h860v-108h-860z" />
    <glyph glyph-name="quoteleft" unicode="&#x2018;" horiz-adv-x="278" 
d="M202 714v-58q-61 -23 -61 -89h61v-135h-125v135q0 54 35 92t90 55z" />
    <glyph glyph-name="quoteright" unicode="&#x2019;" horiz-adv-x="278" 
d="M77 432v58q61 9 61 89h-61v135h125v-135q0 -58 -34 -98.5t-91 -48.5z" />
    <glyph glyph-name="quotesinglbase" unicode="&#x201a;" horiz-adv-x="278" 
d="M77 -147v58q61 22 61 89h-61v135h125v-135q0 -54 -35.5 -93.5t-89.5 -53.5z" />
    <glyph glyph-name="quotedblleft" unicode="&#x201c;" horiz-adv-x="444" 
d="M384 714v-58q-61 -23 -61 -89h61v-135h-125v135q0 54 35 92t90 55zM185 714v-58q-61 -23 -61 -89h61v-135h-125v135q0 54 35 92t90 55z" />
    <glyph glyph-name="quotedblright" unicode="&#x201d;" horiz-adv-x="444" 
d="M259 432v58q61 22 61 89h-61v135h125v-135q0 -54 -35.5 -93.5t-89.5 -53.5zM60 432v58q61 22 61 89h-61v135h125v-135q0 -54 -35.5 -93.5t-89.5 -53.5z" />
    <glyph glyph-name="quotedblbase" unicode="&#x201e;" horiz-adv-x="444" 
d="M259 -147v58q61 22 61 89h-61v135h125v-135q0 -54 -35.5 -93.5t-89.5 -53.5zM60 -147v58q61 22 61 89h-61v135h125v-135q0 -54 -35.5 -93.5t-89.5 -53.5z" />
    <glyph glyph-name="dagger" unicode="&#x2020;" 
d="M221 -160v582h-191v95h191v197h114v-197h191v-95h-191v-582h-114z" />
    <glyph glyph-name="daggerdbl" unicode="&#x2021;" 
d="M221 -160v197h-191v95h191v290h-191v95h191v197h114v-197h191v-95h-191v-290h191v-95h-191v-197h-114z" />
    <glyph glyph-name="bullet" unicode="&#x2022;" horiz-adv-x="500" 
d="M72 357q0 74 52 126t126 52t126.5 -52t52.5 -126t-52.5 -126.5t-126.5 -52.5t-126 52.5t-52 126.5z" />
    <glyph glyph-name="ellipsis" unicode="&#x2026;" horiz-adv-x="1000" 
d="M763 0v135h139v-135h-139zM430 0v135h139v-135h-139zM97 0v135h139v-135h-139z" />
    <glyph glyph-name="perthousand" unicode="&#x2030;" horiz-adv-x="1148" 
d="M165 -24l398 748h73l-400 -748h-71zM231 714q74 0 111.5 -50.5t37.5 -128.5q0 -66 -36 -115t-113 -49t-113 49t-36 115q0 78 37.5 128.5t111.5 50.5zM231 654q-64 0 -64 -122q0 -101 64 -101t64 101q0 122 -64 122zM917 -14q-77 0 -113 50t-36 118q0 77 37.5 126
t111.5 49t111.5 -49t37.5 -126q0 -68 -36 -118t-113 -50zM576 -14q-71 0 -110 47.5t-39 120.5q0 76 37.5 125.5t111.5 49.5t111.5 -49.5t37.5 -125.5q0 -73 -39 -120.5t-110 -47.5zM917 46q64 0 64 105q0 118 -64 118t-64 -118q0 -105 64 -105zM576 46q64 0 64 105
q0 118 -64 118t-64 -118q0 -105 64 -105z" />
    <glyph glyph-name="guilsinglleft" unicode="&#x2039;" horiz-adv-x="259" 
d="M205 93l-155 123v112l155 123v-103l-95 -76l95 -76v-103z" />
    <glyph glyph-name="guilsinglright" unicode="&#x203a;" horiz-adv-x="259" 
d="M54 451l155 -123v-112l-155 -123v103l95 76l-95 76v103z" />
    <glyph glyph-name="interrobang" unicode="&#x203d;" 
d="M209 508v58q-49 -22 -57 -99h-105q0 73 42 120.5t118 64.5v62h117v-55q87 -8 135 -54t48 -116q0 -50 -22.5 -84.5t-65.5 -69.5q-56 -44 -74.5 -69.5t-18.5 -71.5h-85zM387 485q0 71 -65 88v-65l-17 -148q50 37 66 62t16 63zM210 0v125h134v-125h-134z" />
    <glyph glyph-name="fraction" unicode="&#x2044;" horiz-adv-x="167" 
d="M-165 -24l419 748h78l-418 -748h-79z" />
    <glyph glyph-name="zero.superior" unicode="&#x2070;" horiz-adv-x="390" 
d="M195 388q-161 0 -161 219q0 117 44.5 169.5t116.5 52.5q161 0 161 -218q0 -117 -44.5 -170t-116.5 -53zM195 759q-40 0 -57 -34.5t-17 -117.5q0 -149 74 -149q40 0 57 35t17 118q0 148 -74 148z" />
    <glyph glyph-name="four.superior" unicode="&#x2074;" horiz-adv-x="390" 
d="M219 397v92h-193v76l198 255h78v-263h58v-68h-58v-92h-83zM219 557v159l-124 -159h124z" />
    <glyph glyph-name="five.superior" unicode="&#x2075;" horiz-adv-x="390" 
d="M330 820v-68h-184l-16 -100q35 29 87 29q62 0 97.5 -39t35.5 -100q0 -66 -46 -110t-116 -44q-64 0 -106.5 34t-45.5 91h80q4 -25 23.5 -40t49.5 -15q37 0 59 21.5t22 60.5t-21 61t-55 22q-47 0 -69 -38h-78l37 235h246z" />
    <glyph glyph-name="six.superior" unicode="&#x2076;" horiz-adv-x="390" 
d="M347 722h-80q-11 43 -59 43q-45 0 -66.5 -36.5t-23.5 -93.5q39 44 104 44q60 0 96 -37t36 -99q0 -68 -42 -111.5t-109 -43.5q-86 0 -126 56.5t-40 152.5q0 101 42.5 166.5t130.5 65.5q122 0 137 -107zM200 620q-37 0 -57.5 -23t-20.5 -59t21 -60.5t56 -24.5t55.5 22
t20.5 62q0 35 -20 59t-55 24z" />
    <glyph glyph-name="seven.superior" unicode="&#x2077;" horiz-adv-x="390" 
d="M342 820v-66q-64 -57 -102.5 -160.5t-40.5 -196.5h-91q15 194 144 351h-205v72h295z" />
    <glyph glyph-name="eight.superior" unicode="&#x2078;" horiz-adv-x="390" 
d="M53 712q0 52 40 84.5t102 32.5q68 0 105 -32t37 -81q0 -66 -65 -90q83 -25 83 -108q0 -61 -47 -95.5t-112 -34.5q-69 0 -115 33t-46 96q0 40 22.5 67.5t60.5 38.5q-65 24 -65 89zM127 708q0 -28 19 -43t49 -15q31 0 49 15t18 43t-18 44t-49 16q-32 0 -50 -16t-18 -44z
M114 522q0 -34 22.5 -52.5t59.5 -18.5q36 0 57.5 19t21.5 52t-22.5 52.5t-57.5 19.5q-37 0 -59 -19t-22 -53z" />
    <glyph glyph-name="nine.superior" unicode="&#x2079;" horiz-adv-x="390" 
d="M43 495h80q8 -43 60 -43q45 0 66 36.5t23 94.5q-38 -43 -104 -43q-61 0 -96.5 36t-35.5 98q0 68 42 111.5t109 43.5q86 0 126 -56.5t40 -151.5q0 -102 -42 -167.5t-131 -65.5q-123 0 -137 107zM190 599q37 0 57.5 22t20.5 58t-20.5 60t-56.5 24q-35 0 -55.5 -21.5
t-20.5 -61.5q0 -35 20 -58t55 -23z" />
    <glyph glyph-name="plus.superior" unicode="&#x207a;" horiz-adv-x="400" 
d="M236 709v-122h120v-68h-120v-122h-72v122h-120v68h120v122h72z" />
    <glyph glyph-name="minus.superior" unicode="&#x207b;" horiz-adv-x="270" 
d="M42 524v75h186v-75h-186z" />
    <glyph glyph-name="equal.superior" unicode="&#x207c;" horiz-adv-x="400" 
d="M356 650v-66h-312v66h312zM356 518v-66h-312v66h312z" />
    <glyph glyph-name="parenleft.superior" unicode="&#x207d;" horiz-adv-x="225" 
d="M126 876h73q-67 -123 -67 -277q0 -147 67 -281h-73q-82 128 -82 275q0 71 21.5 147.5t60.5 135.5z" />
    <glyph glyph-name="parenright.superior" unicode="&#x207e;" horiz-adv-x="225" 
d="M99 318h-73q67 123 67 277q0 147 -67 281h73q82 -128 82 -275q0 -71 -21.5 -147.5t-60.5 -135.5z" />
    <glyph glyph-name="n.superior" unicode="&#x207f;" horiz-adv-x="390" 
d="M45 397v319h83v-48q35 57 104 57q61 0 87 -32.5t26 -94.5v-201h-87v190q0 69 -57 69q-31 0 -50 -20.5t-19 -55.5v-183h-87z" />
    <glyph glyph-name="zero.inferior" unicode="&#x2080;" horiz-adv-x="390" 
d="M195 -178q-161 0 -161 219q0 117 44.5 169.5t116.5 52.5q161 0 161 -218q0 -117 -44.5 -170t-116.5 -53zM195 193q-40 0 -57 -34.5t-17 -117.5q0 -149 74 -149q40 0 57 35t17 118q0 148 -74 148z" />
    <glyph glyph-name="one.inferior" unicode="&#x2081;" horiz-adv-x="390" 
d="M58 126v58q120 0 138 70h70v-423h-87v295h-121z" />
    <glyph glyph-name="two.inferior" unicode="&#x2082;" horiz-adv-x="390" 
d="M353 -99v-70h-319q1 63 24.5 103.5t74.5 71.5l73 45q63 38 63 85q0 25 -17 41t-47 16q-70 0 -76 -83h-87q0 68 43.5 110.5t120.5 42.5q70 0 110 -34t40 -93q0 -78 -100 -137l-69 -42q-44 -27 -52 -56h218z" />
    <glyph glyph-name="three.inferior" unicode="&#x2083;" horiz-adv-x="390" 
d="M160 27v60h24q35 0 56 14t21 40q0 54 -69 54q-35 0 -54 -20t-19 -54h-80q3 67 44.5 104.5t112.5 37.5q65 0 105 -30t40 -83q0 -59 -64 -86q81 -26 81 -108q0 -58 -47.5 -96t-116.5 -38q-79 0 -121.5 38.5t-42.5 100.5h80q5 -69 84 -69q39 0 61.5 18t22.5 50q0 67 -92 67
h-26z" />
    <glyph glyph-name="four.inferior" unicode="&#x2084;" horiz-adv-x="390" 
d="M219 -169v92h-193v76l198 255h78v-263h58v-68h-58v-92h-83zM219 -9v159l-124 -159h124z" />
    <glyph glyph-name="five.inferior" unicode="&#x2085;" horiz-adv-x="390" 
d="M330 254v-68h-184l-16 -100q35 29 87 29q62 0 97.5 -39t35.5 -100q0 -66 -46 -110t-116 -44q-64 0 -106.5 34t-45.5 91h80q4 -25 23.5 -40t49.5 -15q37 0 59 21.5t22 60.5t-21 61t-55 22q-47 0 -69 -38h-78l37 235h246z" />
    <glyph glyph-name="six.inferior" unicode="&#x2086;" horiz-adv-x="390" 
d="M347 156h-80q-11 43 -59 43q-45 0 -66.5 -36.5t-23.5 -93.5q39 44 104 44q60 0 96 -37t36 -99q0 -68 -42 -111.5t-109 -43.5q-86 0 -126 56.5t-40 152.5q0 101 42.5 166.5t130.5 65.5q122 0 137 -107zM200 54q-37 0 -57.5 -23t-20.5 -59t21 -60.5t56 -24.5t55.5 22
t20.5 62q0 35 -20 59t-55 24z" />
    <glyph glyph-name="seven.inferior" unicode="&#x2087;" horiz-adv-x="390" 
d="M342 254v-66q-64 -57 -102.5 -160.5t-40.5 -196.5h-91q15 194 144 351h-205v72h295z" />
    <glyph glyph-name="eight.inferior" unicode="&#x2088;" horiz-adv-x="390" 
d="M53 146q0 52 40 84.5t102 32.5q68 0 105 -32t37 -81q0 -66 -65 -90q83 -25 83 -108q0 -61 -47 -95.5t-112 -34.5q-69 0 -115 33t-46 96q0 40 22.5 67.5t60.5 38.5q-65 24 -65 89zM127 142q0 -28 19 -43t49 -15q31 0 49 15t18 43t-18 44t-49 16q-32 0 -50 -16t-18 -44z
M114 -44q0 -34 22.5 -52.5t59.5 -18.5q36 0 57.5 19t21.5 52t-22.5 52.5t-57.5 19.5q-37 0 -59 -19t-22 -53z" />
    <glyph glyph-name="nine.inferior" unicode="&#x2089;" horiz-adv-x="390" 
d="M43 -71h80q8 -43 60 -43q45 0 66 36.5t23 94.5q-38 -43 -104 -43q-61 0 -96.5 36t-35.5 98q0 68 42 111.5t109 43.5q86 0 126 -56.5t40 -151.5q0 -102 -42 -167.5t-131 -65.5q-123 0 -137 107zM190 33q37 0 57.5 22t20.5 58t-20.5 60t-56.5 24q-35 0 -55.5 -21.5
t-20.5 -61.5q0 -35 20 -58t55 -23z" />
    <glyph glyph-name="plus.inferior" unicode="&#x208a;" horiz-adv-x="400" 
d="M236 143v-122h120v-68h-120v-122h-72v122h-120v68h120v122h72z" />
    <glyph glyph-name="minus.inferior" unicode="&#x208b;" horiz-adv-x="270" 
d="M42 -42v75h186v-75h-186z" />
    <glyph glyph-name="equal.inferior" unicode="&#x208c;" horiz-adv-x="400" 
d="M356 84v-66h-312v66h312zM356 -48v-66h-312v66h312z" />
    <glyph glyph-name="parenleft.inferior" unicode="&#x208d;" horiz-adv-x="225" 
d="M126 310h73q-67 -123 -67 -277q0 -147 67 -281h-73q-82 128 -82 275q0 71 21.5 147.5t60.5 135.5z" />
    <glyph glyph-name="parenright.inferior" unicode="&#x208e;" horiz-adv-x="225" 
d="M99 -248h-73q67 123 67 277q0 147 -67 281h73q82 -128 82 -275q0 -71 -21.5 -147.5t-60.5 -135.5z" />
    <glyph glyph-name="Euro" unicode="&#x20ac;" 
d="M567 652l-46 -91q-64 64 -140 64q-67 0 -112 -53q-37 -46 -51 -117h264l-26 -64h-245q-1 -3 -1 -14v-23q0 -28 1 -31h231l-25 -63h-201q12 -80 51 -127q45 -57 122 -57q51 0 83 16q30 15 68 50v-111q-68 -44 -151 -44q-134 0 -209 82q-64 70 -81 191h-77l27 63h45
q-2 18 -2 32q0 6 2 36h-72l26 64h53q25 115 91 182q77 77 197 77q86 0 178 -62z" />
    <glyph glyph-name="afii61248" unicode="&#x2105;" horiz-adv-x="834" 
d="M169 -24l419 748h78l-418 -748h-79zM349 579h-86q-8 65 -63 65q-42 0 -59.5 -36.5t-17.5 -116.5q0 -76 18.5 -112t58.5 -36q60 0 66 75h84q-8 -67 -47.5 -106t-103.5 -39q-79 0 -121.5 54.5t-42.5 162.5q0 224 167 224q65 0 104 -34t43 -101zM638 -14q-161 0 -161 219
q0 117 44.5 169.5t116.5 52.5q161 0 161 -218q0 -117 -44.5 -170t-116.5 -53zM638 357q-40 0 -57 -34.5t-17 -117.5q0 -149 74 -149q40 0 57 35t17 118q0 148 -74 148z" />
    <glyph glyph-name="afii61289" unicode="&#x2113;" horiz-adv-x="500" 
d="M440 48q-71 -62 -155 -62q-70 0 -110 37.5t-40 101.5v70l-57 -53h-2l-39 60l97 85v246q0 83 45.5 135.5t115.5 52.5q61 0 97.5 -39t36.5 -103q0 -143 -183 -310v-126q0 -40 19.5 -57.5t46.5 -17.5q41 0 88 38h2zM338 572q0 32 -12.5 53t-31.5 21q-20 0 -34 -24.5
t-14 -67.5v-190q92 101 92 208z" />
    <glyph glyph-name="afii61352" unicode="&#x2116;" horiz-adv-x="1068" 
d="M620 0h-132l-298 511v-511h-119v700h132l298 -512v512h119v-700zM841 432q75 0 119 -41.5t44 -111.5t-44.5 -114t-118.5 -44q-75 0 -119 41.5t-44 111.5t44.5 114t118.5 44zM841 366q-37 0 -57 -24t-20 -65t21.5 -65.5t55.5 -24.5q37 0 57 24t20 65t-21.5 65.5
t-55.5 24.5zM1004 0h-325v85h325v-85z" />
    <glyph glyph-name="published" unicode="&#x2117;" horiz-adv-x="800" 
d="M767 357q0 -164 -107.5 -269t-258.5 -105q-160 0 -264 106.5t-104 267.5q0 164 108 269t260 105q151 0 258.5 -105t107.5 -269zM687 357q0 135 -82.5 222t-203.5 87q-123 0 -205.5 -87t-82.5 -222q0 -131 79 -220t209 -89q122 0 204 87t82 222zM335 308v-165h-68v414h161
q72 0 109.5 -33t37.5 -90q0 -56 -36.5 -91t-101.5 -35h-102zM335 366h93q79 0 79 68q0 65 -80 65h-92v-133z" />
    <glyph glyph-name="trademark" unicode="&#x2122;" horiz-adv-x="990" 
d="M591 714l113 -292l112 292h115v-412h-75v322h-2l-123 -322h-56l-123 322h-2v-322h-75v412h116zM391 714v-65h-126v-347h-80v347h-126v65h332z" />
    <glyph glyph-name="Omega" unicode="&#x2126;" horiz-adv-x="767" 
d="M737 105v-105h-296v95q160 95 160 306q0 97 -58 162.5t-157 65.5t-159.5 -65.5t-60.5 -172.5q0 -199 164 -296v-95h-297v105h150v5q-142 99 -142 280q0 146 96.5 243.5t248.5 97.5q155 0 247.5 -98t92.5 -233q0 -182 -150 -290v-5h161z" />
    <glyph glyph-name="estimated" unicode="&#x212e;" horiz-adv-x="770" 
d="M726 349h-533v-238q80 -78 191 -78q82 0 144 38t111 121l46 -28q-62 -95 -130 -136.5t-171 -41.5q-152 0 -246 104t-94 259q0 157 94 261t246 104t246.5 -101.5t95.5 -263.5zM193 398h384v191q-84 79 -194 79q-109 0 -190 -79v-191z" />
    <glyph glyph-name="onethird" unicode="&#x2153;" horiz-adv-x="834" 
d="M131 -24l419 748h78l-418 -748h-79zM36 577v58q120 0 138 70h70v-423h-87v295h-121zM609 196v60h24q35 0 56 14t21 40q0 54 -69 54q-35 0 -54 -20t-19 -54h-80q3 67 44.5 104.5t112.5 37.5q65 0 105 -30t40 -83q0 -59 -64 -86q81 -25 81 -108q0 -58 -47.5 -96t-116.5 -38
q-79 0 -121.5 38.5t-42.5 100.5h80q5 -69 84 -69q39 0 61.5 18t22.5 50q0 67 -92 67h-26z" />
    <glyph glyph-name="twothirds" unicode="&#x2154;" horiz-adv-x="834" 
d="M186 -24l419 748h78l-418 -748h-79zM337 350v-70h-314q1 63 24.5 103.5t74.5 71.5l73 45q63 38 63 85q0 25 -17 41t-47 16q-70 0 -76 -83h-87q0 68 43.5 110.5t120.5 42.5q70 0 110 -34t40 -93q0 -78 -100 -137l-69 -42q-44 -27 -52 -56h213zM621 196v60h24q35 0 56 14
t21 40q0 54 -69 54q-35 0 -54 -20t-19 -54h-80q3 67 44.5 104.5t112.5 37.5q65 0 105 -30t40 -83q0 -59 -64 -86q81 -25 81 -108q0 -58 -47.5 -96t-116.5 -38q-79 0 -121.5 38.5t-42.5 100.5h80q5 -69 84 -69q39 0 61.5 18t22.5 50q0 67 -92 67h-26z" />
    <glyph glyph-name="oneeighth" unicode="&#x215b;" horiz-adv-x="834" 
d="M142 -24l419 748h78l-418 -748h-79zM36 577v58q120 0 138 70h70v-423h-87v295h-121zM504 315q0 52 40 84.5t102 32.5q68 0 105 -32t37 -81q0 -66 -65 -90q83 -25 83 -108q0 -61 -47 -95.5t-112 -34.5q-69 0 -115 33t-46 96q0 40 22.5 67.5t60.5 38.5q-65 24 -65 89z
M578 311q0 -28 19 -43t49 -15q31 0 49 15t18 43t-18 44t-49 16q-32 0 -50 -16t-18 -44zM565 125q0 -34 22.5 -52.5t59.5 -18.5q36 0 57.5 19t21.5 52t-22.5 52.5t-57.5 19.5q-37 0 -59 -19t-22 -53z" />
    <glyph glyph-name="threeeighths" unicode="&#x215c;" horiz-adv-x="834" 
d="M182 -24l419 748h78l-418 -748h-79zM157 476v60h24q35 0 56 14t21 40q0 54 -69 54q-35 0 -54 -20t-19 -54h-80q3 67 44.5 104.5t112.5 37.5q65 0 105 -30t40 -83q0 -59 -64 -86q81 -25 81 -108q0 -58 -47.5 -96t-116.5 -38q-79 0 -121.5 38.5t-42.5 100.5h80
q5 -69 84 -69q39 0 61.5 18t22.5 50q0 67 -92 67h-26zM514 315q0 52 40 84.5t102 32.5q68 0 105 -32t37 -81q0 -66 -65 -90q83 -25 83 -108q0 -61 -47 -95.5t-112 -34.5q-69 0 -115 33t-46 96q0 40 22.5 67.5t60.5 38.5q-65 24 -65 89zM588 311q0 -28 19 -43t49 -15
q31 0 49 15t18 43t-18 44t-49 16q-32 0 -50 -16t-18 -44zM575 125q0 -34 22.5 -52.5t59.5 -18.5q36 0 57.5 19t21.5 52t-22.5 52.5t-57.5 19.5q-37 0 -59 -19t-22 -53z" />
    <glyph glyph-name="fiveeighths" unicode="&#x215d;" horiz-adv-x="834" 
d="M182 -24l419 748h78l-418 -748h-79zM329 703v-68h-184l-16 -100q35 29 87 29q62 0 97.5 -39t35.5 -100q0 -66 -46 -110t-116 -44q-64 0 -106.5 34t-45.5 91h80q4 -25 23.5 -40t49.5 -15q37 0 59 21.5t22 60.5t-21 61t-55 22q-47 0 -69 -38h-78l37 235h246zM514 315
q0 52 40 84.5t102 32.5q68 0 105 -32t37 -81q0 -66 -65 -90q83 -25 83 -108q0 -61 -47 -95.5t-112 -34.5q-69 0 -115 33t-46 96q0 40 22.5 67.5t60.5 38.5q-65 24 -65 89zM588 311q0 -28 19 -43t49 -15q31 0 49 15t18 43t-18 44t-49 16q-32 0 -50 -16t-18 -44zM575 125
q0 -34 22.5 -52.5t59.5 -18.5q36 0 57.5 19t21.5 52t-22.5 52.5t-57.5 19.5q-37 0 -59 -19t-22 -53z" />
    <glyph glyph-name="seveneighths" unicode="&#x215e;" horiz-adv-x="834" 
d="M135 -24l419 748h78l-418 -748h-79zM368 703v-66q-64 -57 -102.5 -160.5t-40.5 -196.5h-91q15 194 144 351h-205v72h295zM494 315q0 52 40 84.5t102 32.5q68 0 105 -32t37 -81q0 -66 -65 -90q83 -25 83 -108q0 -61 -47 -95.5t-112 -34.5q-69 0 -115 33t-46 96
q0 40 22.5 67.5t60.5 38.5q-65 24 -65 89zM568 311q0 -28 19 -43t49 -15q31 0 49 15t18 43t-18 44t-49 16q-32 0 -50 -16t-18 -44zM555 125q0 -34 22.5 -52.5t59.5 -18.5q36 0 57.5 19t21.5 52t-22.5 52.5t-57.5 19.5q-37 0 -59 -19t-22 -53z" />
    <glyph glyph-name="partialdiff" unicode="&#x2202;" horiz-adv-x="548" 
d="M507 359q0 -55 -6 -103.5t-23 -99t-44 -86.5t-73 -59t-106 -23q-97 0 -156.5 64.5t-59.5 162.5q0 95 58.5 157t153.5 62q80 0 147 -58l1 30q2 54 -11.5 104t-51.5 89t-94 39t-118 -48l-57 66q44 34 82 49.5t89 15.5q74 0 128 -31.5t83.5 -85.5t43.5 -115t14 -130z
M397 264l-1 23q-57 67 -129 67q-60 0 -92.5 -42t-32.5 -103q0 -59 30 -100t87 -41q66 0 103.5 63t34.5 133z" />
    <glyph glyph-name="Delta" unicode="&#x2206;" horiz-adv-x="657" 
d="M665 0h-672l269 714h133zM494 105l-167 482l-167 -482h334z" />
    <glyph glyph-name="product" unicode="&#x220f;" horiz-adv-x="737" 
d="M674 -214h-108v902h-396v-902h-107v1000h611v-1000z" />
    <glyph glyph-name="summation" unicode="&#x2211;" horiz-adv-x="643" 
d="M618 -214h-593v86l306 419l-293 411v84h567v-98h-424l279 -396l-297 -409h455v-97z" />
    <glyph glyph-name="minus" unicode="&#x2212;" horiz-adv-x="600" 
d="M552 202h-504v102h504v-102z" />
    <glyph glyph-name="uni2215" unicode="&#x2215;" horiz-adv-x="167" 
d="M-165 -24l419 748h78l-418 -748h-79z" />
    <glyph glyph-name="uni2219" unicode="&#x2219;" horiz-adv-x="278" 
d="M64 302q0 29 22.5 51.5t52.5 22.5t52.5 -22.5t22.5 -51.5q0 -30 -22.5 -53t-52.5 -23t-52.5 23t-22.5 53z" />
    <glyph glyph-name="radical" unicode="&#x221a;" horiz-adv-x="531" 
d="M543 786l-211 -1000h-101l-153 319l-50 -23l-40 85l143 65l133 -281l170 835h109z" />
    <glyph glyph-name="infinity" unicode="&#x221e;" horiz-adv-x="806" 
d="M761 262q0 -77 -44.5 -128t-120.5 -51q-55 0 -100.5 30t-92.5 82q-32 -32 -43.5 -42.5t-39 -31.5t-53 -28.5t-56.5 -7.5q-75 0 -121 49.5t-46 125.5t45 126t119 50q59 0 102.5 -30.5t92.5 -87.5q48 56 93 87.5t101 31.5q74 0 119 -49.5t45 -125.5zM675 259q0 38 -21.5 62
t-58.5 24q-9 0 -17.5 -1.5t-18 -6t-16 -7.5t-16.5 -10.5t-15 -11t-15.5 -13.5t-13 -12.5l-13.5 -13.5l-12 -12q76 -82 140 -82q36 0 56.5 24t20.5 60zM348 258q-86 86 -140 86q-35 0 -56.5 -25t-21.5 -60q0 -37 21.5 -60t59.5 -23q35 0 72 24.5t65 57.5z" />
    <glyph glyph-name="integral" unicode="&#x222b;" horiz-adv-x="600" 
d="M474 713q0 -21 -15 -35t-36 -14q-25 0 -37.5 16t-18 32.5t-15.5 16.5q-19 0 -19 -32l2 -133l1 -524v-36.5t-1 -36.5t-3 -40t-7 -35t-11.5 -35t-17.5 -27.5t-25 -24t-33 -13.5t-43 -6q-38 0 -70 18.5t-32 53.5q0 21 13.5 35t34.5 14q25 0 37 -16.5t18 -33.5t15 -17
q7 0 11.5 3t6 10.5t2 11.5t-0.5 14v10l-3 97v535v20q0 36 0.5 56t4 54t12.5 53.5t24 40.5t40.5 31t60.5 10q38 0 71.5 -18.5t33.5 -54.5z" />
    <glyph glyph-name="approxequal" unicode="&#x2248;" horiz-adv-x="600" 
d="M499 441h67q-7 -72 -42 -118t-103 -46q-43 0 -134 34.5t-117 34.5q-27 0 -44 -20t-21 -49h-68q7 70 42 117.5t101 47.5q43 0 129.5 -33.5t125.5 -33.5q51 0 64 66zM497 235h67q-7 -72 -42 -118t-103 -46q-43 0 -134 34.5t-117 34.5q-27 0 -44 -20t-21 -49h-68
q7 70 42 117.5t101 47.5q43 0 129.5 -33.5t125.5 -33.5q51 0 64 66z" />
    <glyph glyph-name="notequal" unicode="&#x2260;" horiz-adv-x="600" 
d="M552 200v-99h-283l-76 -140l-79 41l54 99h-120v99h177l54 106h-231v99h285l76 140l79 -41l-54 -99h118v-99h-175l-55 -106h230z" />
    <glyph glyph-name="lessequal" unicode="&#x2264;" horiz-adv-x="600" 
d="M552 218v-96l-504 163v96l504 163v-97l-390 -114zM48 0v102h504v-102h-504z" />
    <glyph glyph-name="greaterequal" unicode="&#x2265;" horiz-adv-x="600" 
d="M48 122v96l390 115l-390 114v97l504 -163v-96zM552 102v-102h-504v102h504z" />
    <glyph glyph-name="lozenge" unicode="&#x25ca;" horiz-adv-x="593" 
d="M520 356l-177 -391h-95l-176 391l176 391h95zM417 356l-122 290l-119 -290l119 -291z" />
    <glyph glyph-name="grave.cap" unicode="&#xe000;" horiz-adv-x="241" 
d="M-29 926h134l91 -143h-83z" />
    <glyph glyph-name="acute.cap" unicode="&#xe002;" horiz-adv-x="241" 
d="M45 783l90 143h135l-142 -143h-83z" />
    <glyph glyph-name="circumflex.cap" unicode="&#xe004;" horiz-adv-x="241" 
d="M120 873l-70 -90h-92l107 143h111l108 -143h-93z" />
    <glyph glyph-name="caron.cap" unicode="&#xe006;" horiz-adv-x="241" 
d="M283 926l-108 -143h-111l-107 143h92l70 -89l71 89h93z" />
    <glyph glyph-name="caron.alt" unicode="&#xe008;" horiz-adv-x="241" 
d="M70 571l32 143h125l-81 -143h-76z" />
    <glyph glyph-name="tilde.cap" unicode="&#xe009;" horiz-adv-x="241" 
d="M241 914h56q-9 -55 -33 -81q-28 -34 -78 -34q-31 0 -74 19q-43 18 -68 18q-35 0 -43 -41h-57q7 44 34.5 78.5t69.5 34.5q33 0 81 -20q42 -18 62 -18q39 0 50 44z" />
    <glyph glyph-name="dieresis.cap" unicode="&#xe00b;" horiz-adv-x="241" 
d="M149 904h114v-108h-114v108zM91 796h-114v108h114v-108z" />
    <glyph glyph-name="macron.cap" unicode="&#xe00d;" horiz-adv-x="241" 
d="M265 818h-288v65h288v-65z" />
    <glyph glyph-name="breve.cap" unicode="&#xe00f;" horiz-adv-x="241" 
d="M-41 925h58q15 -76 107 -76q39 0 66 19.5t35 56.5h57q-8 -70 -51.5 -105.5t-114.5 -35.5q-69 0 -110 36t-47 105z" />
    <glyph glyph-name="ring.cap" unicode="&#xe011;" horiz-adv-x="241" 
d="M121 751q-44 0 -74 29t-30 74t30.5 74t73.5 29t73.5 -29t30.5 -74t-30.5 -74t-73.5 -29zM61 854q0 -26 17.5 -43.5t42.5 -17.5q26 0 43 17.5t17 43.5q0 27 -17 44t-43 17q-25 0 -42.5 -17t-17.5 -44z" />
    <glyph glyph-name="hungarumlaut.cap" unicode="&#xe013;" horiz-adv-x="241" 
d="M164 783l90 143h136l-144 -143h-82zM-35 783l90 143h136l-144 -143h-82z" />
    <glyph glyph-name="dotaccent.cap" unicode="&#xe015;" horiz-adv-x="241" 
d="M178 796h-114v108h114v-108z" />
    <glyph glyph-name="commaaccent" unicode="&#xe017;" horiz-adv-x="278" 
d="M73 -149v99h131v-89q0 -79 -116 -84v38q40 6 45 36h-60z" />
    <glyph glyph-name="commaaccent.alt" unicode="&#xe01a;" horiz-adv-x="278" 
d="M205 714v-99h-131v89q0 79 116 84v-38q-40 -6 -45 -36h60z" />
    <glyph glyph-name="tonos.cap" unicode="&#xe01b;" horiz-adv-x="241" 
d="M73 566l34 148h136l-77 -148h-93z" />
    <glyph glyph-name="f_i" unicode="&#xf001;" 
d="M378 606v108h114v-108h-114zM9 432v85h85v43q0 90 38.5 122t104.5 32q56 0 80 -7v-89q-23 6 -53 6q-56 0 -56 -54v-53h97v-85h-97v-432h-114v432h-85zM378 0v517h114v-517h-114z" />
    <glyph glyph-name="f_l" unicode="&#xf002;" 
d="M378 0v714h114v-714h-114zM9 432v85h85v43q0 90 38.5 122t104.5 32q56 0 80 -7v-89q-23 6 -53 6q-56 0 -56 -54v-53h97v-85h-97v-432h-114v432h-85z" />
    <glyph glyph-name="uniF8FF" unicode="&#xf8ff;" horiz-adv-x="512" 
d="M512 718h-512v-718h512v718zM462 50h-412v617h412v-617zM225 234h46q0 52 6 72q6 19 43 52q37 34 50 60t13 60q0 59 -35 95t-89 36q-56 0 -92 -34t-43 -103l50 -8q11 95 82 95q31 0 53.5 -24.5t22.5 -60.5q0 -20 -9.5 -37t-40.5 -46q-31 -31 -46 -59q-13 -25 -13 -81z
M222 117h56v67h-56v-67z" />
    <glyph glyph-name="_0015" horiz-adv-x="500" 
 />
    </font>
</defs>
</svg>
